STARTFONT 2.1
FONT -FontForge-MingLiU98-Book-R-Normal--13-120-75-75-P-128-ISO10646-1
SIZE 12 75 75
FONTBOUNDINGBOX 13 13 0 -2
COMMENT "Generated by fontforge, http://fontforge.sourceforge.net"
COMMENT "(c) Copyright DynaComware Corp. 1998"
STARTPROPERTIES 40
FOUNDRY "FontForge"
FAMILY_NAME "MingLiU98"
WEIGHT_NAME "Book"
SLANT "R"
SETWIDTH_NAME "Normal"
ADD_STYLE_NAME ""
PIXEL_SIZE 13
POINT_SIZE 120
RESOLUTION_X 75
RESOLUTION_Y 75
SPACING "P"
AVERAGE_WIDTH 128
CHARSET_REGISTRY "ISO10646"
CHARSET_ENCODING "1"
FONTNAME_REGISTRY ""
CHARSET_COLLECTIONS "ASCII ISOLatin1Encoding JISX0208.1997 GB2312.1980 BIG5 ISO10646-1"
FONT_NAME "MingLiU-98"
FACE_NAME "MingLiU-98"
COPYRIGHT "(c) Copyright DynaComware Corp. 1998"
FONT_VERSION "1.00"
FONT_ASCENT 10
FONT_DESCENT 3
UNDERLINE_POSITION -2
UNDERLINE_THICKNESS 1
X_HEIGHT 4
CAP_HEIGHT 7
RAW_ASCENT 800
RAW_DESCENT 199
NORM_SPACE 7
RELATIVE_WEIGHT 40
RELATIVE_SETWIDTH 50
SUPERSCRIPT_X 0
SUPERSCRIPT_Y 6
SUPERSCRIPT_SIZE 6
SUBSCRIPT_X 0
SUBSCRIPT_Y 0
SUBSCRIPT_SIZE 6
FIGURE_WIDTH 7
AVG_LOWERCASE_WIDTH 97
AVG_UPPERCASE_WIDTH 98
ENDPROPERTIES
CHARS 22454
STARTCHAR uni0001
ENCODING 1
SWIDTH 500 0
DWIDTH 7 0
BBX 0 0 0 0
BITMAP
ENDCHAR
STARTCHAR uni0002
ENCODING 2
SWIDTH 500 0
DWIDTH 7 0
BBX 0 0 0 0
BITMAP
ENDCHAR
STARTCHAR uni0003
ENCODING 3
SWIDTH 500 0
DWIDTH 7 0
BBX 0 0 0 0
BITMAP
ENDCHAR
STARTCHAR uni0004
ENCODING 4
SWIDTH 500 0
DWIDTH 7 0
BBX 0 0 0 0
BITMAP
ENDCHAR
STARTCHAR uni0005
ENCODING 5
SWIDTH 500 0
DWIDTH 7 0
BBX 0 0 0 0
BITMAP
ENDCHAR
STARTCHAR uni0006
ENCODING 6
SWIDTH 500 0
DWIDTH 7 0
BBX 0 0 0 0
BITMAP
ENDCHAR
STARTCHAR uni0007
ENCODING 7
SWIDTH 500 0
DWIDTH 7 0
BBX 0 0 0 0
BITMAP
ENDCHAR
STARTCHAR uni0008
ENCODING 8
SWIDTH 500 0
DWIDTH 7 0
BBX 0 0 0 0
BITMAP
ENDCHAR
STARTCHAR uni0009
ENCODING 9
SWIDTH 500 0
DWIDTH 7 0
BBX 0 0 0 0
BITMAP
ENDCHAR
STARTCHAR uni000A
ENCODING 10
SWIDTH 500 0
DWIDTH 7 0
BBX 0 0 0 0
BITMAP
ENDCHAR
STARTCHAR uni000B
ENCODING 11
SWIDTH 500 0
DWIDTH 7 0
BBX 0 0 0 0
BITMAP
ENDCHAR
STARTCHAR uni000C
ENCODING 12
SWIDTH 500 0
DWIDTH 7 0
BBX 0 0 0 0
BITMAP
ENDCHAR
STARTCHAR uni000D
ENCODING 13
SWIDTH 500 0
DWIDTH 7 0
BBX 0 0 0 0
BITMAP
ENDCHAR
STARTCHAR uni000E
ENCODING 14
SWIDTH 500 0
DWIDTH 7 0
BBX 0 0 0 0
BITMAP
ENDCHAR
STARTCHAR uni000F
ENCODING 15
SWIDTH 500 0
DWIDTH 7 0
BBX 0 0 0 0
BITMAP
ENDCHAR
STARTCHAR uni0010
ENCODING 16
SWIDTH 500 0
DWIDTH 7 0
BBX 0 0 0 0
BITMAP
ENDCHAR
STARTCHAR uni0011
ENCODING 17
SWIDTH 500 0
DWIDTH 7 0
BBX 0 0 0 0
BITMAP
ENDCHAR
STARTCHAR uni0012
ENCODING 18
SWIDTH 500 0
DWIDTH 7 0
BBX 0 0 0 0
BITMAP
ENDCHAR
STARTCHAR uni0013
ENCODING 19
SWIDTH 500 0
DWIDTH 7 0
BBX 0 0 0 0
BITMAP
ENDCHAR
STARTCHAR uni0014
ENCODING 20
SWIDTH 500 0
DWIDTH 7 0
BBX 0 0 0 0
BITMAP
ENDCHAR
STARTCHAR uni0015
ENCODING 21
SWIDTH 500 0
DWIDTH 7 0
BBX 0 0 0 0
BITMAP
ENDCHAR
STARTCHAR uni0016
ENCODING 22
SWIDTH 500 0
DWIDTH 7 0
BBX 0 0 0 0
BITMAP
ENDCHAR
STARTCHAR uni0017
ENCODING 23
SWIDTH 500 0
DWIDTH 7 0
BBX 0 0 0 0
BITMAP
ENDCHAR
STARTCHAR uni0018
ENCODING 24
SWIDTH 500 0
DWIDTH 7 0
BBX 0 0 0 0
BITMAP
ENDCHAR
STARTCHAR uni0019
ENCODING 25
SWIDTH 500 0
DWIDTH 7 0
BBX 0 0 0 0
BITMAP
ENDCHAR
STARTCHAR uni001A
ENCODING 26
SWIDTH 500 0
DWIDTH 7 0
BBX 0 0 0 0
BITMAP
ENDCHAR
STARTCHAR uni001B
ENCODING 27
SWIDTH 500 0
DWIDTH 7 0
BBX 0 0 0 0
BITMAP
ENDCHAR
STARTCHAR uni001C
ENCODING 28
SWIDTH 500 0
DWIDTH 7 0
BBX 0 0 0 0
BITMAP
ENDCHAR
STARTCHAR uni001D
ENCODING 29
SWIDTH 500 0
DWIDTH 7 0
BBX 0 0 0 0
BITMAP
ENDCHAR
STARTCHAR uni001E
ENCODING 30
SWIDTH 500 0
DWIDTH 7 0
BBX 0 0 0 0
BITMAP
ENDCHAR
STARTCHAR uni001F
ENCODING 31
SWIDTH 500 0
DWIDTH 7 0
BBX 0 0 0 0
BITMAP
ENDCHAR
STARTCHAR space
ENCODING 32
SWIDTH 500 0
DWIDTH 7 0
BBX 0 0 0 0
BITMAP
ENDCHAR
STARTCHAR exclam
ENCODING 33
SWIDTH 500 0
DWIDTH 7 0
BBX 1 10 3 -1
BITMAP
80
80
80
80
80
80
80
80
00
80
ENDCHAR
STARTCHAR quotedbl
ENCODING 34
SWIDTH 500 0
DWIDTH 7 0
BBX 3 3 2 5
BITMAP
A0
A0
A0
ENDCHAR
STARTCHAR numbersign
ENCODING 35
SWIDTH 500 0
DWIDTH 7 0
BBX 7 10 0 -1
BITMAP
14
14
14
7E
28
28
FC
50
50
50
ENDCHAR
STARTCHAR dollar
ENCODING 36
SWIDTH 500 0
DWIDTH 7 0
BBX 5 11 1 -2
BITMAP
20
70
A8
A0
60
30
28
A8
A8
70
20
ENDCHAR
STARTCHAR percent
ENCODING 37
SWIDTH 500 0
DWIDTH 7 0
BBX 7 10 0 -1
BITMAP
08
78
A8
B0
B0
54
2A
2A
4A
44
ENDCHAR
STARTCHAR ampersand
ENCODING 38
SWIDTH 500 0
DWIDTH 7 0
BBX 7 10 0 -1
BITMAP
20
50
50
50
2E
64
94
98
92
6C
ENDCHAR
STARTCHAR quotesingle
ENCODING 39
SWIDTH 500 0
DWIDTH 7 0
BBX 1 3 3 5
BITMAP
80
80
80
ENDCHAR
STARTCHAR parenleft
ENCODING 40
SWIDTH 500 0
DWIDTH 7 0
BBX 3 11 1 -3
BITMAP
20
40
40
80
80
80
80
80
40
40
20
ENDCHAR
STARTCHAR parenright
ENCODING 41
SWIDTH 500 0
DWIDTH 7 0
BBX 3 11 2 -3
BITMAP
80
40
40
20
20
20
20
20
40
40
80
ENDCHAR
STARTCHAR asterisk
ENCODING 42
SWIDTH 500 0
DWIDTH 7 0
BBX 5 6 1 3
BITMAP
20
A8
70
70
A8
20
ENDCHAR
STARTCHAR plus
ENCODING 43
SWIDTH 500 0
DWIDTH 7 0
BBX 7 7 0 -1
BITMAP
10
10
10
FE
10
10
10
ENDCHAR
STARTCHAR comma
ENCODING 44
SWIDTH 500 0
DWIDTH 7 0
BBX 2 3 2 -3
BITMAP
C0
40
80
ENDCHAR
STARTCHAR hyphen
ENCODING 45
SWIDTH 500 0
DWIDTH 7 0
BBX 3 1 2 2
BITMAP
E0
ENDCHAR
STARTCHAR period
ENCODING 46
SWIDTH 500 0
DWIDTH 7 0
BBX 1 2 3 -1
BITMAP
80
80
ENDCHAR
STARTCHAR slash
ENCODING 47
SWIDTH 500 0
DWIDTH 7 0
BBX 4 10 1 -1
BITMAP
10
10
20
20
20
40
40
40
80
80
ENDCHAR
STARTCHAR zero
ENCODING 48
SWIDTH 500 0
DWIDTH 7 0
BBX 5 10 1 -1
BITMAP
70
88
88
88
88
88
88
88
88
70
ENDCHAR
STARTCHAR one
ENCODING 49
SWIDTH 500 0
DWIDTH 7 0
BBX 3 10 2 -1
BITMAP
40
C0
40
40
40
40
40
40
40
E0
ENDCHAR
STARTCHAR two
ENCODING 50
SWIDTH 500 0
DWIDTH 7 0
BBX 6 10 0 -1
BITMAP
30
48
88
08
08
10
10
20
44
F8
ENDCHAR
STARTCHAR three
ENCODING 51
SWIDTH 500 0
DWIDTH 7 0
BBX 5 10 1 -1
BITMAP
60
90
10
10
60
10
08
08
10
E0
ENDCHAR
STARTCHAR four
ENCODING 52
SWIDTH 500 0
DWIDTH 7 0
BBX 6 10 0 -1
BITMAP
08
18
18
28
28
48
88
FC
08
08
ENDCHAR
STARTCHAR five
ENCODING 53
SWIDTH 500 0
DWIDTH 7 0
BBX 5 10 1 -1
BITMAP
78
40
80
E0
10
08
08
08
10
E0
ENDCHAR
STARTCHAR six
ENCODING 54
SWIDTH 500 0
DWIDTH 7 0
BBX 5 10 1 -1
BITMAP
18
20
40
40
B0
C8
88
88
88
70
ENDCHAR
STARTCHAR seven
ENCODING 55
SWIDTH 500 0
DWIDTH 7 0
BBX 5 9 1 -1
BITMAP
F8
88
08
10
10
10
20
20
20
ENDCHAR
STARTCHAR eight
ENCODING 56
SWIDTH 500 0
DWIDTH 7 0
BBX 5 10 1 -1
BITMAP
60
90
90
90
60
50
88
88
88
70
ENDCHAR
STARTCHAR nine
ENCODING 57
SWIDTH 500 0
DWIDTH 7 0
BBX 5 10 1 -1
BITMAP
70
88
88
88
88
98
68
08
10
60
ENDCHAR
STARTCHAR colon
ENCODING 58
SWIDTH 500 0
DWIDTH 7 0
BBX 2 6 2 -1
BITMAP
C0
00
00
00
00
C0
ENDCHAR
STARTCHAR semicolon
ENCODING 59
SWIDTH 500 0
DWIDTH 7 0
BBX 2 8 2 -3
BITMAP
C0
00
00
00
00
C0
40
80
ENDCHAR
STARTCHAR less
ENCODING 60
SWIDTH 500 0
DWIDTH 7 0
BBX 7 7 0 -1
BITMAP
06
18
60
80
60
18
06
ENDCHAR
STARTCHAR equal
ENCODING 61
SWIDTH 500 0
DWIDTH 7 0
BBX 6 3 0 1
BITMAP
FC
00
FC
ENDCHAR
STARTCHAR greater
ENCODING 62
SWIDTH 500 0
DWIDTH 7 0
BBX 7 7 0 -1
BITMAP
C0
30
0C
02
0C
30
C0
ENDCHAR
STARTCHAR question
ENCODING 63
SWIDTH 500 0
DWIDTH 7 0
BBX 5 10 1 -1
BITMAP
70
88
88
08
10
10
20
20
00
20
ENDCHAR
STARTCHAR at
ENCODING 64
SWIDTH 500 0
DWIDTH 7 0
BBX 6 9 0 -1
BITMAP
38
44
94
AC
AC
AC
98
44
38
ENDCHAR
STARTCHAR A
ENCODING 65
SWIDTH 500 0
DWIDTH 7 0
BBX 7 9 0 -1
BITMAP
10
10
28
28
28
7C
44
44
EE
ENDCHAR
STARTCHAR B
ENCODING 66
SWIDTH 500 0
DWIDTH 7 0
BBX 6 9 0 -1
BITMAP
F8
44
44
44
78
44
44
44
F8
ENDCHAR
STARTCHAR C
ENCODING 67
SWIDTH 500 0
DWIDTH 7 0
BBX 6 9 0 -1
BITMAP
34
4C
84
80
80
80
80
44
38
ENDCHAR
STARTCHAR D
ENCODING 68
SWIDTH 500 0
DWIDTH 7 0
BBX 6 9 0 -1
BITMAP
F0
48
44
44
44
44
44
48
F0
ENDCHAR
STARTCHAR E
ENCODING 69
SWIDTH 500 0
DWIDTH 7 0
BBX 6 9 0 -1
BITMAP
FC
44
40
48
78
48
40
44
FC
ENDCHAR
STARTCHAR F
ENCODING 70
SWIDTH 500 0
DWIDTH 7 0
BBX 6 9 0 -1
BITMAP
FC
44
40
48
78
48
40
40
E0
ENDCHAR
STARTCHAR G
ENCODING 71
SWIDTH 500 0
DWIDTH 7 0
BBX 7 9 0 -1
BITMAP
34
4C
84
80
8E
84
84
44
38
ENDCHAR
STARTCHAR H
ENCODING 72
SWIDTH 500 0
DWIDTH 7 0
BBX 7 9 0 -1
BITMAP
EE
44
44
44
7C
44
44
44
EE
ENDCHAR
STARTCHAR I
ENCODING 73
SWIDTH 500 0
DWIDTH 7 0
BBX 3 9 2 -1
BITMAP
E0
40
40
40
40
40
40
40
E0
ENDCHAR
STARTCHAR J
ENCODING 74
SWIDTH 500 0
DWIDTH 7 0
BBX 5 9 0 -1
BITMAP
38
10
10
10
10
10
10
90
60
ENDCHAR
STARTCHAR K
ENCODING 75
SWIDTH 500 0
DWIDTH 7 0
BBX 7 9 0 -1
BITMAP
EC
48
50
60
70
50
48
44
CE
ENDCHAR
STARTCHAR L
ENCODING 76
SWIDTH 500 0
DWIDTH 7 0
BBX 7 9 0 -1
BITMAP
E0
40
40
40
40
40
42
42
FE
ENDCHAR
STARTCHAR M
ENCODING 77
SWIDTH 500 0
DWIDTH 7 0
BBX 7 9 0 -1
BITMAP
C6
6C
6C
6C
6C
6C
54
54
D6
ENDCHAR
STARTCHAR N
ENCODING 78
SWIDTH 500 0
DWIDTH 7 0
BBX 7 9 0 -1
BITMAP
CE
64
64
54
54
54
4C
4C
E4
ENDCHAR
STARTCHAR O
ENCODING 79
SWIDTH 500 0
DWIDTH 7 0
BBX 6 9 0 -1
BITMAP
30
48
84
84
84
84
84
48
30
ENDCHAR
STARTCHAR P
ENCODING 80
SWIDTH 500 0
DWIDTH 7 0
BBX 6 9 0 -1
BITMAP
F8
44
44
44
78
40
40
40
E0
ENDCHAR
STARTCHAR Q
ENCODING 81
SWIDTH 500 0
DWIDTH 7 0
BBX 6 11 0 -3
BITMAP
30
48
84
84
84
84
84
48
30
10
0C
ENDCHAR
STARTCHAR R
ENCODING 82
SWIDTH 500 0
DWIDTH 7 0
BBX 7 9 0 -1
BITMAP
F8
44
44
44
78
50
48
44
E6
ENDCHAR
STARTCHAR S
ENCODING 83
SWIDTH 500 0
DWIDTH 7 0
BBX 5 9 1 -1
BITMAP
68
98
88
40
20
10
88
C8
B0
ENDCHAR
STARTCHAR T
ENCODING 84
SWIDTH 500 0
DWIDTH 7 0
BBX 7 9 0 -1
BITMAP
FE
92
10
10
10
10
10
10
38
ENDCHAR
STARTCHAR U
ENCODING 85
SWIDTH 500 0
DWIDTH 7 0
BBX 7 9 0 -1
BITMAP
EE
44
44
44
44
44
44
44
38
ENDCHAR
STARTCHAR V
ENCODING 86
SWIDTH 500 0
DWIDTH 7 0
BBX 7 9 0 -1
BITMAP
EE
44
44
44
28
28
28
10
10
ENDCHAR
STARTCHAR W
ENCODING 87
SWIDTH 500 0
DWIDTH 7 0
BBX 7 9 0 -1
BITMAP
D6
54
54
54
54
54
28
28
28
ENDCHAR
STARTCHAR X
ENCODING 88
SWIDTH 500 0
DWIDTH 7 0
BBX 7 9 0 -1
BITMAP
EE
44
28
28
10
28
28
44
CE
ENDCHAR
STARTCHAR Y
ENCODING 89
SWIDTH 500 0
DWIDTH 7 0
BBX 7 9 0 -1
BITMAP
EE
44
44
28
28
10
10
10
38
ENDCHAR
STARTCHAR Z
ENCODING 90
SWIDTH 500 0
DWIDTH 7 0
BBX 7 9 0 -1
BITMAP
FC
84
88
10
20
20
42
84
FC
ENDCHAR
STARTCHAR bracketleft
ENCODING 91
SWIDTH 500 0
DWIDTH 7 0
BBX 3 11 2 -3
BITMAP
E0
80
80
80
80
80
80
80
80
80
E0
ENDCHAR
STARTCHAR backslash
ENCODING 92
SWIDTH 500 0
DWIDTH 7 0
BBX 4 10 1 -1
BITMAP
80
80
40
40
40
20
20
20
10
10
ENDCHAR
STARTCHAR bracketright
ENCODING 93
SWIDTH 500 0
DWIDTH 7 0
BBX 3 11 2 -3
BITMAP
E0
20
20
20
20
20
20
20
20
20
E0
ENDCHAR
STARTCHAR asciicircum
ENCODING 94
SWIDTH 500 0
DWIDTH 7 0
BBX 5 6 1 3
BITMAP
20
20
50
50
88
88
ENDCHAR
STARTCHAR underscore
ENCODING 95
SWIDTH 500 0
DWIDTH 7 0
BBX 7 1 0 -3
BITMAP
FE
ENDCHAR
STARTCHAR grave
ENCODING 96
SWIDTH 500 0
DWIDTH 7 0
BBX 3 3 1 6
BITMAP
80
40
20
ENDCHAR
STARTCHAR a
ENCODING 97
SWIDTH 500 0
DWIDTH 7 0
BBX 5 7 1 -1
BITMAP
60
90
10
70
90
90
78
ENDCHAR
STARTCHAR b
ENCODING 98
SWIDTH 500 0
DWIDTH 7 0
BBX 6 10 0 -1
BITMAP
C0
40
40
40
58
64
44
44
44
38
ENDCHAR
STARTCHAR c
ENCODING 99
SWIDTH 500 0
DWIDTH 7 0
BBX 5 7 1 -1
BITMAP
70
88
80
80
80
88
70
ENDCHAR
STARTCHAR d
ENCODING 100
SWIDTH 500 0
DWIDTH 7 0
BBX 5 10 1 -1
BITMAP
30
10
10
10
70
90
90
90
90
78
ENDCHAR
STARTCHAR e
ENCODING 101
SWIDTH 500 0
DWIDTH 7 0
BBX 5 7 1 -1
BITMAP
70
88
88
F8
80
88
70
ENDCHAR
STARTCHAR f
ENCODING 102
SWIDTH 500 0
DWIDTH 7 0
BBX 4 10 2 -1
BITMAP
30
50
40
40
E0
40
40
40
40
E0
ENDCHAR
STARTCHAR g
ENCODING 103
SWIDTH 500 0
DWIDTH 7 0
BBX 6 8 0 -3
BITMAP
3C
48
48
30
40
78
84
78
ENDCHAR
STARTCHAR h
ENCODING 104
SWIDTH 500 0
DWIDTH 7 0
BBX 7 9 0 -1
BITMAP
C0
40
40
58
64
44
44
44
EE
ENDCHAR
STARTCHAR i
ENCODING 105
SWIDTH 500 0
DWIDTH 7 0
BBX 3 10 2 -1
BITMAP
C0
00
00
C0
40
40
40
40
40
E0
ENDCHAR
STARTCHAR j
ENCODING 106
SWIDTH 500 0
DWIDTH 7 0
BBX 3 12 1 -3
BITMAP
60
00
00
60
20
20
20
20
20
20
20
C0
ENDCHAR
STARTCHAR k
ENCODING 107
SWIDTH 500 0
DWIDTH 7 0
BBX 6 10 0 -1
BITMAP
C0
40
40
5C
48
50
60
50
48
EC
ENDCHAR
STARTCHAR l
ENCODING 108
SWIDTH 500 0
DWIDTH 7 0
BBX 3 10 2 -1
BITMAP
C0
40
40
40
40
40
40
40
40
E0
ENDCHAR
STARTCHAR m
ENCODING 109
SWIDTH 500 0
DWIDTH 7 0
BBX 7 6 0 -1
BITMAP
AC
54
54
54
54
D6
ENDCHAR
STARTCHAR n
ENCODING 110
SWIDTH 500 0
DWIDTH 7 0
BBX 7 6 0 -1
BITMAP
D8
64
44
44
44
EE
ENDCHAR
STARTCHAR o
ENCODING 111
SWIDTH 500 0
DWIDTH 7 0
BBX 5 6 1 -1
BITMAP
70
88
88
88
88
70
ENDCHAR
STARTCHAR p
ENCODING 112
SWIDTH 500 0
DWIDTH 7 0
BBX 6 8 0 -3
BITMAP
F8
44
44
44
44
78
40
E0
ENDCHAR
STARTCHAR q
ENCODING 113
SWIDTH 500 0
DWIDTH 7 0
BBX 6 8 0 -3
BITMAP
7C
88
88
88
88
78
08
1C
ENDCHAR
STARTCHAR r
ENCODING 114
SWIDTH 500 0
DWIDTH 7 0
BBX 4 6 2 -1
BITMAP
B0
40
40
40
40
E0
ENDCHAR
STARTCHAR s
ENCODING 115
SWIDTH 500 0
DWIDTH 7 0
BBX 4 7 1 -1
BITMAP
60
90
80
60
10
90
E0
ENDCHAR
STARTCHAR t
ENCODING 116
SWIDTH 500 0
DWIDTH 7 0
BBX 3 8 2 -1
BITMAP
40
40
E0
40
40
40
40
20
ENDCHAR
STARTCHAR u
ENCODING 117
SWIDTH 500 0
DWIDTH 7 0
BBX 6 6 0 -1
BITMAP
D8
48
48
48
48
3C
ENDCHAR
STARTCHAR v
ENCODING 118
SWIDTH 500 0
DWIDTH 7 0
BBX 7 6 0 -1
BITMAP
EE
44
28
28
10
10
ENDCHAR
STARTCHAR w
ENCODING 119
SWIDTH 500 0
DWIDTH 7 0
BBX 7 6 0 -1
BITMAP
D6
54
54
54
28
28
ENDCHAR
STARTCHAR x
ENCODING 120
SWIDTH 500 0
DWIDTH 7 0
BBX 5 6 1 -1
BITMAP
D8
50
20
20
50
D8
ENDCHAR
STARTCHAR y
ENCODING 121
SWIDTH 500 0
DWIDTH 7 0
BBX 7 8 0 -3
BITMAP
EE
44
28
28
10
10
20
C0
ENDCHAR
STARTCHAR z
ENCODING 122
SWIDTH 500 0
DWIDTH 7 0
BBX 5 6 1 -1
BITMAP
F8
90
20
40
88
F8
ENDCHAR
STARTCHAR braceleft
ENCODING 123
SWIDTH 500 0
DWIDTH 7 0
BBX 3 11 1 -3
BITMAP
20
40
40
40
40
80
40
40
40
40
20
ENDCHAR
STARTCHAR bar
ENCODING 124
SWIDTH 500 0
DWIDTH 7 0
BBX 1 10 3 -1
BITMAP
80
80
80
80
80
80
80
80
80
80
ENDCHAR
STARTCHAR braceright
ENCODING 125
SWIDTH 500 0
DWIDTH 7 0
BBX 3 11 2 -3
BITMAP
80
40
40
40
40
20
40
40
40
40
80
ENDCHAR
STARTCHAR asciitilde
ENCODING 126
SWIDTH 500 0
DWIDTH 7 0
BBX 6 2 0 2
BITMAP
64
98
ENDCHAR
STARTCHAR uni007F
ENCODING 127
SWIDTH 500 0
DWIDTH 7 0
BBX 0 0 0 0
BITMAP
ENDCHAR
STARTCHAR uni0080
ENCODING 128
SWIDTH 500 0
DWIDTH 7 0
BBX 0 0 0 0
BITMAP
ENDCHAR
STARTCHAR uni0081
ENCODING 129
SWIDTH 500 0
DWIDTH 7 0
BBX 0 0 0 0
BITMAP
ENDCHAR
STARTCHAR uni0082
ENCODING 130
SWIDTH 500 0
DWIDTH 7 0
BBX 2 3 2 -3
BITMAP
C0
40
80
ENDCHAR
STARTCHAR uni0083
ENCODING 131
SWIDTH 500 0
DWIDTH 7 0
BBX 7 12 0 -3
BITMAP
0C
16
10
10
7C
10
10
10
10
10
20
C0
ENDCHAR
STARTCHAR uni0084
ENCODING 132
SWIDTH 500 0
DWIDTH 7 0
BBX 5 4 1 -3
BITMAP
D8
D8
48
90
ENDCHAR
STARTCHAR uni0085
ENCODING 133
SWIDTH 500 0
DWIDTH 7 0
BBX 6 1 0 -1
BITMAP
94
ENDCHAR
STARTCHAR uni0086
ENCODING 134
SWIDTH 500 0
DWIDTH 7 0
BBX 5 12 1 -3
BITMAP
20
70
20
F8
20
20
20
70
20
20
20
20
ENDCHAR
STARTCHAR uni0087
ENCODING 135
SWIDTH 500 0
DWIDTH 7 0
BBX 5 12 1 -3
BITMAP
20
70
20
F8
20
70
20
20
F8
20
20
20
ENDCHAR
STARTCHAR uni0088
ENCODING 136
SWIDTH 500 0
DWIDTH 7 0
BBX 4 2 1 8
BITMAP
60
90
ENDCHAR
STARTCHAR uni0089
ENCODING 137
SWIDTH 500 0
DWIDTH 7 0
BBX 7 9 0 -1
BITMAP
08
68
B0
B0
60
36
2A
6A
54
ENDCHAR
STARTCHAR uni008A
ENCODING 138
SWIDTH 500 0
DWIDTH 7 0
BBX 5 11 1 -1
BITMAP
50
20
68
98
88
40
20
10
88
C8
B0
ENDCHAR
STARTCHAR uni008B
ENCODING 139
SWIDTH 500 0
DWIDTH 7 0
BBX 3 5 2 0
BITMAP
20
40
80
40
20
ENDCHAR
STARTCHAR uni008C
ENCODING 140
SWIDTH 500 0
DWIDTH 7 0
BBX 7 7 0 -1
BITMAP
7E
92
94
9C
94
92
7E
ENDCHAR
STARTCHAR uni008D
ENCODING 141
SWIDTH 500 0
DWIDTH 7 0
BBX 0 0 0 0
BITMAP
ENDCHAR
STARTCHAR uni008E
ENCODING 142
SWIDTH 500 0
DWIDTH 7 0
BBX 0 0 0 0
BITMAP
ENDCHAR
STARTCHAR uni008F
ENCODING 143
SWIDTH 500 0
DWIDTH 7 0
BBX 0 0 0 0
BITMAP
ENDCHAR
STARTCHAR uni0090
ENCODING 144
SWIDTH 500 0
DWIDTH 7 0
BBX 0 0 0 0
BITMAP
ENDCHAR
STARTCHAR uni0091
ENCODING 145
SWIDTH 500 0
DWIDTH 7 0
BBX 2 4 4 5
BITMAP
40
80
C0
C0
ENDCHAR
STARTCHAR uni0092
ENCODING 146
SWIDTH 500 0
DWIDTH 7 0
BBX 2 4 1 5
BITMAP
C0
C0
40
80
ENDCHAR
STARTCHAR uni0093
ENCODING 147
SWIDTH 500 0
DWIDTH 7 0
BBX 5 4 1 5
BITMAP
48
90
D8
D8
ENDCHAR
STARTCHAR uni0094
ENCODING 148
SWIDTH 500 0
DWIDTH 7 0
BBX 5 4 1 5
BITMAP
D8
D8
48
90
ENDCHAR
STARTCHAR uni0095
ENCODING 149
SWIDTH 500 0
DWIDTH 7 0
BBX 0 0 0 0
BITMAP
ENDCHAR
STARTCHAR uni0096
ENCODING 150
SWIDTH 500 0
DWIDTH 7 0
BBX 3 1 0 2
BITMAP
E0
ENDCHAR
STARTCHAR uni0097
ENCODING 151
SWIDTH 500 0
DWIDTH 7 0
BBX 6 1 0 3
BITMAP
FC
ENDCHAR
STARTCHAR uni0098
ENCODING 152
SWIDTH 500 0
DWIDTH 7 0
BBX 5 2 1 8
BITMAP
68
B0
ENDCHAR
STARTCHAR uni0099
ENCODING 153
SWIDTH 500 0
DWIDTH 7 0
BBX 6 5 0 3
BITMAP
F4
54
5C
5C
54
ENDCHAR
STARTCHAR uni009A
ENCODING 154
SWIDTH 500 0
DWIDTH 7 0
BBX 4 9 1 -1
BITMAP
90
60
60
90
80
40
20
90
E0
ENDCHAR
STARTCHAR uni009B
ENCODING 155
SWIDTH 500 0
DWIDTH 7 0
BBX 3 5 2 0
BITMAP
80
40
20
40
80
ENDCHAR
STARTCHAR uni009C
ENCODING 156
SWIDTH 500 0
DWIDTH 7 0
BBX 7 6 0 -1
BITMAP
6C
92
9E
90
92
6C
ENDCHAR
STARTCHAR uni009D
ENCODING 157
SWIDTH 500 0
DWIDTH 7 0
BBX 0 0 0 0
BITMAP
ENDCHAR
STARTCHAR uni009E
ENCODING 158
SWIDTH 500 0
DWIDTH 7 0
BBX 0 0 0 0
BITMAP
ENDCHAR
STARTCHAR uni009F
ENCODING 159
SWIDTH 500 0
DWIDTH 7 0
BBX 7 11 0 -1
BITMAP
28
00
EE
44
28
28
10
10
10
10
38
ENDCHAR
STARTCHAR uni00A0
ENCODING 160
SWIDTH 500 0
DWIDTH 7 0
BBX 0 0 0 0
BITMAP
ENDCHAR
STARTCHAR exclamdown
ENCODING 161
SWIDTH 500 0
DWIDTH 7 0
BBX 1 9 3 -3
BITMAP
80
00
00
80
80
80
80
80
80
ENDCHAR
STARTCHAR cent
ENCODING 162
SWIDTH 500 0
DWIDTH 7 0
BBX 5 9 1 -2
BITMAP
20
70
A8
A0
A0
A0
A8
70
20
ENDCHAR
STARTCHAR sterling
ENCODING 163
SWIDTH 500 0
DWIDTH 7 0
BBX 7 10 0 -1
BITMAP
18
24
24
20
20
F8
20
20
62
DC
ENDCHAR
STARTCHAR currency
ENCODING 164
SWIDTH 500 0
DWIDTH 7 0
BBX 6 7 0 0
BITMAP
84
78
48
48
48
78
84
ENDCHAR
STARTCHAR yen
ENCODING 165
SWIDTH 500 0
DWIDTH 7 0
BBX 7 9 0 -1
BITMAP
EE
44
28
28
7C
10
7C
10
38
ENDCHAR
STARTCHAR brokenbar
ENCODING 166
SWIDTH 500 0
DWIDTH 7 0
BBX 1 10 1 -1
BITMAP
80
80
80
80
00
00
80
80
80
80
ENDCHAR
STARTCHAR section
ENCODING 167
SWIDTH 500 0
DWIDTH 7 0
BBX 4 12 1 -3
BITMAP
60
90
80
40
60
90
90
90
60
10
90
60
ENDCHAR
STARTCHAR dieresis
ENCODING 168
SWIDTH 500 0
DWIDTH 7 0
BBX 4 1 0 8
BITMAP
90
ENDCHAR
STARTCHAR copyright
ENCODING 169
SWIDTH 500 0
DWIDTH 7 0
BBX 6 7 0 2
BITMAP
78
94
AC
A4
AC
94
78
ENDCHAR
STARTCHAR ordfeminine
ENCODING 170
SWIDTH 500 0
DWIDTH 7 0
BBX 5 7 1 2
BITMAP
60
90
70
90
78
00
F0
ENDCHAR
STARTCHAR guillemotleft
ENCODING 171
SWIDTH 500 0
DWIDTH 7 0
BBX 5 6 1 -1
BITMAP
28
50
A0
A0
50
28
ENDCHAR
STARTCHAR logicalnot
ENCODING 172
SWIDTH 500 0
DWIDTH 7 0
BBX 5 4 1 0
BITMAP
F8
08
08
08
ENDCHAR
STARTCHAR uni00AD
ENCODING 173
SWIDTH 500 0
DWIDTH 7 0
BBX 3 1 2 2
BITMAP
E0
ENDCHAR
STARTCHAR registered
ENCODING 174
SWIDTH 500 0
DWIDTH 7 0
BBX 6 7 0 2
BITMAP
78
84
B4
AC
B4
AC
78
ENDCHAR
STARTCHAR macron
ENCODING 175
SWIDTH 500 0
DWIDTH 7 0
BBX 4 1 1 8
BITMAP
F0
ENDCHAR
STARTCHAR degree
ENCODING 176
SWIDTH 500 0
DWIDTH 7 0
BBX 3 3 2 7
BITMAP
E0
A0
E0
ENDCHAR
STARTCHAR plusminus
ENCODING 177
SWIDTH 500 0
DWIDTH 7 0
BBX 5 10 0 -1
BITMAP
20
20
20
F8
20
20
20
00
00
F8
ENDCHAR
STARTCHAR uni00B2
ENCODING 178
SWIDTH 500 0
DWIDTH 7 0
BBX 4 6 1 3
BITMAP
60
90
10
20
50
F0
ENDCHAR
STARTCHAR uni00B3
ENCODING 179
SWIDTH 500 0
DWIDTH 7 0
BBX 4 6 1 3
BITMAP
60
90
20
10
90
60
ENDCHAR
STARTCHAR acute
ENCODING 180
SWIDTH 500 0
DWIDTH 7 0
BBX 3 2 2 8
BITMAP
60
80
ENDCHAR
STARTCHAR mu
ENCODING 181
SWIDTH 500 0
DWIDTH 7 0
BBX 5 8 1 -3
BITMAP
90
90
90
90
90
E8
80
80
ENDCHAR
STARTCHAR paragraph
ENCODING 182
SWIDTH 500 0
DWIDTH 7 0
BBX 6 9 0 -1
BITMAP
7C
E8
E8
E8
E8
68
28
28
6C
ENDCHAR
STARTCHAR periodcentered
ENCODING 183
SWIDTH 500 0
DWIDTH 7 0
BBX 1 2 3 2
BITMAP
80
80
ENDCHAR
STARTCHAR cedilla
ENCODING 184
SWIDTH 500 0
DWIDTH 7 0
BBX 3 3 2 -3
BITMAP
40
20
C0
ENDCHAR
STARTCHAR uni00B9
ENCODING 185
SWIDTH 500 0
DWIDTH 7 0
BBX 3 6 2 3
BITMAP
40
C0
40
40
40
E0
ENDCHAR
STARTCHAR ordmasculine
ENCODING 186
SWIDTH 500 0
DWIDTH 7 0
BBX 4 6 0 3
BITMAP
60
90
90
60
00
F0
ENDCHAR
STARTCHAR guillemotright
ENCODING 187
SWIDTH 500 0
DWIDTH 7 0
BBX 6 6 0 -1
BITMAP
90
48
24
24
48
90
ENDCHAR
STARTCHAR onequarter
ENCODING 188
SWIDTH 500 0
DWIDTH 7 0
BBX 7 10 0 -1
BITMAP
44
C4
48
48
54
DC
2C
34
5E
44
ENDCHAR
STARTCHAR onehalf
ENCODING 189
SWIDTH 500 0
DWIDTH 7 0
BBX 7 10 0 -1
BITMAP
44
C4
48
48
54
DA
22
24
4A
4E
ENDCHAR
STARTCHAR threequarters
ENCODING 190
SWIDTH 500 0
DWIDTH 7 0
BBX 7 10 0 -1
BITMAP
C4
24
48
28
34
DC
2C
34
5E
44
ENDCHAR
STARTCHAR questiondown
ENCODING 191
SWIDTH 500 0
DWIDTH 7 0
BBX 5 10 1 -3
BITMAP
20
20
00
20
20
40
80
88
88
70
ENDCHAR
STARTCHAR Agrave
ENCODING 192
SWIDTH 500 0
DWIDTH 7 0
BBX 7 11 0 -1
BITMAP
30
08
10
10
28
28
28
7C
44
44
EE
ENDCHAR
STARTCHAR Aacute
ENCODING 193
SWIDTH 500 0
DWIDTH 7 0
BBX 7 11 0 -1
BITMAP
18
20
10
10
28
28
28
7C
44
44
EE
ENDCHAR
STARTCHAR Acircumflex
ENCODING 194
SWIDTH 500 0
DWIDTH 7 0
BBX 7 11 0 -1
BITMAP
30
48
10
10
28
28
28
7C
44
44
EE
ENDCHAR
STARTCHAR Atilde
ENCODING 195
SWIDTH 500 0
DWIDTH 7 0
BBX 7 11 0 -1
BITMAP
34
58
10
10
28
28
28
7C
44
44
EE
ENDCHAR
STARTCHAR Adieresis
ENCODING 196
SWIDTH 500 0
DWIDTH 7 0
BBX 7 11 0 -1
BITMAP
28
00
10
10
28
28
28
7C
44
44
EE
ENDCHAR
STARTCHAR Aring
ENCODING 197
SWIDTH 500 0
DWIDTH 7 0
BBX 7 11 0 -1
BITMAP
38
28
38
10
10
28
28
7C
44
44
EE
ENDCHAR
STARTCHAR AE
ENCODING 198
SWIDTH 500 0
DWIDTH 7 0
BBX 7 8 0 -1
BITMAP
3E
32
54
5C
74
50
52
DE
ENDCHAR
STARTCHAR Ccedilla
ENCODING 199
SWIDTH 500 0
DWIDTH 7 0
BBX 6 12 0 -3
BITMAP
34
4C
84
80
80
80
80
44
38
10
08
30
ENDCHAR
STARTCHAR Egrave
ENCODING 200
SWIDTH 500 0
DWIDTH 7 0
BBX 6 11 0 -1
BITMAP
30
08
FC
44
40
48
78
48
40
44
FC
ENDCHAR
STARTCHAR Eacute
ENCODING 201
SWIDTH 500 0
DWIDTH 7 0
BBX 6 11 0 -1
BITMAP
18
20
FC
44
40
48
78
48
40
44
FC
ENDCHAR
STARTCHAR Ecircumflex
ENCODING 202
SWIDTH 500 0
DWIDTH 7 0
BBX 6 11 0 -1
BITMAP
30
48
FC
44
40
48
78
48
40
44
FC
ENDCHAR
STARTCHAR Edieresis
ENCODING 203
SWIDTH 500 0
DWIDTH 7 0
BBX 6 11 0 -1
BITMAP
48
00
FC
44
40
48
78
48
40
44
FC
ENDCHAR
STARTCHAR Igrave
ENCODING 204
SWIDTH 500 0
DWIDTH 7 0
BBX 3 11 2 -1
BITMAP
C0
20
E0
40
40
40
40
40
40
40
E0
ENDCHAR
STARTCHAR Iacute
ENCODING 205
SWIDTH 500 0
DWIDTH 7 0
BBX 3 11 2 -1
BITMAP
60
80
E0
40
40
40
40
40
40
40
E0
ENDCHAR
STARTCHAR Icircumflex
ENCODING 206
SWIDTH 500 0
DWIDTH 7 0
BBX 4 11 1 -1
BITMAP
60
90
70
20
20
20
20
20
20
20
70
ENDCHAR
STARTCHAR Idieresis
ENCODING 207
SWIDTH 500 0
DWIDTH 7 0
BBX 3 11 2 -1
BITMAP
A0
00
E0
40
40
40
40
40
40
40
E0
ENDCHAR
STARTCHAR Eth
ENCODING 208
SWIDTH 500 0
DWIDTH 7 0
BBX 6 9 0 -1
BITMAP
F0
48
44
44
E4
44
44
48
F0
ENDCHAR
STARTCHAR Ntilde
ENCODING 209
SWIDTH 500 0
DWIDTH 7 0
BBX 7 11 0 -1
BITMAP
34
58
CE
64
64
54
54
54
4C
4C
E4
ENDCHAR
STARTCHAR Ograve
ENCODING 210
SWIDTH 500 0
DWIDTH 7 0
BBX 6 11 0 -1
BITMAP
30
08
30
48
84
84
84
84
84
48
30
ENDCHAR
STARTCHAR Oacute
ENCODING 211
SWIDTH 500 0
DWIDTH 7 0
BBX 6 11 0 -1
BITMAP
30
40
30
48
84
84
84
84
84
48
30
ENDCHAR
STARTCHAR Ocircumflex
ENCODING 212
SWIDTH 500 0
DWIDTH 7 0
BBX 6 11 0 -1
BITMAP
30
48
30
48
84
84
84
84
84
48
30
ENDCHAR
STARTCHAR Otilde
ENCODING 213
SWIDTH 500 0
DWIDTH 7 0
BBX 6 11 0 -1
BITMAP
74
98
30
48
84
84
84
84
84
48
30
ENDCHAR
STARTCHAR Odieresis
ENCODING 214
SWIDTH 500 0
DWIDTH 7 0
BBX 6 11 0 -1
BITMAP
48
00
30
48
84
84
84
84
84
48
30
ENDCHAR
STARTCHAR multiply
ENCODING 215
SWIDTH 500 0
DWIDTH 7 0
BBX 7 7 0 -1
BITMAP
82
44
28
10
28
44
82
ENDCHAR
STARTCHAR Oslash
ENCODING 216
SWIDTH 500 0
DWIDTH 7 0
BBX 6 10 0 -1
BITMAP
04
38
4C
94
94
A4
A4
C4
48
B0
ENDCHAR
STARTCHAR Ugrave
ENCODING 217
SWIDTH 500 0
DWIDTH 7 0
BBX 7 11 0 -1
BITMAP
60
10
EE
44
44
44
44
44
44
44
38
ENDCHAR
STARTCHAR Uacute
ENCODING 218
SWIDTH 500 0
DWIDTH 7 0
BBX 7 11 0 -1
BITMAP
18
20
EE
44
44
44
44
44
44
44
38
ENDCHAR
STARTCHAR Ucircumflex
ENCODING 219
SWIDTH 500 0
DWIDTH 7 0
BBX 7 11 0 -1
BITMAP
30
48
EE
44
44
44
44
44
44
44
38
ENDCHAR
STARTCHAR Udieresis
ENCODING 220
SWIDTH 500 0
DWIDTH 7 0
BBX 7 11 0 -1
BITMAP
48
00
EE
44
44
44
44
44
44
44
38
ENDCHAR
STARTCHAR Yacute
ENCODING 221
SWIDTH 500 0
DWIDTH 7 0
BBX 7 11 0 -1
BITMAP
18
20
EE
44
28
28
10
10
10
10
38
ENDCHAR
STARTCHAR Thorn
ENCODING 222
SWIDTH 500 0
DWIDTH 7 0
BBX 6 9 0 -1
BITMAP
E0
40
78
44
44
44
78
40
E0
ENDCHAR
STARTCHAR germandbls
ENCODING 223
SWIDTH 500 0
DWIDTH 7 0
BBX 6 10 0 -1
BITMAP
30
48
48
48
50
48
44
44
44
D8
ENDCHAR
STARTCHAR agrave
ENCODING 224
SWIDTH 500 0
DWIDTH 7 0
BBX 5 9 1 -1
BITMAP
C0
30
00
60
90
70
90
90
78
ENDCHAR
STARTCHAR aacute
ENCODING 225
SWIDTH 500 0
DWIDTH 7 0
BBX 5 9 1 -1
BITMAP
30
C0
00
60
90
70
90
90
78
ENDCHAR
STARTCHAR acircumflex
ENCODING 226
SWIDTH 500 0
DWIDTH 7 0
BBX 5 9 1 -1
BITMAP
60
90
00
60
90
70
90
90
78
ENDCHAR
STARTCHAR atilde
ENCODING 227
SWIDTH 500 0
DWIDTH 7 0
BBX 5 9 1 -1
BITMAP
68
B0
00
60
90
70
90
90
78
ENDCHAR
STARTCHAR adieresis
ENCODING 228
SWIDTH 500 0
DWIDTH 7 0
BBX 5 8 1 -1
BITMAP
50
00
60
90
70
90
90
78
ENDCHAR
STARTCHAR aring
ENCODING 229
SWIDTH 500 0
DWIDTH 7 0
BBX 5 10 1 -1
BITMAP
60
90
60
00
60
90
70
90
90
78
ENDCHAR
STARTCHAR ae
ENCODING 230
SWIDTH 500 0
DWIDTH 7 0
BBX 7 6 0 -1
BITMAP
6C
92
7E
90
92
6C
ENDCHAR
STARTCHAR ccedilla
ENCODING 231
SWIDTH 500 0
DWIDTH 7 0
BBX 5 10 1 -3
BITMAP
30
48
80
80
80
88
70
20
10
60
ENDCHAR
STARTCHAR egrave
ENCODING 232
SWIDTH 500 0
DWIDTH 7 0
BBX 5 9 1 -1
BITMAP
60
10
00
70
88
F8
80
88
70
ENDCHAR
STARTCHAR eacute
ENCODING 233
SWIDTH 500 0
DWIDTH 7 0
BBX 5 9 1 -1
BITMAP
30
40
00
70
88
F8
80
88
70
ENDCHAR
STARTCHAR ecircumflex
ENCODING 234
SWIDTH 500 0
DWIDTH 7 0
BBX 5 9 1 -1
BITMAP
20
50
00
70
88
F8
80
88
70
ENDCHAR
STARTCHAR edieresis
ENCODING 235
SWIDTH 500 0
DWIDTH 7 0
BBX 5 8 1 -1
BITMAP
50
00
70
88
F8
80
88
70
ENDCHAR
STARTCHAR igrave
ENCODING 236
SWIDTH 500 0
DWIDTH 7 0
BBX 3 9 2 -1
BITMAP
C0
20
00
C0
40
40
40
40
E0
ENDCHAR
STARTCHAR iacute
ENCODING 237
SWIDTH 500 0
DWIDTH 7 0
BBX 3 9 2 -1
BITMAP
60
80
00
C0
40
40
40
40
E0
ENDCHAR
STARTCHAR icircumflex
ENCODING 238
SWIDTH 500 0
DWIDTH 7 0
BBX 3 9 2 -1
BITMAP
40
A0
00
C0
40
40
40
40
E0
ENDCHAR
STARTCHAR idieresis
ENCODING 239
SWIDTH 500 0
DWIDTH 7 0
BBX 3 8 2 -1
BITMAP
A0
00
C0
40
40
40
40
E0
ENDCHAR
STARTCHAR eth
ENCODING 240
SWIDTH 500 0
DWIDTH 7 0
BBX 5 10 1 -1
BITMAP
D0
60
90
08
78
88
88
88
88
70
ENDCHAR
STARTCHAR ntilde
ENCODING 241
SWIDTH 500 0
DWIDTH 7 0
BBX 6 9 0 -1
BITMAP
68
B0
00
F0
48
48
48
48
DC
ENDCHAR
STARTCHAR ograve
ENCODING 242
SWIDTH 500 0
DWIDTH 7 0
BBX 5 9 1 -1
BITMAP
C0
20
00
70
88
88
88
88
70
ENDCHAR
STARTCHAR oacute
ENCODING 243
SWIDTH 500 0
DWIDTH 7 0
BBX 5 9 1 -1
BITMAP
30
40
00
70
88
88
88
88
70
ENDCHAR
STARTCHAR ocircumflex
ENCODING 244
SWIDTH 500 0
DWIDTH 7 0
BBX 5 9 1 -1
BITMAP
20
50
00
70
88
88
88
88
70
ENDCHAR
STARTCHAR otilde
ENCODING 245
SWIDTH 500 0
DWIDTH 7 0
BBX 5 9 1 -1
BITMAP
68
B0
00
70
88
88
88
88
70
ENDCHAR
STARTCHAR odieresis
ENCODING 246
SWIDTH 500 0
DWIDTH 7 0
BBX 5 8 1 -1
BITMAP
90
00
70
88
88
88
88
70
ENDCHAR
STARTCHAR divide
ENCODING 247
SWIDTH 500 0
DWIDTH 7 0
BBX 7 7 0 -1
BITMAP
10
00
00
FE
00
00
10
ENDCHAR
STARTCHAR oslash
ENCODING 248
SWIDTH 500 0
DWIDTH 7 0
BBX 5 6 1 -1
BITMAP
68
90
A8
A8
48
B0
ENDCHAR
STARTCHAR ugrave
ENCODING 249
SWIDTH 500 0
DWIDTH 7 0
BBX 6 9 0 -1
BITMAP
60
10
00
D8
48
48
48
48
34
ENDCHAR
STARTCHAR uacute
ENCODING 250
SWIDTH 500 0
DWIDTH 7 0
BBX 6 9 0 -1
BITMAP
18
20
00
D8
48
48
48
48
34
ENDCHAR
STARTCHAR ucircumflex
ENCODING 251
SWIDTH 500 0
DWIDTH 7 0
BBX 6 9 0 -1
BITMAP
10
28
00
D8
48
48
48
48
34
ENDCHAR
STARTCHAR udieresis
ENCODING 252
SWIDTH 500 0
DWIDTH 7 0
BBX 6 8 0 -1
BITMAP
48
00
D8
48
48
48
48
34
ENDCHAR
STARTCHAR yacute
ENCODING 253
SWIDTH 500 0
DWIDTH 7 0
BBX 6 11 1 -3
BITMAP
10
20
00
DC
48
48
50
30
20
20
C0
ENDCHAR
STARTCHAR thorn
ENCODING 254
SWIDTH 500 0
DWIDTH 7 0
BBX 5 11 1 -3
BITMAP
C0
40
40
70
48
48
48
48
70
40
E0
ENDCHAR
STARTCHAR ydieresis
ENCODING 255
SWIDTH 1000 0
DWIDTH 7 0
BBX 6 10 1 -3
BITMAP
50
00
DC
48
48
50
30
20
20
C0
ENDCHAR
STARTCHAR uni008C.dup1
ENCODING 338
SWIDTH 500 0
DWIDTH 7 0
BBX 7 7 0 -1
BITMAP
7E
92
94
9C
94
92
7E
ENDCHAR
STARTCHAR uni009C.dup2
ENCODING 339
SWIDTH 500 0
DWIDTH 7 0
BBX 7 6 0 -1
BITMAP
6C
92
9E
90
92
6C
ENDCHAR
STARTCHAR uni008A.dup3
ENCODING 352
SWIDTH 500 0
DWIDTH 7 0
BBX 5 11 1 -1
BITMAP
50
20
68
98
88
40
20
10
88
C8
B0
ENDCHAR
STARTCHAR uni009A.dup4
ENCODING 353
SWIDTH 500 0
DWIDTH 7 0
BBX 4 9 1 -1
BITMAP
90
60
60
90
80
40
20
90
E0
ENDCHAR
STARTCHAR uni009F.dup5
ENCODING 376
SWIDTH 500 0
DWIDTH 7 0
BBX 7 11 0 -1
BITMAP
28
00
EE
44
28
28
10
10
10
10
38
ENDCHAR
STARTCHAR uni0083.dup6
ENCODING 402
SWIDTH 500 0
DWIDTH 7 0
BBX 7 12 0 -3
BITMAP
0C
16
10
10
7C
10
10
10
10
10
20
C0
ENDCHAR
STARTCHAR uni0088.dup7
ENCODING 710
SWIDTH 500 0
DWIDTH 7 0
BBX 4 2 1 8
BITMAP
60
90
ENDCHAR
STARTCHAR caron
ENCODING 711
SWIDTH 1000 0
DWIDTH 13 0
BBX 6 4 3 2
BITMAP
84
48
30
10
ENDCHAR
STARTCHAR uni02C9
ENCODING 713
SWIDTH 1000 0
DWIDTH 13 0
BBX 1 1 12 -3
BITMAP
00
ENDCHAR
STARTCHAR uni02CA
ENCODING 714
SWIDTH 1000 0
DWIDTH 13 0
BBX 4 4 4 2
BITMAP
10
20
40
80
ENDCHAR
STARTCHAR uni02CB
ENCODING 715
SWIDTH 1000 0
DWIDTH 13 0
BBX 4 4 4 2
BITMAP
80
40
20
10
ENDCHAR
STARTCHAR uni02CD
ENCODING 717
SWIDTH 1000 0
DWIDTH 13 0
BBX 13 2 0 -3
BITMAP
FFF8
FFF8
ENDCHAR
STARTCHAR dotaccent
ENCODING 729
SWIDTH 1000 0
DWIDTH 13 0
BBX 2 2 6 3
BITMAP
C0
C0
ENDCHAR
STARTCHAR degree.dup8
ENCODING 730
SWIDTH 500 0
DWIDTH 7 0
BBX 3 3 2 7
BITMAP
E0
A0
E0
ENDCHAR
STARTCHAR uni0098.dup9
ENCODING 732
SWIDTH 500 0
DWIDTH 7 0
BBX 5 2 1 8
BITMAP
68
B0
ENDCHAR
STARTCHAR uni0305
ENCODING 773
SWIDTH 1000 0
DWIDTH 13 0
BBX 13 1 0 9
BITMAP
FFF8
ENDCHAR
STARTCHAR Alpha
ENCODING 913
SWIDTH 1000 0
DWIDTH 13 0
BBX 10 10 1 -1
BITMAP
0800
0C00
0C00
1600
1200
2200
3F00
4100
4180
E3C0
ENDCHAR
STARTCHAR Beta
ENCODING 914
SWIDTH 1000 0
DWIDTH 13 0
BBX 8 10 2 -1
BITMAP
FE
41
41
41
7E
41
41
41
41
FE
ENDCHAR
STARTCHAR Gamma
ENCODING 915
SWIDTH 1000 0
DWIDTH 13 0
BBX 8 10 2 -1
BITMAP
FF
41
41
40
40
40
40
40
40
E0
ENDCHAR
STARTCHAR uni0394
ENCODING 916
SWIDTH 1000 0
DWIDTH 13 0
BBX 9 10 2 -1
BITMAP
0800
0800
1800
1400
2400
2600
4200
4300
8100
FF80
ENDCHAR
STARTCHAR Epsilon
ENCODING 917
SWIDTH 1000 0
DWIDTH 13 0
BBX 8 10 2 -1
BITMAP
FF
41
40
42
7E
42
40
41
41
FF
ENDCHAR
STARTCHAR Zeta
ENCODING 918
SWIDTH 1000 0
DWIDTH 13 0
BBX 8 10 2 -1
BITMAP
FF
81
82
04
08
10
20
41
81
FF
ENDCHAR
STARTCHAR Eta
ENCODING 919
SWIDTH 1000 0
DWIDTH 13 0
BBX 9 10 2 -1
BITMAP
E380
4100
4100
4100
7F00
4100
4100
4100
4100
E380
ENDCHAR
STARTCHAR Theta
ENCODING 920
SWIDTH 1000 0
DWIDTH 13 0
BBX 9 10 2 -1
BITMAP
3E00
4100
8080
8080
FF80
8080
8080
8080
4100
3E00
ENDCHAR
STARTCHAR Iota
ENCODING 921
SWIDTH 1000 0
DWIDTH 13 0
BBX 5 10 4 -1
BITMAP
F8
20
20
20
20
20
20
20
20
F8
ENDCHAR
STARTCHAR Kappa
ENCODING 922
SWIDTH 1000 0
DWIDTH 13 0
BBX 10 10 1 -1
BITMAP
F780
2200
2400
2800
3800
2800
2400
2200
2100
F3C0
ENDCHAR
STARTCHAR Lambda
ENCODING 923
SWIDTH 1000 0
DWIDTH 13 0
BBX 10 10 1 -1
BITMAP
0800
0C00
0C00
1600
1200
2200
2300
4100
4180
E3C0
ENDCHAR
STARTCHAR Mu
ENCODING 924
SWIDTH 1000 0
DWIDTH 13 0
BBX 12 10 0 -1
BITMAP
E070
6060
70A0
50A0
5920
4920
4A20
4620
4420
E070
ENDCHAR
STARTCHAR Nu
ENCODING 925
SWIDTH 1000 0
DWIDTH 13 0
BBX 10 10 1 -1
BITMAP
C1C0
6080
6080
5080
4880
4480
4280
4180
4180
E080
ENDCHAR
STARTCHAR Xi
ENCODING 926
SWIDTH 1000 0
DWIDTH 13 0
BBX 10 10 1 -1
BITMAP
7F80
4080
0000
2100
3F00
2100
0000
8040
8040
FFC0
ENDCHAR
STARTCHAR Omicron
ENCODING 927
SWIDTH 1000 0
DWIDTH 13 0
BBX 8 10 2 -1
BITMAP
3C
42
81
81
81
81
81
81
42
3C
ENDCHAR
STARTCHAR Pi
ENCODING 928
SWIDTH 1000 0
DWIDTH 13 0
BBX 11 10 1 -1
BITMAP
FFE0
2080
2080
2080
2080
2080
2080
2080
2080
FBE0
ENDCHAR
STARTCHAR Rho
ENCODING 929
SWIDTH 1000 0
DWIDTH 13 0
BBX 8 10 2 -1
BITMAP
FC
42
41
41
42
7C
40
40
40
E0
ENDCHAR
STARTCHAR Sigma
ENCODING 931
SWIDTH 1000 0
DWIDTH 13 0
BBX 8 10 2 -1
BITMAP
FF
41
20
10
08
08
10
21
41
FF
ENDCHAR
STARTCHAR Tau
ENCODING 932
SWIDTH 1000 0
DWIDTH 13 0
BBX 9 10 2 -1
BITMAP
FF80
8880
0800
0800
0800
0800
0800
0800
0800
3E00
ENDCHAR
STARTCHAR Upsilon
ENCODING 933
SWIDTH 1000 0
DWIDTH 13 0
BBX 11 10 1 -1
BITMAP
71C0
8A20
0400
0400
0400
0400
0400
0400
0400
1F00
ENDCHAR
STARTCHAR Phi
ENCODING 934
SWIDTH 1000 0
DWIDTH 13 0
BBX 9 10 2 -1
BITMAP
3E00
0800
7F00
8880
8880
8880
8880
7F00
0800
3E00
ENDCHAR
STARTCHAR Chi
ENCODING 935
SWIDTH 1000 0
DWIDTH 13 0
BBX 9 10 1 -1
BITMAP
E380
4100
2200
1400
0800
0800
1400
2200
4100
E380
ENDCHAR
STARTCHAR Psi
ENCODING 936
SWIDTH 1000 0
DWIDTH 13 0
BBX 11 11 1 -1
BITMAP
8020
4E40
4440
4440
64C0
2480
1F00
0400
0400
0400
0E00
ENDCHAR
STARTCHAR uni03A9
ENCODING 937
SWIDTH 1000 0
DWIDTH 13 0
BBX 10 10 1 -1
BITMAP
1E00
2100
4080
4080
4080
4080
2100
1200
9240
F3C0
ENDCHAR
STARTCHAR alpha
ENCODING 945
SWIDTH 1000 0
DWIDTH 13 0
BBX 9 8 2 0
BITMAP
3300
4A00
8600
8600
8400
8480
4B00
3000
ENDCHAR
STARTCHAR beta
ENCODING 946
SWIDTH 1000 0
DWIDTH 13 0
BBX 5 12 4 -2
BITMAP
60
90
90
90
E0
98
88
88
90
E0
80
80
ENDCHAR
STARTCHAR gamma
ENCODING 947
SWIDTH 1000 0
DWIDTH 13 0
BBX 7 10 2 -1
BITMAP
C2
A4
24
28
18
10
10
10
10
10
ENDCHAR
STARTCHAR delta
ENCODING 948
SWIDTH 1000 0
DWIDTH 13 0
BBX 6 10 3 -1
BITMAP
78
44
40
30
48
84
84
84
44
38
ENDCHAR
STARTCHAR epsilon
ENCODING 949
SWIDTH 1000 0
DWIDTH 13 0
BBX 7 8 3 0
BITMAP
78
C4
80
70
C0
82
44
38
ENDCHAR
STARTCHAR zeta
ENCODING 950
SWIDTH 1000 0
DWIDTH 13 0
BBX 6 12 3 -2
BITMAP
4C
78
20
40
40
80
80
40
38
04
04
38
ENDCHAR
STARTCHAR eta
ENCODING 951
SWIDTH 1000 0
DWIDTH 13 0
BBX 7 10 2 -2
BITMAP
1C
E2
22
22
22
22
22
02
02
02
ENDCHAR
STARTCHAR theta
ENCODING 952
SWIDTH 1000 0
DWIDTH 13 0
BBX 6 10 3 -1
BITMAP
30
48
84
84
FC
84
84
84
48
30
ENDCHAR
STARTCHAR iota
ENCODING 953
SWIDTH 1000 0
DWIDTH 13 0
BBX 4 8 5 0
BITMAP
20
20
40
40
80
80
90
60
ENDCHAR
STARTCHAR kappa
ENCODING 954
SWIDTH 1000 0
DWIDTH 13 0
BBX 7 8 3 0
BITMAP
44
CE
50
60
60
50
48
4C
ENDCHAR
STARTCHAR lambda
ENCODING 955
SWIDTH 1000 0
DWIDTH 13 0
BBX 8 10 2 -1
BITMAP
60
90
10
08
18
18
24
25
45
42
ENDCHAR
STARTCHAR uni03BC
ENCODING 956
SWIDTH 1000 0
DWIDTH 13 0
BBX 7 10 3 -2
BITMAP
88
88
88
88
88
9A
EC
80
80
80
ENDCHAR
STARTCHAR nu
ENCODING 957
SWIDTH 1000 0
DWIDTH 13 0
BBX 6 7 3 1
BITMAP
C4
44
44
28
28
30
10
ENDCHAR
STARTCHAR xi
ENCODING 958
SWIDTH 1000 0
DWIDTH 13 0
BBX 5 12 4 -2
BITMAP
80
70
C0
80
70
80
80
80
70
08
08
70
ENDCHAR
STARTCHAR omicron
ENCODING 959
SWIDTH 1000 0
DWIDTH 13 0
BBX 6 8 3 0
BITMAP
30
48
84
84
84
84
48
30
ENDCHAR
STARTCHAR pi
ENCODING 960
SWIDTH 1000 0
DWIDTH 13 0
BBX 8 7 2 0
BITMAP
7E
A4
24
24
24
25
46
ENDCHAR
STARTCHAR rho
ENCODING 961
SWIDTH 1000 0
DWIDTH 13 0
BBX 6 10 3 -1
BITMAP
30
48
84
84
84
C8
B0
80
80
80
ENDCHAR
STARTCHAR sigma
ENCODING 963
SWIDTH 1000 0
DWIDTH 13 0
BBX 7 7 3 0
BITMAP
7E
88
84
84
84
48
30
ENDCHAR
STARTCHAR tau
ENCODING 964
SWIDTH 1000 0
DWIDTH 13 0
BBX 7 8 2 0
BITMAP
1E
70
90
10
10
12
1A
0C
ENDCHAR
STARTCHAR upsilon
ENCODING 965
SWIDTH 1000 0
DWIDTH 13 0
BBX 8 8 2 0
BITMAP
44
A2
21
21
21
21
12
0C
ENDCHAR
STARTCHAR phi
ENCODING 966
SWIDTH 1000 0
DWIDTH 13 0
BBX 6 10 3 -1
BITMAP
10
10
78
94
94
94
94
78
10
10
ENDCHAR
STARTCHAR chi
ENCODING 967
SWIDTH 1000 0
DWIDTH 13 0
BBX 8 10 2 -1
BITMAP
62
96
14
08
08
18
28
29
4A
44
ENDCHAR
STARTCHAR psi
ENCODING 968
SWIDTH 1000 0
DWIDTH 13 0
BBX 6 10 3 -1
BITMAP
10
10
54
94
94
94
94
78
10
10
ENDCHAR
STARTCHAR omega
ENCODING 969
SWIDTH 1000 0
DWIDTH 13 0
BBX 8 8 2 0
BITMAP
24
42
89
89
89
89
95
62
ENDCHAR
STARTCHAR uni00AD.dup10
ENCODING 8208
SWIDTH 500 0
DWIDTH 7 0
BBX 3 1 2 2
BITMAP
E0
ENDCHAR
STARTCHAR endash
ENCODING 8211
SWIDTH 1000 0
DWIDTH 13 0
BBX 4 1 4 4
BITMAP
F0
ENDCHAR
STARTCHAR emdash
ENCODING 8212
SWIDTH 1000 0
DWIDTH 13 0
BBX 12 1 0 4
BITMAP
FFF0
ENDCHAR
STARTCHAR uni2015
ENCODING 8213
SWIDTH 1000 0
DWIDTH 13 0
BBX 13 1 0 4
BITMAP
FFF8
ENDCHAR
STARTCHAR uni2016
ENCODING 8214
SWIDTH 1000 0
DWIDTH 13 0
BBX 4 13 4 -3
BITMAP
90
90
90
90
90
90
90
90
90
90
90
90
90
ENDCHAR
STARTCHAR quoteleft
ENCODING 8216
SWIDTH 1000 0
DWIDTH 13 0
BBX 2 3 8 7
BITMAP
40
80
C0
ENDCHAR
STARTCHAR quoteright
ENCODING 8217
SWIDTH 1000 0
DWIDTH 13 0
BBX 2 3 2 7
BITMAP
C0
40
80
ENDCHAR
STARTCHAR uni0082.dup11
ENCODING 8218
SWIDTH 500 0
DWIDTH 7 0
BBX 2 3 2 -3
BITMAP
C0
40
80
ENDCHAR
STARTCHAR quotedblleft
ENCODING 8220
SWIDTH 1000 0
DWIDTH 13 0
BBX 5 3 7 7
BITMAP
48
90
D8
ENDCHAR
STARTCHAR quotedblright
ENCODING 8221
SWIDTH 1000 0
DWIDTH 13 0
BBX 5 3 1 7
BITMAP
D8
48
90
ENDCHAR
STARTCHAR uni0084.dup12
ENCODING 8222
SWIDTH 500 0
DWIDTH 7 0
BBX 5 4 1 -3
BITMAP
D8
D8
48
90
ENDCHAR
STARTCHAR uni0086.dup13
ENCODING 8224
SWIDTH 500 0
DWIDTH 7 0
BBX 5 12 1 -3
BITMAP
20
70
20
F8
20
20
20
70
20
20
20
20
ENDCHAR
STARTCHAR uni0087.dup14
ENCODING 8225
SWIDTH 500 0
DWIDTH 7 0
BBX 5 12 1 -3
BITMAP
20
70
20
F8
20
70
20
20
F8
20
20
20
ENDCHAR
STARTCHAR bullet
ENCODING 8226
SWIDTH 1000 0
DWIDTH 13 0
BBX 2 2 5 3
BITMAP
C0
C0
ENDCHAR
STARTCHAR dotaccent.dup15
ENCODING 8228
SWIDTH 1000 0
DWIDTH 13 0
BBX 2 2 6 3
BITMAP
C0
C0
ENDCHAR
STARTCHAR twodotenleader
ENCODING 8229
SWIDTH 1000 0
DWIDTH 13 0
BBX 8 2 2 3
BITMAP
C3
C3
ENDCHAR
STARTCHAR ellipsis
ENCODING 8230
SWIDTH 1000 0
DWIDTH 13 0
BBX 10 2 1 3
BITMAP
CCC0
CCC0
ENDCHAR
STARTCHAR bullet.dup16
ENCODING 8231
SWIDTH 1000 0
DWIDTH 13 0
BBX 2 2 5 3
BITMAP
C0
C0
ENDCHAR
STARTCHAR uni0089.dup17
ENCODING 8240
SWIDTH 500 0
DWIDTH 7 0
BBX 7 9 0 -1
BITMAP
08
68
B0
B0
60
36
2A
6A
54
ENDCHAR
STARTCHAR minute
ENCODING 8242
SWIDTH 1000 0
DWIDTH 13 0
BBX 2 4 1 6
BITMAP
40
40
80
80
ENDCHAR
STARTCHAR second
ENCODING 8243
SWIDTH 1000 0
DWIDTH 13 0
BBX 6 5 3 2
BITMAP
24
24
28
48
90
ENDCHAR
STARTCHAR uni2035
ENCODING 8245
SWIDTH 1000 0
DWIDTH 13 0
BBX 2 4 9 6
BITMAP
80
80
40
40
ENDCHAR
STARTCHAR uni008B.dup18
ENCODING 8249
SWIDTH 500 0
DWIDTH 7 0
BBX 3 5 2 0
BITMAP
20
40
80
40
20
ENDCHAR
STARTCHAR uni009B.dup19
ENCODING 8250
SWIDTH 500 0
DWIDTH 7 0
BBX 3 5 2 0
BITMAP
80
40
20
40
80
ENDCHAR
STARTCHAR uni203B
ENCODING 8251
SWIDTH 1000 0
DWIDTH 13 0
BBX 12 12 0 -2
BITMAP
8610
4620
2040
1080
0900
C630
C630
0900
1080
2040
4620
8610
ENDCHAR
STARTCHAR uni203E
ENCODING 8254
SWIDTH 1000 0
DWIDTH 13 0
BBX 13 2 0 8
BITMAP
FFF8
FFF8
ENDCHAR
STARTCHAR uni20A0
ENCODING 8352
SWIDTH 1000 0
DWIDTH 13 0
BBX 7 9 3 -1
BITMAP
70
88
80
BE
92
7C
10
12
3E
ENDCHAR
STARTCHAR colonmonetary
ENCODING 8353
SWIDTH 1000 0
DWIDTH 13 0
BBX 8 11 3 -2
BITMAP
0A
3E
4B
95
94
94
A8
A8
69
5E
50
ENDCHAR
STARTCHAR uni20A2
ENCODING 8354
SWIDTH 1000 0
DWIDTH 13 0
BBX 8 9 3 -1
BITMAP
3D
43
81
94
98
90
91
52
3C
ENDCHAR
STARTCHAR franc
ENCODING 8355
SWIDTH 1000 0
DWIDTH 13 0
BBX 8 9 3 -1
BITMAP
FE
42
41
54
58
50
50
50
F8
ENDCHAR
STARTCHAR lira
ENCODING 8356
SWIDTH 1000 0
DWIDTH 13 0
BBX 7 9 3 -1
BITMAP
38
44
40
F8
20
F8
60
A2
DC
ENDCHAR
STARTCHAR uni20A5
ENCODING 8357
SWIDTH 1000 0
DWIDTH 13 0
BBX 9 9 2 -2
BITMAP
0200
0200
B700
4D00
4900
4900
5900
E980
2000
ENDCHAR
STARTCHAR uni20A6
ENCODING 8358
SWIDTH 1000 0
DWIDTH 13 0
BBX 9 9 2 -1
BITMAP
C380
6100
5100
FF80
4900
FF80
4500
4300
E100
ENDCHAR
STARTCHAR peseta
ENCODING 8359
SWIDTH 1000 0
DWIDTH 13 0
BBX 9 9 2 -1
BITMAP
7C00
2200
FF80
2200
3C00
2000
2000
2000
7000
ENDCHAR
STARTCHAR uni20A8
ENCODING 8360
SWIDTH 1000 0
DWIDTH 13 0
BBX 11 9 1 -1
BITMAP
F800
4400
FE00
44C0
7920
5080
4840
4520
E6C0
ENDCHAR
STARTCHAR uni20A9
ENCODING 8361
SWIDTH 1000 0
DWIDTH 13 0
BBX 11 9 1 -1
BITMAP
EEE0
4440
FFE0
4440
FFE0
2A80
2A80
1100
1100
ENDCHAR
STARTCHAR uni20AA
ENCODING 8362
SWIDTH 1000 0
DWIDTH 13 0
BBX 9 9 2 -1
BITMAP
3980
4500
5500
5500
5500
5500
5500
5100
CE00
ENDCHAR
STARTCHAR dong
ENCODING 8363
SWIDTH 1000 0
DWIDTH 13 0
BBX 6 10 4 -2
BITMAP
18
08
7C
08
78
88
88
74
00
78
ENDCHAR
STARTCHAR Euro
ENCODING 8364
SWIDTH 1000 0
DWIDTH 13 0
BBX 8 9 2 -1
BITMAP
1D
23
41
FE
40
FE
41
22
1C
ENDCHAR
STARTCHAR uni2103
ENCODING 8451
SWIDTH 1000 0
DWIDTH 13 0
BBX 11 12 0 -2
BITMAP
E000
A7A0
E860
1020
2020
2000
2000
2000
2000
1000
0820
07C0
ENDCHAR
STARTCHAR uni2105
ENCODING 8453
SWIDTH 1000 0
DWIDTH 13 0
BBX 12 12 0 -2
BITMAP
6900
9900
8900
8200
8260
8A90
7490
0490
0490
0890
0860
0800
ENDCHAR
STARTCHAR uni2109
ENCODING 8457
SWIDTH 1000 0
DWIDTH 13 0
BBX 12 12 0 -2
BITMAP
E000
AFF0
E410
0400
0400
0420
07E0
0420
0400
0400
0400
0E00
ENDCHAR
STARTCHAR uni0099.dup20
ENCODING 8482
SWIDTH 500 0
DWIDTH 7 0
BBX 6 5 0 3
BITMAP
F4
54
5C
5C
54
ENDCHAR
STARTCHAR uni2160
ENCODING 8544
SWIDTH 1000 0
DWIDTH 13 0
BBX 3 10 5 -1
BITMAP
E0
40
40
40
40
40
40
40
40
E0
ENDCHAR
STARTCHAR uni2161
ENCODING 8545
SWIDTH 1000 0
DWIDTH 13 0
BBX 6 10 3 -1
BITMAP
FC
48
48
48
48
48
48
48
48
FC
ENDCHAR
STARTCHAR uni2162
ENCODING 8546
SWIDTH 1000 0
DWIDTH 13 0
BBX 9 10 2 -1
BITMAP
FF80
4900
4900
4900
4900
4900
4900
4900
4900
FF80
ENDCHAR
STARTCHAR uni2163
ENCODING 8547
SWIDTH 1000 0
DWIDTH 13 0
BBX 9 10 2 -1
BITMAP
FB80
5100
5100
5100
4A00
4A00
4A00
4400
4400
E400
ENDCHAR
STARTCHAR uni2164
ENCODING 8548
SWIDTH 1000 0
DWIDTH 13 0
BBX 9 10 2 -1
BITMAP
E380
4100
4100
2200
2200
2200
1400
1400
0800
0800
ENDCHAR
STARTCHAR uni2165
ENCODING 8549
SWIDTH 1000 0
DWIDTH 13 0
BBX 9 10 2 -1
BITMAP
EF80
4500
4500
2900
2900
2900
2900
1100
1100
1380
ENDCHAR
STARTCHAR uni2166
ENCODING 8550
SWIDTH 1000 0
DWIDTH 13 0
BBX 10 10 1 -1
BITMAP
EFC0
4A80
4A80
2A80
2A80
2A80
2A80
1280
1280
17C0
ENDCHAR
STARTCHAR uni2167
ENCODING 8551
SWIDTH 1000 0
DWIDTH 13 0
BBX 12 10 0 -1
BITMAP
DFF0
4AA0
4AA0
2AA0
2AA0
2AA0
2AA0
12A0
12A0
17F0
ENDCHAR
STARTCHAR uni2168
ENCODING 8552
SWIDTH 1000 0
DWIDTH 13 0
BBX 10 10 1 -1
BITMAP
FDC0
4880
4500
4500
4200
4200
4500
4500
4880
FDC0
ENDCHAR
STARTCHAR uni2169
ENCODING 8553
SWIDTH 1000 0
DWIDTH 13 0
BBX 8 10 2 -1
BITMAP
E7
42
24
14
08
18
14
24
42
E7
ENDCHAR
STARTCHAR arrowleft
ENCODING 8592
SWIDTH 1000 0
DWIDTH 13 0
BBX 12 5 0 2
BITMAP
2000
4000
FFF0
4000
2000
ENDCHAR
STARTCHAR arrowup
ENCODING 8593
SWIDTH 1000 0
DWIDTH 13 0
BBX 5 12 4 -2
BITMAP
20
70
A8
20
20
20
20
20
20
20
20
20
ENDCHAR
STARTCHAR arrowright
ENCODING 8594
SWIDTH 1000 0
DWIDTH 13 0
BBX 12 5 0 2
BITMAP
0040
0020
FFF0
0020
0040
ENDCHAR
STARTCHAR arrowdown
ENCODING 8595
SWIDTH 1000 0
DWIDTH 13 0
BBX 5 12 4 -2
BITMAP
20
20
20
20
20
20
20
20
20
A8
70
20
ENDCHAR
STARTCHAR uni2196
ENCODING 8598
SWIDTH 1000 0
DWIDTH 13 0
BBX 10 10 1 -1
BITMAP
F000
C000
A000
9000
0800
0400
0200
0100
0080
0040
ENDCHAR
STARTCHAR uni2197
ENCODING 8599
SWIDTH 1000 0
DWIDTH 13 0
BBX 10 10 1 -1
BITMAP
03C0
00C0
0140
0240
0400
0800
1000
2000
4000
8000
ENDCHAR
STARTCHAR uni2198
ENCODING 8600
SWIDTH 1000 0
DWIDTH 13 0
BBX 10 10 1 -1
BITMAP
8000
4000
2000
1000
0800
0400
0240
0140
00C0
03C0
ENDCHAR
STARTCHAR uni2199
ENCODING 8601
SWIDTH 1000 0
DWIDTH 13 0
BBX 10 10 1 -1
BITMAP
0040
0080
0100
0200
0400
0800
9000
A000
C000
F000
ENDCHAR
STARTCHAR uni2215
ENCODING 8725
SWIDTH 1000 0
DWIDTH 13 0
BBX 4 12 4 -2
BITMAP
10
10
10
20
20
20
40
40
40
80
80
80
ENDCHAR
STARTCHAR uni2216
ENCODING 8726
SWIDTH 1000 0
DWIDTH 13 0
BBX 4 12 4 -2
BITMAP
80
80
80
40
40
40
20
20
20
10
10
10
ENDCHAR
STARTCHAR uni2218
ENCODING 8728
SWIDTH 1000 0
DWIDTH 13 0
BBX 4 4 1 6
BITMAP
60
90
90
60
ENDCHAR
STARTCHAR uni2219
ENCODING 8729
SWIDTH 1000 0
DWIDTH 13 0
BBX 2 2 10 8
BITMAP
C0
C0
ENDCHAR
STARTCHAR radical
ENCODING 8730
SWIDTH 1000 0
DWIDTH 13 0
BBX 11 12 1 -2
BITMAP
1FE0
1000
1000
1000
2000
2000
2000
2000
A000
A000
4000
4000
ENDCHAR
STARTCHAR infinity
ENCODING 8734
SWIDTH 1000 0
DWIDTH 13 0
BBX 12 4 0 2
BITMAP
70E0
8910
8610
79E0
ENDCHAR
STARTCHAR orthogonal
ENCODING 8735
SWIDTH 1000 0
DWIDTH 13 0
BBX 10 10 1 -1
BITMAP
8000
8000
8000
8000
8000
8000
8000
8000
8000
FFC0
ENDCHAR
STARTCHAR angle
ENCODING 8736
SWIDTH 1000 0
DWIDTH 13 0
BBX 11 10 0 -1
BITMAP
0040
0080
0100
0200
0400
0800
1000
2000
4000
FFE0
ENDCHAR
STARTCHAR uni2223
ENCODING 8739
SWIDTH 1000 0
DWIDTH 13 0
BBX 1 13 6 -3
BITMAP
80
80
80
80
80
80
80
80
80
80
80
80
80
ENDCHAR
STARTCHAR uni2016.dup21
ENCODING 8741
SWIDTH 1000 0
DWIDTH 13 0
BBX 4 13 4 -3
BITMAP
90
90
90
90
90
90
90
90
90
90
90
90
90
ENDCHAR
STARTCHAR intersection
ENCODING 8745
SWIDTH 1000 0
DWIDTH 13 0
BBX 6 10 3 -1
BITMAP
78
84
84
84
84
84
84
84
84
84
ENDCHAR
STARTCHAR union
ENCODING 8746
SWIDTH 1000 0
DWIDTH 13 0
BBX 6 10 3 -1
BITMAP
84
84
84
84
84
84
84
84
84
78
ENDCHAR
STARTCHAR integral
ENCODING 8747
SWIDTH 1000 0
DWIDTH 13 0
BBX 7 12 3 -2
BITMAP
0C
12
10
10
10
10
10
10
10
10
90
60
ENDCHAR
STARTCHAR uni222E
ENCODING 8750
SWIDTH 1000 0
DWIDTH 13 0
BBX 9 12 2 -2
BITMAP
0600
0900
0800
3E00
4900
8880
8880
4900
3E00
0800
4800
3000
ENDCHAR
STARTCHAR therefore
ENCODING 8756
SWIDTH 1000 0
DWIDTH 13 0
BBX 10 8 1 0
BITMAP
0C00
0C00
0000
0000
0000
0000
C0C0
C0C0
ENDCHAR
STARTCHAR uni2235
ENCODING 8757
SWIDTH 1000 0
DWIDTH 13 0
BBX 10 8 1 0
BITMAP
C0C0
C0C0
0000
0000
0000
0000
0C00
0C00
ENDCHAR
STARTCHAR uni2252
ENCODING 8786
SWIDTH 1000 0
DWIDTH 13 0
BBX 12 10 0 -1
BITMAP
C000
C000
0000
FFF0
0000
0000
FFF0
0000
0030
0030
ENDCHAR
STARTCHAR notequal
ENCODING 8800
SWIDTH 1000 0
DWIDTH 13 0
BBX 8 10 2 -1
BITMAP
04
04
08
FF
08
10
FF
10
20
20
ENDCHAR
STARTCHAR equivalence
ENCODING 8801
SWIDTH 1000 0
DWIDTH 13 0
BBX 12 7 0 1
BITMAP
FFF0
0000
0000
FFF0
0000
0000
FFF0
ENDCHAR
STARTCHAR equivalence.dup22
ENCODING 8803
SWIDTH 1000 0
DWIDTH 13 0
BBX 12 7 0 1
BITMAP
FFF0
0000
0000
FFF0
0000
0000
FFF0
ENDCHAR
STARTCHAR uni2266
ENCODING 8806
SWIDTH 1000 0
DWIDTH 13 0
BBX 8 11 2 -1
BITMAP
03
0C
30
C0
38
07
00
FF
00
00
FF
ENDCHAR
STARTCHAR uni2267
ENCODING 8807
SWIDTH 1000 0
DWIDTH 13 0
BBX 8 11 2 -1
BITMAP
C0
30
0C
03
1C
E0
00
FF
00
00
FF
ENDCHAR
STARTCHAR circleplus
ENCODING 8853
SWIDTH 1000 0
DWIDTH 13 0
BBX 10 10 1 -1
BITMAP
3F00
4480
8440
8440
FFC0
8440
8440
8440
4480
3F00
ENDCHAR
STARTCHAR uni2299
ENCODING 8857
SWIDTH 1000 0
DWIDTH 13 0
BBX 10 10 1 -1
BITMAP
3F00
4080
8040
8040
8C40
8C40
8040
8040
4080
3F00
ENDCHAR
STARTCHAR perpendicular
ENCODING 8869
SWIDTH 1000 0
DWIDTH 13 0
BBX 11 9 1 0
BITMAP
0400
0400
0400
0400
0400
0400
0400
0400
FFE0
ENDCHAR
STARTCHAR uni22BF
ENCODING 8895
SWIDTH 1000 0
DWIDTH 13 0
BBX 10 10 1 -1
BITMAP
0040
00C0
0140
0240
0440
0840
1040
2040
4040
FFC0
ENDCHAR
STARTCHAR uni2307
ENCODING 8967
SWIDTH 1000 0
DWIDTH 13 0
BBX 2 12 0 -2
BITMAP
40
80
80
40
40
80
80
40
40
80
80
40
ENDCHAR
STARTCHAR uni2015.dup23
ENCODING 9472
SWIDTH 1000 0
DWIDTH 13 0
BBX 13 1 0 4
BITMAP
FFF8
ENDCHAR
STARTCHAR uni2501
ENCODING 9473
SWIDTH 1000 0
DWIDTH 13 0
BBX 13 8 0 0
BITMAP
FFF8
0000
0000
0000
0000
0000
0000
FFF8
ENDCHAR
STARTCHAR SF110000
ENCODING 9474
SWIDTH 1000 0
DWIDTH 13 0
BBX 1 13 6 -3
BITMAP
80
80
80
80
80
80
80
80
80
80
80
80
80
ENDCHAR
STARTCHAR SF010000
ENCODING 9484
SWIDTH 1000 0
DWIDTH 13 0
BBX 7 8 6 -3
BITMAP
FE
80
80
80
80
80
80
80
ENDCHAR
STARTCHAR SF030000
ENCODING 9488
SWIDTH 1000 0
DWIDTH 13 0
BBX 7 8 0 -3
BITMAP
FE
02
02
02
02
02
02
02
ENDCHAR
STARTCHAR SF020000
ENCODING 9492
SWIDTH 1000 0
DWIDTH 13 0
BBX 7 6 6 4
BITMAP
80
80
80
80
80
FE
ENDCHAR
STARTCHAR SF040000
ENCODING 9496
SWIDTH 1000 0
DWIDTH 13 0
BBX 7 6 0 4
BITMAP
02
02
02
02
02
FE
ENDCHAR
STARTCHAR SF080000
ENCODING 9500
SWIDTH 1000 0
DWIDTH 13 0
BBX 7 13 6 -3
BITMAP
80
80
80
80
80
FE
80
80
80
80
80
80
80
ENDCHAR
STARTCHAR uni251D
ENCODING 9501
SWIDTH 1000 0
DWIDTH 13 0
BBX 7 13 6 -3
BITMAP
80
80
FE
80
80
80
80
80
80
FE
80
80
80
ENDCHAR
STARTCHAR SF090000
ENCODING 9508
SWIDTH 1000 0
DWIDTH 13 0
BBX 7 13 0 -3
BITMAP
02
02
02
02
02
FE
02
02
02
02
02
02
02
ENDCHAR
STARTCHAR uni2525
ENCODING 9509
SWIDTH 1000 0
DWIDTH 13 0
BBX 7 13 0 -3
BITMAP
02
02
FE
02
02
02
02
02
02
FE
02
02
02
ENDCHAR
STARTCHAR SF060000
ENCODING 9516
SWIDTH 1000 0
DWIDTH 13 0
BBX 13 8 0 -3
BITMAP
FFF8
0200
0200
0200
0200
0200
0200
0200
ENDCHAR
STARTCHAR SF070000
ENCODING 9524
SWIDTH 1000 0
DWIDTH 13 0
BBX 13 6 0 4
BITMAP
0200
0200
0200
0200
0200
FFF8
ENDCHAR
STARTCHAR SF050000
ENCODING 9532
SWIDTH 1000 0
DWIDTH 13 0
BBX 13 13 0 -3
BITMAP
0200
0200
0200
0200
0200
FFF8
0200
0200
0200
0200
0200
0200
0200
ENDCHAR
STARTCHAR uni253F
ENCODING 9535
SWIDTH 1000 0
DWIDTH 13 0
BBX 13 13 0 -3
BITMAP
0200
0200
FFF8
0200
0200
0200
0200
0200
0200
FFF8
0200
0200
0200
ENDCHAR
STARTCHAR SF430000
ENCODING 9552
SWIDTH 1000 0
DWIDTH 13 0
BBX 13 3 0 2
BITMAP
FFF8
0000
FFF8
ENDCHAR
STARTCHAR SF240000
ENCODING 9553
SWIDTH 1000 0
DWIDTH 13 0
BBX 3 13 5 -3
BITMAP
A0
A0
A0
A0
A0
A0
A0
A0
A0
A0
A0
A0
A0
ENDCHAR
STARTCHAR SF510000
ENCODING 9554
SWIDTH 1000 0
DWIDTH 13 0
BBX 7 8 6 -3
BITMAP
FE
80
FE
80
80
80
80
80
ENDCHAR
STARTCHAR SF520000
ENCODING 9555
SWIDTH 1000 0
DWIDTH 13 0
BBX 8 7 5 -3
BITMAP
FF
A0
A0
A0
A0
A0
A0
ENDCHAR
STARTCHAR SF390000
ENCODING 9556
SWIDTH 1000 0
DWIDTH 13 0
BBX 8 8 5 -3
BITMAP
FF
80
BF
A0
A0
A0
A0
A0
ENDCHAR
STARTCHAR SF220000
ENCODING 9557
SWIDTH 1000 0
DWIDTH 13 0
BBX 7 8 0 -3
BITMAP
FE
02
FE
02
02
02
02
02
ENDCHAR
STARTCHAR SF210000
ENCODING 9558
SWIDTH 1000 0
DWIDTH 13 0
BBX 8 7 0 -3
BITMAP
FF
05
05
05
05
05
05
ENDCHAR
STARTCHAR SF250000
ENCODING 9559
SWIDTH 1000 0
DWIDTH 13 0
BBX 8 8 0 -3
BITMAP
FF
01
FD
05
05
05
05
05
ENDCHAR
STARTCHAR SF500000
ENCODING 9560
SWIDTH 1000 0
DWIDTH 13 0
BBX 7 8 6 2
BITMAP
80
80
80
80
80
FE
80
FE
ENDCHAR
STARTCHAR SF490000
ENCODING 9561
SWIDTH 1000 0
DWIDTH 13 0
BBX 8 7 5 3
BITMAP
A0
A0
A0
A0
A0
A0
FF
ENDCHAR
STARTCHAR SF380000
ENCODING 9562
SWIDTH 1000 0
DWIDTH 13 0
BBX 8 8 5 2
BITMAP
A0
A0
A0
A0
A0
BF
80
FF
ENDCHAR
STARTCHAR SF280000
ENCODING 9563
SWIDTH 1000 0
DWIDTH 13 0
BBX 7 8 0 2
BITMAP
02
02
02
02
02
FE
02
FE
ENDCHAR
STARTCHAR SF270000
ENCODING 9564
SWIDTH 1000 0
DWIDTH 13 0
BBX 8 7 0 3
BITMAP
05
05
05
05
05
05
FF
ENDCHAR
STARTCHAR SF260000
ENCODING 9565
SWIDTH 1000 0
DWIDTH 13 0
BBX 8 8 0 2
BITMAP
05
05
05
05
05
FD
01
FF
ENDCHAR
STARTCHAR SF360000
ENCODING 9566
SWIDTH 1000 0
DWIDTH 13 0
BBX 7 13 6 -3
BITMAP
80
80
80
80
80
FE
80
FE
80
80
80
80
80
ENDCHAR
STARTCHAR SF370000
ENCODING 9567
SWIDTH 1000 0
DWIDTH 13 0
BBX 8 13 5 -3
BITMAP
A0
A0
A0
A0
A0
A0
BF
A0
A0
A0
A0
A0
A0
ENDCHAR
STARTCHAR SF420000
ENCODING 9568
SWIDTH 1000 0
DWIDTH 13 0
BBX 8 13 5 -3
BITMAP
A0
A0
A0
A0
A0
BF
80
BF
A0
A0
A0
A0
A0
ENDCHAR
STARTCHAR SF190000
ENCODING 9569
SWIDTH 1000 0
DWIDTH 13 0
BBX 7 13 0 -3
BITMAP
02
02
02
02
02
FE
02
FE
02
02
02
02
02
ENDCHAR
STARTCHAR SF200000
ENCODING 9570
SWIDTH 1000 0
DWIDTH 13 0
BBX 8 13 0 -3
BITMAP
05
05
05
05
05
05
FD
05
05
05
05
05
05
ENDCHAR
STARTCHAR SF230000
ENCODING 9571
SWIDTH 1000 0
DWIDTH 13 0
BBX 8 13 0 -3
BITMAP
05
05
05
05
05
FD
01
FD
05
05
05
05
05
ENDCHAR
STARTCHAR SF470000
ENCODING 9572
SWIDTH 1000 0
DWIDTH 13 0
BBX 13 8 0 -3
BITMAP
FFF8
0000
FFF8
0200
0200
0200
0200
0200
ENDCHAR
STARTCHAR SF480000
ENCODING 9573
SWIDTH 1000 0
DWIDTH 13 0
BBX 13 7 0 -3
BITMAP
FFF8
0500
0500
0500
0500
0500
0500
ENDCHAR
STARTCHAR SF410000
ENCODING 9574
SWIDTH 1000 0
DWIDTH 13 0
BBX 13 8 0 -3
BITMAP
FFF8
0000
FDF8
0500
0500
0500
0500
0500
ENDCHAR
STARTCHAR SF450000
ENCODING 9575
SWIDTH 1000 0
DWIDTH 13 0
BBX 13 8 0 2
BITMAP
0200
0200
0200
0200
0200
FFF8
0000
FFF8
ENDCHAR
STARTCHAR SF460000
ENCODING 9576
SWIDTH 1000 0
DWIDTH 13 0
BBX 13 7 0 3
BITMAP
0500
0500
0500
0500
0500
0500
FFF8
ENDCHAR
STARTCHAR SF400000
ENCODING 9577
SWIDTH 1000 0
DWIDTH 13 0
BBX 13 8 0 2
BITMAP
0500
0500
0500
0500
0500
FDF8
0000
FFF8
ENDCHAR
STARTCHAR SF540000
ENCODING 9578
SWIDTH 1000 0
DWIDTH 13 0
BBX 13 13 0 -3
BITMAP
0200
0200
0200
0200
0200
FFF8
0000
FFF8
0200
0200
0200
0200
0200
ENDCHAR
STARTCHAR SF530000
ENCODING 9579
SWIDTH 1000 0
DWIDTH 13 0
BBX 13 13 0 -3
BITMAP
0500
0500
0500
0500
0500
0500
FDF8
0500
0500
0500
0500
0500
0500
ENDCHAR
STARTCHAR SF440000
ENCODING 9580
SWIDTH 1000 0
DWIDTH 13 0
BBX 13 13 0 -3
BITMAP
0500
0500
0500
0500
0500
FDF8
0000
FDF8
0500
0500
0500
0500
0500
ENDCHAR
STARTCHAR uni256D
ENCODING 9581
SWIDTH 1000 0
DWIDTH 13 0
BBX 7 7 6 -3
BITMAP
1E
20
40
80
80
80
80
ENDCHAR
STARTCHAR uni256E
ENCODING 9582
SWIDTH 1000 0
DWIDTH 13 0
BBX 6 7 0 -3
BITMAP
E0
10
08
04
04
04
04
ENDCHAR
STARTCHAR uni256F
ENCODING 9583
SWIDTH 1000 0
DWIDTH 13 0
BBX 6 6 0 4
BITMAP
04
04
04
08
10
E0
ENDCHAR
STARTCHAR uni2570
ENCODING 9584
SWIDTH 1000 0
DWIDTH 13 0
BBX 7 6 6 4
BITMAP
80
80
80
40
20
1E
ENDCHAR
STARTCHAR uni2571
ENCODING 9585
SWIDTH 1000 0
DWIDTH 13 0
BBX 12 12 0 -2
BITMAP
0010
0020
0040
0080
0100
0200
0400
0800
1000
2000
4000
8000
ENDCHAR
STARTCHAR uni2572
ENCODING 9586
SWIDTH 1000 0
DWIDTH 13 0
BBX 12 12 0 -2
BITMAP
8000
4000
2000
1000
0800
0400
0200
0100
0080
0040
0020
0010
ENDCHAR
STARTCHAR uni2573
ENCODING 9587
SWIDTH 1000 0
DWIDTH 13 0
BBX 12 12 0 -2
BITMAP
8010
4020
2040
1080
0900
0600
0600
0900
1080
2040
4020
8010
ENDCHAR
STARTCHAR uni2574
ENCODING 9588
SWIDTH 1000 0
DWIDTH 13 0
BBX 12 1 0 -2
BITMAP
FFF0
ENDCHAR
STARTCHAR uni2581
ENCODING 9601
SWIDTH 1000 0
DWIDTH 13 0
BBX 13 2 0 -3
BITMAP
FFF8
FFF8
ENDCHAR
STARTCHAR uni2582
ENCODING 9602
SWIDTH 1000 0
DWIDTH 13 0
BBX 13 3 0 -3
BITMAP
FFF8
FFF8
FFF8
ENDCHAR
STARTCHAR uni2583
ENCODING 9603
SWIDTH 1000 0
DWIDTH 13 0
BBX 13 4 0 -3
BITMAP
FFF8
FFF8
FFF8
FFF8
ENDCHAR
STARTCHAR dnblock
ENCODING 9604
SWIDTH 1000 0
DWIDTH 13 0
BBX 13 6 0 -3
BITMAP
FFF8
FFF8
FFF8
FFF8
FFF8
FFF8
ENDCHAR
STARTCHAR uni2585
ENCODING 9605
SWIDTH 1000 0
DWIDTH 13 0
BBX 13 8 0 -3
BITMAP
FFF8
FFF8
FFF8
FFF8
FFF8
FFF8
FFF8
FFF8
ENDCHAR
STARTCHAR uni2586
ENCODING 9606
SWIDTH 1000 0
DWIDTH 13 0
BBX 13 10 0 -3
BITMAP
FFF8
FFF8
FFF8
FFF8
FFF8
FFF8
FFF8
FFF8
FFF8
FFF8
ENDCHAR
STARTCHAR uni2587
ENCODING 9607
SWIDTH 1000 0
DWIDTH 13 0
BBX 13 12 0 -3
BITMAP
FFF8
FFF8
FFF8
FFF8
FFF8
FFF8
FFF8
FFF8
FFF8
FFF8
FFF8
FFF8
ENDCHAR
STARTCHAR block
ENCODING 9608
SWIDTH 1000 0
DWIDTH 13 0
BBX 13 13 0 -3
BITMAP
FFF8
FFF8
FFF8
FFF8
FFF8
FFF8
FFF8
FFF8
FFF8
FFF8
FFF8
FFF8
FFF8
ENDCHAR
STARTCHAR uni2589
ENCODING 9609
SWIDTH 1000 0
DWIDTH 13 0
BBX 11 13 0 -3
BITMAP
FFE0
FFE0
FFE0
FFE0
FFE0
FFE0
FFE0
FFE0
FFE0
FFE0
FFE0
FFE0
FFE0
ENDCHAR
STARTCHAR uni258A
ENCODING 9610
SWIDTH 1000 0
DWIDTH 13 0
BBX 9 13 0 -3
BITMAP
FF80
FF80
FF80
FF80
FF80
FF80
FF80
FF80
FF80
FF80
FF80
FF80
FF80
ENDCHAR
STARTCHAR uni258B
ENCODING 9611
SWIDTH 1000 0
DWIDTH 13 0
BBX 7 13 0 -3
BITMAP
FE
FE
FE
FE
FE
FE
FE
FE
FE
FE
FE
FE
FE
ENDCHAR
STARTCHAR lfblock
ENCODING 9612
SWIDTH 1000 0
DWIDTH 13 0
BBX 5 13 0 -3
BITMAP
F8
F8
F8
F8
F8
F8
F8
F8
F8
F8
F8
F8
F8
ENDCHAR
STARTCHAR uni258D
ENCODING 9613
SWIDTH 1000 0
DWIDTH 13 0
BBX 3 13 0 -3
BITMAP
E0
E0
E0
E0
E0
E0
E0
E0
E0
E0
E0
E0
E0
ENDCHAR
STARTCHAR uni258E
ENCODING 9614
SWIDTH 1000 0
DWIDTH 13 0
BBX 2 13 0 -3
BITMAP
C0
C0
C0
C0
C0
C0
C0
C0
C0
C0
C0
C0
C0
ENDCHAR
STARTCHAR uni258F
ENCODING 9615
SWIDTH 1000 0
DWIDTH 13 0
BBX 1 13 0 -3
BITMAP
80
80
80
80
80
80
80
80
80
80
80
80
80
ENDCHAR
STARTCHAR dkshade
ENCODING 9619
SWIDTH 1000 0
DWIDTH 13 0
BBX 13 13 0 -3
BITMAP
FFF8
FFF8
FFF8
FFF8
FFF8
FFF8
FFF8
FFF8
FFF8
FFF8
FFF8
FFF8
FFF8
ENDCHAR
STARTCHAR uni2594
ENCODING 9620
SWIDTH 1000 0
DWIDTH 13 0
BBX 13 1 0 7
BITMAP
FFF8
ENDCHAR
STARTCHAR uni2595
ENCODING 9621
SWIDTH 1000 0
DWIDTH 13 0
BBX 1 13 6 -3
BITMAP
80
80
80
80
80
80
80
80
80
80
80
80
80
ENDCHAR
STARTCHAR filledbox
ENCODING 9632
SWIDTH 1000 0
DWIDTH 13 0
BBX 10 10 1 -1
BITMAP
FFC0
FFC0
FFC0
FFC0
FFC0
FFC0
FFC0
FFC0
FFC0
FFC0
ENDCHAR
STARTCHAR H22073
ENCODING 9633
SWIDTH 1000 0
DWIDTH 13 0
BBX 12 12 0 -2
BITMAP
FFF0
8010
8010
8010
8010
8010
8010
8010
8010
8010
8010
FFF0
ENDCHAR
STARTCHAR triagup
ENCODING 9650
SWIDTH 1000 0
DWIDTH 13 0
BBX 12 10 0 -1
BITMAP
0200
0600
0700
0F00
1F80
1F80
3FC0
3FC0
7FE0
FFF0
ENDCHAR
STARTCHAR uni25B3
ENCODING 9651
SWIDTH 1000 0
DWIDTH 13 0
BBX 12 10 0 -1
BITMAP
0400
0600
0900
0900
1080
1080
2040
2020
4020
FFF0
ENDCHAR
STARTCHAR triagdn
ENCODING 9660
SWIDTH 1000 0
DWIDTH 13 0
BBX 12 10 0 -1
BITMAP
FFF0
7FE0
3FC0
3FC0
1F80
1F80
0F00
0F00
0600
0400
ENDCHAR
STARTCHAR uni25BD
ENCODING 9661
SWIDTH 1000 0
DWIDTH 13 0
BBX 12 10 0 -1
BITMAP
FFF0
4020
2040
2040
1080
1080
0900
0900
0600
0400
ENDCHAR
STARTCHAR uni25C6
ENCODING 9670
SWIDTH 1000 0
DWIDTH 13 0
BBX 12 12 0 -2
BITMAP
0600
0F00
1F80
3FC0
7FE0
FFF0
FFF0
7FE0
3FC0
1F80
0F00
0600
ENDCHAR
STARTCHAR uni25C7
ENCODING 9671
SWIDTH 1000 0
DWIDTH 13 0
BBX 12 12 0 -2
BITMAP
0600
0900
1080
2040
4020
8010
8010
4020
2040
1080
0900
0600
ENDCHAR
STARTCHAR circle
ENCODING 9675
SWIDTH 1000 0
DWIDTH 13 0
BBX 10 10 1 -1
BITMAP
3F00
4080
8040
8040
8040
8040
8040
8040
4080
3F00
ENDCHAR
STARTCHAR uni25CE
ENCODING 9678
SWIDTH 1000 0
DWIDTH 13 0
BBX 10 10 1 -1
BITMAP
3F00
4080
9E40
A140
A140
A140
A140
9E40
4080
3F00
ENDCHAR
STARTCHAR H18533
ENCODING 9679
SWIDTH 1000 0
DWIDTH 13 0
BBX 10 10 1 -1
BITMAP
3F00
7F80
FFC0
FFC0
FFC0
FFC0
FFC0
FFC0
7F80
3F00
ENDCHAR
STARTCHAR uni25E2
ENCODING 9698
SWIDTH 1000 0
DWIDTH 13 0
BBX 12 12 0 -2
BITMAP
0010
0030
0070
00F0
01F0
03F0
07F0
0FF0
1FF0
3FF0
7FF0
FFF0
ENDCHAR
STARTCHAR uni25E3
ENCODING 9699
SWIDTH 1000 0
DWIDTH 13 0
BBX 12 12 0 -2
BITMAP
8000
C000
E000
F000
F800
FC00
FE00
FF00
FF80
FFC0
FFE0
FFF0
ENDCHAR
STARTCHAR uni25E4
ENCODING 9700
SWIDTH 1000 0
DWIDTH 13 0
BBX 12 12 0 -2
BITMAP
FFF0
FFE0
FFC0
FF80
FF00
FE00
FC00
F800
F000
E000
C000
8000
ENDCHAR
STARTCHAR uni25E5
ENCODING 9701
SWIDTH 1000 0
DWIDTH 13 0
BBX 12 12 0 -2
BITMAP
FFF0
7FF0
3FF0
1FF0
0FF0
07F0
03F0
01F0
00F0
0070
0030
0010
ENDCHAR
STARTCHAR uni2605
ENCODING 9733
SWIDTH 1000 0
DWIDTH 13 0
BBX 12 12 0 -2
BITMAP
0200
0600
0600
0F00
FFF0
7FE0
3FC0
1F80
1F80
1D80
38C0
2040
ENDCHAR
STARTCHAR uni2606
ENCODING 9734
SWIDTH 1000 0
DWIDTH 13 0
BBX 12 12 0 -2
BITMAP
0200
0600
0500
0900
F9F0
4020
2040
1080
1080
1680
39C0
2040
ENDCHAR
STARTCHAR uni2299.dup24
ENCODING 9737
SWIDTH 1000 0
DWIDTH 13 0
BBX 10 10 1 -1
BITMAP
3F00
4080
8040
8040
8C40
8C40
8040
8040
4080
3F00
ENDCHAR
STARTCHAR female
ENCODING 9792
SWIDTH 1000 0
DWIDTH 13 0
BBX 7 9 3 -1
BITMAP
38
44
44
44
38
10
FE
10
10
ENDCHAR
STARTCHAR circleplus.dup25
ENCODING 9793
SWIDTH 1000 0
DWIDTH 13 0
BBX 10 10 1 -1
BITMAP
3F00
4480
8440
8440
FFC0
8440
8440
8440
4480
3F00
ENDCHAR
STARTCHAR male
ENCODING 9794
SWIDTH 1000 0
DWIDTH 13 0
BBX 9 9 1 -1
BITMAP
0780
0180
0280
0480
7800
8800
8800
8800
7000
ENDCHAR
STARTCHAR uni3000
ENCODING 12288
SWIDTH 1000 0
DWIDTH 13 0
BBX 1 1 12 -3
BITMAP
00
ENDCHAR
STARTCHAR uni3001
ENCODING 12289
SWIDTH 1000 0
DWIDTH 13 0
BBX 3 3 1 -2
BITMAP
80
60
20
ENDCHAR
STARTCHAR uni3002
ENCODING 12290
SWIDTH 1000 0
DWIDTH 13 0
BBX 4 3 1 -2
BITMAP
60
90
60
ENDCHAR
STARTCHAR second.dup26
ENCODING 12291
SWIDTH 1000 0
DWIDTH 13 0
BBX 6 5 3 2
BITMAP
24
24
28
48
90
ENDCHAR
STARTCHAR uni3008
ENCODING 12296
SWIDTH 1000 0
DWIDTH 13 0
BBX 6 12 6 -2
BITMAP
04
08
10
20
40
80
80
40
20
10
08
04
ENDCHAR
STARTCHAR uni3009
ENCODING 12297
SWIDTH 1000 0
DWIDTH 13 0
BBX 6 12 0 -2
BITMAP
80
40
20
10
08
04
04
08
10
20
40
80
ENDCHAR
STARTCHAR uni300A
ENCODING 12298
SWIDTH 1000 0
DWIDTH 13 0
BBX 6 12 6 -2
BITMAP
14
28
28
50
50
A0
A0
50
50
28
28
14
ENDCHAR
STARTCHAR uni300B
ENCODING 12299
SWIDTH 1000 0
DWIDTH 13 0
BBX 6 12 0 -2
BITMAP
A0
50
50
28
28
14
14
28
28
50
50
A0
ENDCHAR
STARTCHAR uni300C
ENCODING 12300
SWIDTH 1000 0
DWIDTH 13 0
BBX 4 12 7 -2
BITMAP
F0
80
80
80
80
80
80
80
80
80
80
80
ENDCHAR
STARTCHAR uni300D
ENCODING 12301
SWIDTH 1000 0
DWIDTH 13 0
BBX 4 12 1 -2
BITMAP
10
10
10
10
10
10
10
10
10
10
10
F0
ENDCHAR
STARTCHAR uni300E
ENCODING 12302
SWIDTH 1000 0
DWIDTH 13 0
BBX 5 12 7 -2
BITMAP
F8
88
B8
A0
A0
A0
A0
A0
A0
A0
A0
E0
ENDCHAR
STARTCHAR uni300F
ENCODING 12303
SWIDTH 1000 0
DWIDTH 13 0
BBX 5 12 0 -2
BITMAP
38
28
28
28
28
28
28
28
28
E8
88
F8
ENDCHAR
STARTCHAR uni3010
ENCODING 12304
SWIDTH 1000 0
DWIDTH 13 0
BBX 3 12 8 -2
BITMAP
E0
C0
C0
80
80
80
80
80
80
C0
C0
E0
ENDCHAR
STARTCHAR uni3011
ENCODING 12305
SWIDTH 1000 0
DWIDTH 13 0
BBX 3 12 1 -2
BITMAP
E0
60
60
20
20
20
20
20
20
60
60
E0
ENDCHAR
STARTCHAR uni3012
ENCODING 12306
SWIDTH 1000 0
DWIDTH 13 0
BBX 11 10 1 -2
BITMAP
FFE0
0000
0000
FFE0
0400
0400
0400
0400
0400
0400
ENDCHAR
STARTCHAR uni3014
ENCODING 12308
SWIDTH 1000 0
DWIDTH 13 0
BBX 4 12 7 -2
BITMAP
30
C0
80
80
80
80
80
80
80
80
C0
30
ENDCHAR
STARTCHAR uni3015
ENCODING 12309
SWIDTH 1000 0
DWIDTH 13 0
BBX 4 12 1 -2
BITMAP
C0
30
10
10
10
10
10
10
10
10
30
C0
ENDCHAR
STARTCHAR uni301C
ENCODING 12316
SWIDTH 1000 0
DWIDTH 13 0
BBX 12 4 0 2
BITMAP
7000
8C00
0310
00E0
ENDCHAR
STARTCHAR uni301D
ENCODING 12317
SWIDTH 1000 0
DWIDTH 13 0
BBX 5 4 1 6
BITMAP
20
90
48
20
ENDCHAR
STARTCHAR uni301E
ENCODING 12318
SWIDTH 1000 0
DWIDTH 13 0
BBX 5 4 1 6
BITMAP
20
48
90
20
ENDCHAR
STARTCHAR uni3021
ENCODING 12321
SWIDTH 1000 0
DWIDTH 13 0
BBX 1 12 5 -2
BITMAP
80
80
80
80
80
80
80
80
80
80
80
80
ENDCHAR
STARTCHAR uni3022
ENCODING 12322
SWIDTH 1000 0
DWIDTH 13 0
BBX 6 12 3 -2
BITMAP
04
84
84
84
84
84
84
84
84
84
84
04
ENDCHAR
STARTCHAR uni3023
ENCODING 12323
SWIDTH 1000 0
DWIDTH 13 0
BBX 9 12 2 -2
BITMAP
8080
8880
8880
8880
8880
8880
8880
8880
8880
8880
8080
0080
ENDCHAR
STARTCHAR uni3024
ENCODING 12324
SWIDTH 1000 0
DWIDTH 13 0
BBX 10 10 1 -1
BITMAP
C040
2080
1100
0A00
0400
0A00
1100
2080
4040
8040
ENDCHAR
STARTCHAR uni3025
ENCODING 12325
SWIDTH 1000 0
DWIDTH 13 0
BBX 7 12 3 -2
BITMAP
42
84
88
90
A0
60
98
84
84
84
44
38
ENDCHAR
STARTCHAR uni3026
ENCODING 12326
SWIDTH 1000 0
DWIDTH 13 0
BBX 12 3 0 7
BITMAP
0200
0220
FFF0
ENDCHAR
STARTCHAR uni3027
ENCODING 12327
SWIDTH 1000 0
DWIDTH 13 0
BBX 12 6 0 4
BITMAP
0200
0220
FFF0
0000
0000
7FE0
ENDCHAR
STARTCHAR uni3028
ENCODING 12328
SWIDTH 1000 0
DWIDTH 13 0
BBX 12 11 0 -1
BITMAP
0200
0220
FFF0
0000
0000
3FC0
0000
0000
0000
0020
FFF0
ENDCHAR
STARTCHAR uni3029
ENCODING 12329
SWIDTH 1000 0
DWIDTH 13 0
BBX 12 12 0 -2
BITMAP
0C00
0800
1040
3FE0
0040
1080
0880
0500
0200
0500
18C0
E030
ENDCHAR
STARTCHAR uni3030
ENCODING 12336
SWIDTH 1000 0
DWIDTH 13 0
BBX 13 2 0 8
BITMAP
38E0
C718
ENDCHAR
STARTCHAR uni3041
ENCODING 12353
SWIDTH 1000 0
DWIDTH 13 0
BBX 8 10 2 -2
BITMAP
30
10
FE
14
3E
55
99
B1
52
0C
ENDCHAR
STARTCHAR uni3042
ENCODING 12354
SWIDTH 1000 0
DWIDTH 13 0
BBX 10 12 1 -2
BITMAP
1800
8800
7F00
0800
1F00
3280
5240
9440
9840
A880
4100
0600
ENDCHAR
STARTCHAR uni3043
ENCODING 12355
SWIDTH 1000 0
DWIDTH 13 0
BBX 10 8 1 -1
BITMAP
C000
4100
4080
4040
4840
4940
50C0
2000
ENDCHAR
STARTCHAR uni3044
ENCODING 12356
SWIDTH 1000 0
DWIDTH 13 0
BBX 11 10 0 -1
BITMAP
C000
4080
4040
4020
4020
4420
48A0
2860
3000
1000
ENDCHAR
STARTCHAR uni3045
ENCODING 12357
SWIDTH 1000 0
DWIDTH 13 0
BBX 7 9 2 -2
BITMAP
3C
00
9C
62
02
02
02
04
38
ENDCHAR
STARTCHAR uni3046
ENCODING 12358
SWIDTH 1000 0
DWIDTH 13 0
BBX 9 12 1 -2
BITMAP
2000
1E00
0000
9E00
6100
0080
0080
0080
0080
0100
0600
3800
ENDCHAR
STARTCHAR uni3047
ENCODING 12359
SWIDTH 1000 0
DWIDTH 13 0
BBX 9 10 1 -2
BITMAP
1E00
0400
0000
7E00
0400
0800
1C00
2400
4400
8380
ENDCHAR
STARTCHAR uni3048
ENCODING 12360
SWIDTH 1000 0
DWIDTH 13 0
BBX 10 11 1 -1
BITMAP
1E00
0400
0000
4F00
3200
0400
0800
1400
2400
4400
83C0
ENDCHAR
STARTCHAR uni3049
ENCODING 12361
SWIDTH 1000 0
DWIDTH 13 0
BBX 10 10 1 -2
BITMAP
2000
1100
1C80
7180
1000
1F80
3040
D440
3380
1000
ENDCHAR
STARTCHAR uni304A
ENCODING 12362
SWIDTH 1000 0
DWIDTH 13 0
BBX 12 12 0 -2
BITMAP
1800
0880
0E40
78E0
0800
09C0
0E20
1810
E810
2A20
19C0
0800
ENDCHAR
STARTCHAR uni304B
ENCODING 12363
SWIDTH 1000 0
DWIDTH 13 0
BBX 12 11 0 -1
BITMAP
1800
0800
0800
1C40
F220
1220
2210
2270
4200
4A00
8400
ENDCHAR
STARTCHAR uni304C
ENCODING 12364
SWIDTH 1000 0
DWIDTH 13 0
BBX 12 11 0 -1
BITMAP
1820
0890
0840
1C00
F240
1220
2210
2270
4210
4A00
8400
ENDCHAR
STARTCHAR uni304D
ENCODING 12365
SWIDTH 1000 0
DWIDTH 13 0
BBX 10 12 1 -2
BITMAP
1800
0800
4780
3C00
83C0
7E00
0100
3F80
4000
4000
2080
1F00
ENDCHAR
STARTCHAR uni304E
ENCODING 12366
SWIDTH 1000 0
DWIDTH 13 0
BBX 11 12 1 -2
BITMAP
1940
08A0
4780
3C00
83C0
7E00
0100
3F80
4000
4000
2080
1F00
ENDCHAR
STARTCHAR uni304F
ENCODING 12367
SWIDTH 1000 0
DWIDTH 13 0
BBX 6 11 3 -1
BITMAP
04
0C
10
20
40
80
80
60
10
08
04
ENDCHAR
STARTCHAR uni3050
ENCODING 12368
SWIDTH 1000 0
DWIDTH 13 0
BBX 10 11 2 -1
BITMAP
0880
1A40
1100
2000
4000
8000
8000
6000
1000
0800
0400
ENDCHAR
STARTCHAR uni3051
ENCODING 12369
SWIDTH 1000 0
DWIDTH 13 0
BBX 11 12 1 -2
BITMAP
0300
8100
4100
4FE0
8100
8100
8100
A100
A200
C200
4400
0800
ENDCHAR
STARTCHAR uni3052
ENCODING 12370
SWIDTH 1000 0
DWIDTH 13 0
BBX 12 12 0 -2
BITMAP
0320
8150
4120
4FE0
8100
8100
8100
8100
A200
C200
4400
0800
ENDCHAR
STARTCHAR uni3053
ENCODING 12371
SWIDTH 1000 0
DWIDTH 13 0
BBX 9 10 2 -1
BITMAP
7E00
0C00
1000
0000
0000
8000
8000
8000
4000
3F80
ENDCHAR
STARTCHAR uni3054
ENCODING 12372
SWIDTH 1000 0
DWIDTH 13 0
BBX 11 11 1 -1
BITMAP
0040
7EA0
0C40
1000
0000
0000
8000
8000
8000
4000
3F80
ENDCHAR
STARTCHAR uni3055
ENCODING 12373
SWIDTH 1000 0
DWIDTH 13 0
BBX 9 11 1 -1
BITMAP
1800
0800
8580
7E00
0200
0100
3F80
4080
4000
4000
3F80
ENDCHAR
STARTCHAR uni3056
ENCODING 12374
SWIDTH 1000 0
DWIDTH 13 0
BBX 11 11 1 -1
BITMAP
3040
10A0
0B40
FC00
0400
0200
7F00
8100
8000
8000
7F00
ENDCHAR
STARTCHAR uni3057
ENCODING 12375
SWIDTH 1000 0
DWIDTH 13 0
BBX 9 11 2 -1
BITMAP
C000
4000
4000
4000
4000
4000
4000
4080
4100
4200
3C00
ENDCHAR
STARTCHAR uni3058
ENCODING 12376
SWIDTH 1000 0
DWIDTH 13 0
BBX 9 11 2 -1
BITMAP
C100
4480
4200
4000
4000
4000
4000
4080
4100
4200
3C00
ENDCHAR
STARTCHAR uni3059
ENCODING 12377
SWIDTH 1000 0
DWIDTH 13 0
BBX 12 12 0 -2
BITMAP
0600
0200
FFF0
0200
0E00
1200
1200
1200
0E00
0200
0400
0800
ENDCHAR
STARTCHAR uni305A
ENCODING 12378
SWIDTH 1000 0
DWIDTH 13 0
BBX 12 12 0 -2
BITMAP
0650
0200
FFF0
0200
0E00
1200
1200
1200
0E00
0200
0400
1800
ENDCHAR
STARTCHAR uni305B
ENCODING 12379
SWIDTH 1000 0
DWIDTH 13 0
BBX 12 11 0 -1
BITMAP
0100
2080
1080
1080
1FF0
F080
1080
1280
1180
1000
0FC0
ENDCHAR
STARTCHAR uni305C
ENCODING 12380
SWIDTH 1000 0
DWIDTH 13 0
BBX 12 11 0 -1
BITMAP
0220
2150
1120
1100
1FE0
F100
1100
1500
1300
1000
0F80
ENDCHAR
STARTCHAR uni305D
ENCODING 12381
SWIDTH 1000 0
DWIDTH 13 0
BBX 12 12 0 -2
BITMAP
2000
1F80
0300
0400
0800
1FF0
E400
0800
0800
0800
0400
0380
ENDCHAR
STARTCHAR uni305E
ENCODING 12382
SWIDTH 1000 0
DWIDTH 13 0
BBX 12 12 0 -2
BITMAP
20A0
1F50
0200
0400
0800
1FE0
E400
0800
0800
0800
0400
0380
ENDCHAR
STARTCHAR uni305F
ENCODING 12383
SWIDTH 1000 0
DWIDTH 13 0
BBX 11 11 1 -1
BITMAP
3000
1000
1E00
F000
27C0
2100
2200
4000
4800
8800
87E0
ENDCHAR
STARTCHAR uni3060
ENCODING 12384
SWIDTH 1000 0
DWIDTH 13 0
BBX 12 11 0 -1
BITMAP
18A0
0850
8E00
7800
13E0
1080
1100
2000
2400
4400
43E0
ENDCHAR
STARTCHAR uni3061
ENCODING 12385
SWIDTH 1000 0
DWIDTH 13 0
BBX 11 11 0 -1
BITMAP
1800
0800
8FC0
7800
1000
1780
3840
2020
0020
0040
1F80
ENDCHAR
STARTCHAR uni3062
ENCODING 12386
SWIDTH 1000 0
DWIDTH 13 0
BBX 12 11 0 -1
BITMAP
18A0
0850
8F80
7800
1000
1780
3840
2020
0020
0040
1F80
ENDCHAR
STARTCHAR uni3063
ENCODING 12387
SWIDTH 1000 0
DWIDTH 13 0
BBX 9 7 1 -1
BITMAP
1E00
E100
0080
0080
0080
0100
3E00
ENDCHAR
STARTCHAR uni3064
ENCODING 12388
SWIDTH 1000 0
DWIDTH 13 0
BBX 10 9 1 -1
BITMAP
8F00
7080
0040
0040
0040
0040
0080
0300
3C00
ENDCHAR
STARTCHAR uni3065
ENCODING 12389
SWIDTH 1000 0
DWIDTH 13 0
BBX 12 11 0 -1
BITMAP
00A0
0050
8F80
7040
0020
0020
0020
0020
0040
0180
1E00
ENDCHAR
STARTCHAR uni3066
ENCODING 12390
SWIDTH 1000 0
DWIDTH 13 0
BBX 11 10 0 -1
BITMAP
8FE0
7100
0200
0400
0400
0400
0400
0400
0200
01C0
ENDCHAR
STARTCHAR uni3067
ENCODING 12391
SWIDTH 1000 0
DWIDTH 13 0
BBX 12 10 0 -1
BITMAP
8FC0
7120
0210
0440
0420
0400
0400
0400
0200
01C0
ENDCHAR
STARTCHAR uni3068
ENCODING 12392
SWIDTH 1000 0
DWIDTH 13 0
BBX 9 11 2 -1
BITMAP
3000
1000
1000
1000
1700
3800
4000
8000
8000
8000
7F80
ENDCHAR
STARTCHAR uni3069
ENCODING 12393
SWIDTH 1000 0
DWIDTH 13 0
BBX 10 11 2 -1
BITMAP
3080
1240
1100
1000
1700
3800
4000
8000
8000
8000
7F80
ENDCHAR
STARTCHAR uni306A
ENCODING 12394
SWIDTH 1000 0
DWIDTH 13 0
BBX 12 12 0 -2
BITMAP
1800
0800
8E80
7060
10A0
2080
2080
2080
4780
48E0
4890
0700
ENDCHAR
STARTCHAR uni306B
ENCODING 12395
SWIDTH 1000 0
DWIDTH 13 0
BBX 10 10 1 -1
BITMAP
8000
47C0
4900
8200
8000
8000
A000
C800
C800
47C0
ENDCHAR
STARTCHAR uni306C
ENCODING 12396
SWIDTH 1000 0
DWIDTH 13 0
BBX 12 11 0 -1
BITMAP
0600
0200
6200
2F80
3440
6420
A820
9820
91A0
9A60
69B0
ENDCHAR
STARTCHAR uni306D
ENCODING 12397
SWIDTH 1000 0
DWIDTH 13 0
BBX 12 11 0 -1
BITMAP
3000
1000
1BC0
F420
1820
1020
3020
5020
D1E0
3230
11D0
ENDCHAR
STARTCHAR uni306E
ENCODING 12398
SWIDTH 1000 0
DWIDTH 13 0
BBX 10 10 1 -1
BITMAP
1F00
2480
4440
8440
8840
8840
9080
9080
6100
0600
ENDCHAR
STARTCHAR uni306F
ENCODING 12399
SWIDTH 1000 0
DWIDTH 13 0
BBX 12 11 0 -1
BITMAP
80C0
4040
4040
4FF0
4040
4040
4040
5040
67C0
6870
4790
ENDCHAR
STARTCHAR uni3070
ENCODING 12400
SWIDTH 1000 0
DWIDTH 13 0
BBX 12 11 0 -1
BITMAP
0320
8150
8120
9FC0
8100
8100
8100
A100
CF00
D1C0
8E40
ENDCHAR
STARTCHAR uni3071
ENCODING 12401
SWIDTH 1000 0
DWIDTH 13 0
BBX 12 11 0 -1
BITMAP
0370
8150
9170
8FC0
8100
8100
8100
A100
CF00
D1C0
8E40
ENDCHAR
STARTCHAR uni3072
ENCODING 12402
SWIDTH 1000 0
DWIDTH 13 0
BBX 12 10 0 -1
BITMAP
9C00
6880
10C0
20C0
20A0
40A0
4090
4080
2100
1E00
ENDCHAR
STARTCHAR uni3073
ENCODING 12403
SWIDTH 1000 0
DWIDTH 13 0
BBX 12 11 0 -1
BITMAP
00A0
9C50
6880
10C0
20C0
20A0
40A0
4090
4080
2100
1E00
ENDCHAR
STARTCHAR uni3074
ENCODING 12404
SWIDTH 1000 0
DWIDTH 13 0
BBX 12 11 0 -1
BITMAP
0070
9C50
68F0
1080
20C0
20A0
40A0
4090
4080
2100
1E00
ENDCHAR
STARTCHAR uni3075
ENCODING 12405
SWIDTH 1000 0
DWIDTH 13 0
BBX 12 11 0 -1
BITMAP
0800
0700
0200
0400
0800
0400
02C0
1120
A110
C910
4600
ENDCHAR
STARTCHAR uni3076
ENCODING 12406
SWIDTH 1000 0
DWIDTH 13 0
BBX 12 11 0 -1
BITMAP
0820
0710
0240
0420
0800
0400
0240
1120
A110
C910
4600
ENDCHAR
STARTCHAR uni3077
ENCODING 12407
SWIDTH 1000 0
DWIDTH 13 0
BBX 12 11 0 -1
BITMAP
0870
0750
0270
0400
0800
0400
02C0
1120
A110
C910
4600
ENDCHAR
STARTCHAR uni3078
ENCODING 12408
SWIDTH 1000 0
DWIDTH 13 0
BBX 12 7 0 0
BITMAP
1C00
2200
4100
C080
0040
0020
0010
ENDCHAR
STARTCHAR uni3079
ENCODING 12409
SWIDTH 1000 0
DWIDTH 13 0
BBX 12 9 0 0
BITMAP
0040
0120
1C80
2200
4100
C080
0040
0020
0010
ENDCHAR
STARTCHAR uni307A
ENCODING 12410
SWIDTH 1000 0
DWIDTH 13 0
BBX 12 9 0 0
BITMAP
00E0
00A0
1CE0
2200
4100
C080
0040
0020
0010
ENDCHAR
STARTCHAR uni307B
ENCODING 12411
SWIDTH 1000 0
DWIDTH 13 0
BBX 11 10 1 -1
BITMAP
8FC0
8100
8100
9FE0
8100
8100
A100
CF00
D1C0
8E60
ENDCHAR
STARTCHAR uni307C
ENCODING 12412
SWIDTH 1000 0
DWIDTH 13 0
BBX 12 11 0 -1
BITMAP
0050
8FA0
8100
8100
9FC0
8100
A100
C100
CF00
9180
8E40
ENDCHAR
STARTCHAR uni307D
ENCODING 12413
SWIDTH 1000 0
DWIDTH 13 0
BBX 12 11 0 -1
BITMAP
0070
8FD0
8170
8100
9FC0
8100
8100
A100
CF00
D180
8E40
ENDCHAR
STARTCHAR uni307E
ENCODING 12414
SWIDTH 1000 0
DWIDTH 13 0
BBX 10 11 1 -1
BITMAP
0C00
0400
FFC0
0400
0400
7F80
0400
0400
7C00
8600
7980
ENDCHAR
STARTCHAR uni307F
ENCODING 12415
SWIDTH 1000 0
DWIDTH 13 0
BBX 12 11 0 -2
BITMAP
3E00
0200
02C0
0440
3C40
4740
88C0
8860
9090
6100
0600
ENDCHAR
STARTCHAR uni3080
ENCODING 12416
SWIDTH 1000 0
DWIDTH 13 0
BBX 12 11 0 -1
BITMAP
1000
1000
FE40
1020
3090
4850
4840
4820
7020
2020
1FC0
ENDCHAR
STARTCHAR uni3081
ENCODING 12417
SWIDTH 1000 0
DWIDTH 13 0
BBX 11 12 0 -2
BITMAP
0300
0100
6100
2F80
3240
5420
9420
8820
9420
6040
0180
0600
ENDCHAR
STARTCHAR uni3082
ENCODING 12418
SWIDTH 1000 0
DWIDTH 13 0
BBX 9 11 2 -1
BITMAP
3000
1000
9000
7C00
2200
A100
7C80
2080
2080
2080
1F00
ENDCHAR
STARTCHAR uni3083
ENCODING 12419
SWIDTH 1000 0
DWIDTH 13 0
BBX 10 10 1 -2
BITMAP
0800
1C00
2000
2F80
F040
1440
1380
0800
0800
0400
ENDCHAR
STARTCHAR uni3084
ENCODING 12420
SWIDTH 1000 0
DWIDTH 13 0
BBX 12 12 0 -2
BITMAP
0400
0200
1E00
23E0
1C10
F010
0910
08E0
0400
0400
0200
0200
ENDCHAR
STARTCHAR uni3085
ENCODING 12421
SWIDTH 1000 0
DWIDTH 13 0
BBX 9 10 1 -2
BITMAP
0C00
8400
4F00
5480
7480
5480
5480
4F00
0400
1800
ENDCHAR
STARTCHAR uni3086
ENCODING 12422
SWIDTH 1000 0
DWIDTH 13 0
BBX 11 12 0 -2
BITMAP
0300
C100
43C0
4520
4920
5920
6920
6920
4540
4380
0200
0C00
ENDCHAR
STARTCHAR uni3087
ENCODING 12423
SWIDTH 1000 0
DWIDTH 13 0
BBX 9 10 1 -2
BITMAP
1800
0800
0800
0F80
0800
0800
7800
8E00
8980
7080
ENDCHAR
STARTCHAR uni3088
ENCODING 12424
SWIDTH 1000 0
DWIDTH 13 0
BBX 10 11 1 -1
BITMAP
1800
0800
0800
0FC0
0800
0800
0800
7800
8E00
89C0
7040
ENDCHAR
STARTCHAR uni3089
ENCODING 12425
SWIDTH 1000 0
DWIDTH 13 0
BBX 9 12 2 -2
BITMAP
2000
1800
3000
8000
8000
8E00
B100
C080
8080
0100
0600
7800
ENDCHAR
STARTCHAR uni308A
ENCODING 12426
SWIDTH 1000 0
DWIDTH 13 0
BBX 8 12 2 -2
BITMAP
80
4C
52
A1
A1
A1
A1
C1
42
02
04
38
ENDCHAR
STARTCHAR uni308B
ENCODING 12427
SWIDTH 1000 0
DWIDTH 13 0
BBX 10 10 1 -1
BITMAP
7F00
0400
0800
1000
3F80
4040
8040
1C40
2280
1F00
ENDCHAR
STARTCHAR uni308C
ENCODING 12428
SWIDTH 1000 0
DWIDTH 13 0
BBX 12 11 0 -1
BITMAP
3000
1000
1980
F240
1440
1840
3040
5040
D040
B040
1030
ENDCHAR
STARTCHAR uni308D
ENCODING 12429
SWIDTH 1000 0
DWIDTH 13 0
BBX 9 10 2 -1
BITMAP
FE00
0400
0800
1000
3E00
4100
8080
0080
4100
3E00
ENDCHAR
STARTCHAR uni308E
ENCODING 12430
SWIDTH 1000 0
DWIDTH 13 0
BBX 10 10 1 -2
BITMAP
3000
1000
9800
7780
1840
3040
5040
D040
3080
1700
ENDCHAR
STARTCHAR uni308F
ENCODING 12431
SWIDTH 1000 0
DWIDTH 13 0
BBX 12 11 0 -1
BITMAP
3000
1000
9800
73C0
1420
1810
3010
5010
D010
3020
13C0
ENDCHAR
STARTCHAR uni3090
ENCODING 12432
SWIDTH 1000 0
DWIDTH 13 0
BBX 11 11 1 -1
BITMAP
4000
3E00
0400
0400
3F80
4840
8820
9020
9620
A940
4780
ENDCHAR
STARTCHAR uni3091
ENCODING 12433
SWIDTH 1000 0
DWIDTH 13 0
BBX 12 12 0 -2
BITMAP
2700
1A00
0400
0F80
1040
2640
0940
0780
10C0
2920
4670
8000
ENDCHAR
STARTCHAR uni3092
ENCODING 12434
SWIDTH 1000 0
DWIDTH 13 0
BBX 10 12 1 -2
BITMAP
0C00
0800
FF00
1000
2040
3CC0
4700
9C00
2400
2000
2000
1FC0
ENDCHAR
STARTCHAR uni3093
ENCODING 12435
SWIDTH 1000 0
DWIDTH 13 0
BBX 11 11 1 -1
BITMAP
1800
0800
0800
1000
1000
3800
2400
4420
4420
8440
8380
ENDCHAR
STARTCHAR uni309B
ENCODING 12443
SWIDTH 1000 0
DWIDTH 13 0
BBX 4 3 0 7
BITMAP
20
90
40
ENDCHAR
STARTCHAR uni309C
ENCODING 12444
SWIDTH 1000 0
DWIDTH 13 0
BBX 3 3 0 7
BITMAP
E0
A0
E0
ENDCHAR
STARTCHAR uni309D
ENCODING 12445
SWIDTH 1000 0
DWIDTH 13 0
BBX 6 8 3 0
BITMAP
40
40
20
10
08
1C
60
80
ENDCHAR
STARTCHAR uni309E
ENCODING 12446
SWIDTH 1000 0
DWIDTH 13 0
BBX 8 10 3 0
BITMAP
02
09
44
40
20
10
08
1C
60
80
ENDCHAR
STARTCHAR uni30A1
ENCODING 12449
SWIDTH 1000 0
DWIDTH 13 0
BBX 8 8 2 -2
BITMAP
FF
02
14
18
10
10
20
40
ENDCHAR
STARTCHAR uni30A2
ENCODING 12450
SWIDTH 1000 0
DWIDTH 13 0
BBX 10 11 1 -2
BITMAP
FFC0
0080
0100
0A00
0C00
0800
0800
1000
1000
2000
C000
ENDCHAR
STARTCHAR uni30A3
ENCODING 12451
SWIDTH 1000 0
DWIDTH 13 0
BBX 7 9 2 -2
BITMAP
02
04
08
38
C8
08
08
08
08
ENDCHAR
STARTCHAR uni30A4
ENCODING 12452
SWIDTH 1000 0
DWIDTH 13 0
BBX 9 12 0 -2
BITMAP
0080
0080
0100
0200
0E00
3200
C200
0200
0200
0200
0200
0200
ENDCHAR
STARTCHAR uni30A5
ENCODING 12453
SWIDTH 1000 0
DWIDTH 13 0
BBX 8 10 2 -2
BITMAP
18
08
FF
81
81
82
02
04
08
30
ENDCHAR
STARTCHAR uni30A6
ENCODING 12454
SWIDTH 1000 0
DWIDTH 13 0
BBX 10 12 1 -2
BITMAP
1800
0800
FFC0
8040
8040
8040
8080
0080
0100
0200
0C00
3000
ENDCHAR
STARTCHAR uni30A7
ENCODING 12455
SWIDTH 1000 0
DWIDTH 13 0
BBX 10 7 1 -1
BITMAP
7F80
0400
0400
0400
0400
0400
FFC0
ENDCHAR
STARTCHAR uni30A8
ENCODING 12456
SWIDTH 1000 0
DWIDTH 13 0
BBX 11 8 1 0
BITMAP
7FC0
0400
0400
0400
0400
0400
0400
FFE0
ENDCHAR
STARTCHAR uni30A9
ENCODING 12457
SWIDTH 1000 0
DWIDTH 13 0
BBX 9 10 2 -2
BITMAP
0800
0400
0400
FF80
0C00
1400
2400
4400
9C00
0400
ENDCHAR
STARTCHAR uni30AA
ENCODING 12458
SWIDTH 1000 0
DWIDTH 13 0
BBX 12 12 0 -2
BITMAP
0300
0100
8100
7FF0
0300
0500
0900
1100
2100
4100
0700
0100
ENDCHAR
STARTCHAR uni30AB
ENCODING 12459
SWIDTH 1000 0
DWIDTH 13 0
BBX 11 12 0 -2
BITMAP
0C00
0400
4420
3FE0
0420
0420
0820
0820
1020
2120
40C0
8080
ENDCHAR
STARTCHAR uni30AC
ENCODING 12460
SWIDTH 1000 0
DWIDTH 13 0
BBX 12 12 0 -2
BITMAP
0CA0
0450
8400
7FC0
0840
0840
0840
1040
1040
2240
4180
8100
ENDCHAR
STARTCHAR uni30AD
ENCODING 12461
SWIDTH 1000 0
DWIDTH 13 0
BBX 12 12 0 -2
BITMAP
0C00
0400
05C0
7E00
0200
0200
83F0
7E00
0200
0200
0200
0200
ENDCHAR
STARTCHAR uni30AE
ENCODING 12462
SWIDTH 1000 0
DWIDTH 13 0
BBX 12 12 0 -2
BITMAP
1820
0850
0BA0
7C00
0400
0400
87C0
7C00
0400
0400
0400
0400
ENDCHAR
STARTCHAR uni30AF
ENCODING 12463
SWIDTH 1000 0
DWIDTH 13 0
BBX 9 12 1 -2
BITMAP
3000
1000
1F80
1080
2080
4100
8100
0200
0400
0800
3000
C000
ENDCHAR
STARTCHAR uni30B0
ENCODING 12464
SWIDTH 1000 0
DWIDTH 13 0
BBX 11 12 1 -2
BITMAP
6140
20A0
3F00
2100
2100
4100
8200
0200
0400
0800
3000
C000
ENDCHAR
STARTCHAR uni30B1
ENCODING 12465
SWIDTH 1000 0
DWIDTH 13 0
BBX 12 12 0 -2
BITMAP
3000
1000
1000
1FF0
2100
4100
8100
0200
0200
0400
0800
3000
ENDCHAR
STARTCHAR uni30B2
ENCODING 12466
SWIDTH 1000 0
DWIDTH 13 0
BBX 12 12 0 -2
BITMAP
30A0
1050
1000
3FE0
2100
4100
8100
0200
0200
0400
0800
3000
ENDCHAR
STARTCHAR uni30B3
ENCODING 12467
SWIDTH 1000 0
DWIDTH 13 0
BBX 11 8 1 0
BITMAP
7F80
0080
0080
0080
0080
0080
0080
FFE0
ENDCHAR
STARTCHAR uni30B4
ENCODING 12468
SWIDTH 1000 0
DWIDTH 13 0
BBX 12 11 0 -1
BITMAP
00A0
0050
0000
7F80
0080
0080
0080
0080
0080
0080
FFE0
ENDCHAR
STARTCHAR uni30B5
ENCODING 12469
SWIDTH 1000 0
DWIDTH 13 0
BBX 12 12 0 -2
BITMAP
0180
3080
1080
90F0
7F80
1080
1080
1080
0100
0100
0200
0C00
ENDCHAR
STARTCHAR uni30B6
ENCODING 12470
SWIDTH 1000 0
DWIDTH 13 0
BBX 12 12 0 -2
BITMAP
0150
30A0
1080
90F0
7F80
1080
1080
1080
0100
0100
0200
0C00
ENDCHAR
STARTCHAR uni30B7
ENCODING 12471
SWIDTH 1000 0
DWIDTH 13 0
BBX 11 10 1 -1
BITMAP
6000
1800
0000
C020
3040
0080
0300
0C00
F000
4000
ENDCHAR
STARTCHAR uni30B8
ENCODING 12472
SWIDTH 1000 0
DWIDTH 13 0
BBX 11 11 1 -1
BITMAP
0040
6120
1880
0000
C020
3040
0080
0300
0C00
F000
4000
ENDCHAR
STARTCHAR uni30B9
ENCODING 12473
SWIDTH 1000 0
DWIDTH 13 0
BBX 11 11 0 -2
BITMAP
4000
3F80
0100
0100
0200
0200
0500
0880
1040
2020
C020
ENDCHAR
STARTCHAR uni30BA
ENCODING 12474
SWIDTH 1000 0
DWIDTH 13 0
BBX 12 12 0 -2
BITMAP
00A0
4050
3F80
0100
0100
0200
0200
0500
0880
1040
2020
C020
ENDCHAR
STARTCHAR uni30BB
ENCODING 12475
SWIDTH 1000 0
DWIDTH 13 0
BBX 10 11 0 -1
BITMAP
2000
1000
1000
1FC0
F080
1100
1200
1000
1000
1000
0FC0
ENDCHAR
STARTCHAR uni30BC
ENCODING 12476
SWIDTH 1000 0
DWIDTH 13 0
BBX 12 11 0 -1
BITMAP
20A0
1050
1000
1FC0
F080
1100
1200
1000
1000
1000
0FC0
ENDCHAR
STARTCHAR uni30BD
ENCODING 12477
SWIDTH 1000 0
DWIDTH 13 0
BBX 8 11 1 -2
BITMAP
03
81
81
41
41
01
02
02
04
18
60
ENDCHAR
STARTCHAR uni30BE
ENCODING 12478
SWIDTH 1000 0
DWIDTH 13 0
BBX 12 12 0 -2
BITMAP
00A0
0350
8100
8100
4100
4100
0100
0200
0200
0400
0800
3000
ENDCHAR
STARTCHAR uni30BF
ENCODING 12479
SWIDTH 1000 0
DWIDTH 13 0
BBX 10 12 1 -2
BITMAP
3000
1000
1FC0
1080
2080
4900
8500
0200
0400
0800
3000
C000
ENDCHAR
STARTCHAR uni30C0
ENCODING 12480
SWIDTH 1000 0
DWIDTH 13 0
BBX 12 12 0 -2
BITMAP
30A0
1050
1F80
1080
2080
4900
8500
0200
0400
0800
3000
C000
ENDCHAR
STARTCHAR uni30C1
ENCODING 12481
SWIDTH 1000 0
DWIDTH 13 0
BBX 12 11 0 -2
BITMAP
03C0
3E00
0200
83F0
7E00
0200
0200
0400
0400
0800
3000
ENDCHAR
STARTCHAR uni30C2
ENCODING 12482
SWIDTH 1000 0
DWIDTH 13 0
BBX 12 12 0 -2
BITMAP
0050
07A0
3C00
0400
87C0
7C00
0400
0400
0800
0800
1000
6000
ENDCHAR
STARTCHAR uni30C3
ENCODING 12483
SWIDTH 1000 0
DWIDTH 13 0
BBX 9 10 1 -2
BITMAP
0180
9080
4880
4880
4900
0100
0200
0400
0800
3000
ENDCHAR
STARTCHAR uni30C4
ENCODING 12484
SWIDTH 1000 0
DWIDTH 13 0
BBX 9 11 1 -2
BITMAP
0180
9080
9080
4880
4880
0100
0100
0200
0400
1800
6000
ENDCHAR
STARTCHAR uni30C5
ENCODING 12485
SWIDTH 1000 0
DWIDTH 13 0
BBX 12 12 0 -2
BITMAP
0050
01A0
9080
9080
4880
4880
0100
0100
0200
0400
1800
6000
ENDCHAR
STARTCHAR uni30C6
ENCODING 12486
SWIDTH 1000 0
DWIDTH 13 0
BBX 11 11 0 -2
BITMAP
0780
3800
0000
83E0
7E00
0200
0200
0400
0400
0800
3000
ENDCHAR
STARTCHAR uni30C7
ENCODING 12487
SWIDTH 1000 0
DWIDTH 13 0
BBX 12 12 0 -2
BITMAP
00A0
0750
3800
0000
87C0
7C00
0400
0400
0400
0800
1000
6000
ENDCHAR
STARTCHAR uni30C8
ENCODING 12488
SWIDTH 1000 0
DWIDTH 13 0
BBX 7 12 3 -2
BITMAP
C0
40
40
40
70
4C
42
40
40
40
40
40
ENDCHAR
STARTCHAR uni30C9
ENCODING 12489
SWIDTH 1000 0
DWIDTH 13 0
BBX 8 12 3 -2
BITMAP
C2
49
44
40
70
4C
42
40
40
40
40
40
ENDCHAR
STARTCHAR uni30CA
ENCODING 12490
SWIDTH 1000 0
DWIDTH 13 0
BBX 11 12 1 -2
BITMAP
0C00
0400
0400
0400
FFE0
0400
0400
0800
0800
1000
2000
C000
ENDCHAR
STARTCHAR uni30CB
ENCODING 12491
SWIDTH 1000 0
DWIDTH 13 0
BBX 12 8 0 0
BITMAP
3FC0
0000
0000
0000
0000
0000
0000
FFF0
ENDCHAR
STARTCHAR uni30CC
ENCODING 12492
SWIDTH 1000 0
DWIDTH 13 0
BBX 9 10 1 -1
BITMAP
4780
3880
0100
3100
0A00
0600
0500
0880
3080
C000
ENDCHAR
STARTCHAR uni30CD
ENCODING 12493
SWIDTH 1000 0
DWIDTH 13 0
BBX 12 12 0 -2
BITMAP
0400
0200
23C0
1C80
0100
0200
0EC0
3220
C210
0200
0200
0200
ENDCHAR
STARTCHAR uni30CE
ENCODING 12494
SWIDTH 1000 0
DWIDTH 13 0
BBX 9 12 1 -2
BITMAP
0200
0180
0100
0100
0100
0200
0200
0400
0800
1000
2000
C000
ENDCHAR
STARTCHAR uni30CF
ENCODING 12495
SWIDTH 1000 0
DWIDTH 13 0
BBX 11 10 0 -1
BITMAP
2000
1900
1080
1080
1040
2040
2040
4020
4020
8020
ENDCHAR
STARTCHAR uni30D0
ENCODING 12496
SWIDTH 1000 0
DWIDTH 13 0
BBX 12 11 0 -1
BITMAP
00A0
2050
1900
1080
1080
1040
2040
2040
4020
4020
8020
ENDCHAR
STARTCHAR uni30D1
ENCODING 12497
SWIDTH 1000 0
DWIDTH 13 0
BBX 12 11 0 -1
BITMAP
0070
2050
1970
1080
1080
1040
2040
2040
4020
4020
8020
ENDCHAR
STARTCHAR uni30D2
ENCODING 12498
SWIDTH 1000 0
DWIDTH 13 0
BBX 10 11 1 -1
BITMAP
8000
6000
4000
4080
4700
7800
4000
4000
4000
4000
3FC0
ENDCHAR
STARTCHAR uni30D3
ENCODING 12499
SWIDTH 1000 0
DWIDTH 13 0
BBX 11 11 1 -1
BITMAP
8140
60A0
4000
4080
4700
7800
4000
4000
4000
4000
3FC0
ENDCHAR
STARTCHAR uni30D4
ENCODING 12500
SWIDTH 1000 0
DWIDTH 13 0
BBX 12 11 0 -1
BITMAP
8070
4050
4070
4100
4600
7800
4000
4000
4000
4000
3F80
ENDCHAR
STARTCHAR uni30D5
ENCODING 12501
SWIDTH 1000 0
DWIDTH 13 0
BBX 10 9 1 -1
BITMAP
8FC0
7080
0080
0100
0100
0200
0400
1800
6000
ENDCHAR
STARTCHAR uni30D6
ENCODING 12502
SWIDTH 1000 0
DWIDTH 13 0
BBX 11 11 1 -1
BITMAP
00A0
0040
8780
7880
0080
0100
0100
0200
0400
1800
6000
ENDCHAR
STARTCHAR uni30D7
ENCODING 12503
SWIDTH 1000 0
DWIDTH 13 0
BBX 12 11 0 -1
BITMAP
0070
0050
8FF0
7080
0080
0100
0100
0200
0400
1800
6000
ENDCHAR
STARTCHAR uni30D8
ENCODING 12504
SWIDTH 1000 0
DWIDTH 13 0
BBX 11 8 1 0
BITMAP
0800
1800
2400
C200
8100
0080
0040
0020
ENDCHAR
STARTCHAR uni30D9
ENCODING 12505
SWIDTH 1000 0
DWIDTH 13 0
BBX 11 9 1 0
BITMAP
0040
1120
1880
2400
C200
8100
0080
0040
0020
ENDCHAR
STARTCHAR uni30DA
ENCODING 12506
SWIDTH 1000 0
DWIDTH 13 0
BBX 11 9 1 0
BITMAP
01C0
0940
19C0
2400
C200
8100
0080
0040
0020
ENDCHAR
STARTCHAR uni30DB
ENCODING 12507
SWIDTH 1000 0
DWIDTH 13 0
BBX 12 12 0 -2
BITMAP
0600
0200
8200
7FF0
0200
1280
1240
2220
2210
4A10
0600
0200
ENDCHAR
STARTCHAR uni30DC
ENCODING 12508
SWIDTH 1000 0
DWIDTH 13 0
BBX 12 12 0 -2
BITMAP
06A0
0250
8200
7FF0
0200
1280
1240
2220
2210
4A10
0600
0200
ENDCHAR
STARTCHAR uni30DD
ENCODING 12509
SWIDTH 1000 0
DWIDTH 13 0
BBX 12 12 0 -2
BITMAP
0670
0250
8270
7FF0
0200
1280
1240
2220
2210
4A10
0600
0200
ENDCHAR
STARTCHAR uni30DE
ENCODING 12510
SWIDTH 1000 0
DWIDTH 13 0
BBX 10 8 1 0
BITMAP
8FC0
7040
0080
2100
1200
0C00
0600
0200
ENDCHAR
STARTCHAR uni30DF
ENCODING 12511
SWIDTH 1000 0
DWIDTH 13 0
BBX 8 10 2 -1
BITMAP
70
0E
00
00
70
0E
00
00
F0
0F
ENDCHAR
STARTCHAR uni30E0
ENCODING 12512
SWIDTH 1000 0
DWIDTH 13 0
BBX 11 12 0 -2
BITMAP
0800
0400
0400
0400
0800
0900
0880
1040
1040
A3E0
7C20
0020
ENDCHAR
STARTCHAR uni30E1
ENCODING 12513
SWIDTH 1000 0
DWIDTH 13 0
BBX 9 12 1 -2
BITMAP
0200
0100
0100
0100
3200
0A00
0600
0500
0880
1080
2000
C000
ENDCHAR
STARTCHAR uni30E2
ENCODING 12514
SWIDTH 1000 0
DWIDTH 13 0
BBX 12 10 0 -1
BITMAP
43C0
3C00
0400
0400
FFF0
0400
0400
0400
0400
03E0
ENDCHAR
STARTCHAR uni30E3
ENCODING 12515
SWIDTH 1000 0
DWIDTH 13 0
BBX 10 9 1 -2
BITMAP
1800
1000
97C0
7880
0900
0800
0400
0400
0400
ENDCHAR
STARTCHAR uni30E4
ENCODING 12516
SWIDTH 1000 0
DWIDTH 13 0
BBX 12 12 0 -2
BITMAP
1800
0800
0800
8FF0
7820
0440
0480
0400
0200
0200
0200
0200
ENDCHAR
STARTCHAR uni30E5
ENCODING 12517
SWIDTH 1000 0
DWIDTH 13 0
BBX 10 7 1 -1
BITMAP
4000
3F00
0200
0200
0200
8200
7FC0
ENDCHAR
STARTCHAR uni30E6
ENCODING 12518
SWIDTH 1000 0
DWIDTH 13 0
BBX 12 9 0 0
BITMAP
4000
3FC0
0080
0080
0080
0100
0100
8100
7FF0
ENDCHAR
STARTCHAR uni30E7
ENCODING 12519
SWIDTH 1000 0
DWIDTH 13 0
BBX 8 7 2 -1
BITMAP
FF
02
02
7E
02
02
FE
ENDCHAR
STARTCHAR uni30E8
ENCODING 12520
SWIDTH 1000 0
DWIDTH 13 0
BBX 10 10 1 -1
BITMAP
0080
7FC0
0080
0080
0080
7F80
0080
0080
8080
7F80
ENDCHAR
STARTCHAR uni30E9
ENCODING 12521
SWIDTH 1000 0
DWIDTH 13 0
BBX 10 12 0 -2
BITMAP
0700
3800
0040
87C0
7840
0040
0080
0080
0100
0200
0C00
3000
ENDCHAR
STARTCHAR uni30EA
ENCODING 12522
SWIDTH 1000 0
DWIDTH 13 0
BBX 7 12 2 -2
BITMAP
06
C2
42
42
42
42
42
42
04
04
08
30
ENDCHAR
STARTCHAR uni30EB
ENCODING 12523
SWIDTH 1000 0
DWIDTH 13 0
BBX 11 12 0 -2
BITMAP
0600
3200
1200
1200
1200
1200
1200
1220
2240
2280
4300
8600
ENDCHAR
STARTCHAR uni30EC
ENCODING 12524
SWIDTH 1000 0
DWIDTH 13 0
BBX 8 10 2 -1
BITMAP
C0
40
40
40
41
42
44
48
70
C0
ENDCHAR
STARTCHAR uni30ED
ENCODING 12525
SWIDTH 1000 0
DWIDTH 13 0
BBX 10 9 1 -1
BITMAP
FFC0
4080
4080
4080
4080
4080
4080
7FC0
4000
ENDCHAR
STARTCHAR uni30EE
ENCODING 12526
SWIDTH 1000 0
DWIDTH 13 0
BBX 8 8 2 -2
BITMAP
FF
41
41
42
02
04
08
30
ENDCHAR
STARTCHAR uni30EF
ENCODING 12527
SWIDTH 1000 0
DWIDTH 13 0
BBX 9 11 1 -2
BITMAP
0080
FF80
4080
4080
4080
4100
0100
0200
0400
0800
3000
ENDCHAR
STARTCHAR uni30F0
ENCODING 12528
SWIDTH 1000 0
DWIDTH 13 0
BBX 12 12 0 -2
BITMAP
0300
0100
4100
3FE0
1100
1100
1100
9FF0
7100
0100
0100
0100
ENDCHAR
STARTCHAR uni30F1
ENCODING 12529
SWIDTH 1000 0
DWIDTH 13 0
BBX 12 9 0 0
BITMAP
4000
3FE0
0040
0080
0300
0200
0200
8200
7FF0
ENDCHAR
STARTCHAR uni30F2
ENCODING 12530
SWIDTH 1000 0
DWIDTH 13 0
BBX 10 12 1 -2
BITMAP
8000
7FC0
0080
0080
8F80
7080
0100
0100
0200
0400
1800
6000
ENDCHAR
STARTCHAR uni30F3
ENCODING 12531
SWIDTH 1000 0
DWIDTH 13 0
BBX 11 10 1 -1
BITMAP
C000
3000
0800
0020
0040
0080
0300
0C00
F000
4000
ENDCHAR
STARTCHAR uni30F4
ENCODING 12532
SWIDTH 1000 0
DWIDTH 13 0
BBX 12 12 0 -2
BITMAP
0C50
0420
FFC0
4040
4040
4040
4080
0080
0100
0200
0C00
3000
ENDCHAR
STARTCHAR uni30F5
ENCODING 12533
SWIDTH 1000 0
DWIDTH 13 0
BBX 8 10 2 -2
BITMAP
30
10
1F
F1
11
11
21
29
46
84
ENDCHAR
STARTCHAR uni30F6
ENCODING 12534
SWIDTH 1000 0
DWIDTH 13 0
BBX 10 10 1 -2
BITMAP
3000
1000
13C0
3E00
4200
8200
0400
0400
0800
3000
ENDCHAR
STARTCHAR uni30FB
ENCODING 12539
SWIDTH 1000 0
DWIDTH 13 0
BBX 2 2 5 3
BITMAP
C0
C0
ENDCHAR
STARTCHAR uni30FC
ENCODING 12540
SWIDTH 1000 0
DWIDTH 13 0
BBX 12 2 0 3
BITMAP
8000
7FF0
ENDCHAR
STARTCHAR uni30FD
ENCODING 12541
SWIDTH 1000 0
DWIDTH 13 0
BBX 6 7 3 1
BITMAP
80
40
20
10
08
0C
04
ENDCHAR
STARTCHAR uni30FE
ENCODING 12542
SWIDTH 1000 0
DWIDTH 13 0
BBX 8 8 3 1
BITMAP
02
89
44
20
10
08
0C
04
ENDCHAR
STARTCHAR uni3105
ENCODING 12549
SWIDTH 1000 0
DWIDTH 13 0
BBX 9 10 2 -1
BITMAP
4000
8000
FF80
0100
0100
0100
0100
0100
1E00
0400
ENDCHAR
STARTCHAR uni3106
ENCODING 12550
SWIDTH 1000 0
DWIDTH 13 0
BBX 10 10 1 -1
BITMAP
1000
2000
3F80
0100
1100
0A00
0400
0A00
3100
C0C0
ENDCHAR
STARTCHAR uni3107
ENCODING 12551
SWIDTH 1000 0
DWIDTH 13 0
BBX 8 10 2 -1
BITMAP
FF
81
81
81
81
81
81
81
81
81
ENDCHAR
STARTCHAR uni3108
ENCODING 12552
SWIDTH 1000 0
DWIDTH 13 0
BBX 9 9 2 0
BITMAP
FF80
8000
8000
8000
8000
8000
8000
8000
FF00
ENDCHAR
STARTCHAR uni3109
ENCODING 12553
SWIDTH 1000 0
DWIDTH 13 0
BBX 10 10 1 -1
BITMAP
2000
4000
7FC0
0880
0880
0880
1080
2080
4F00
8200
ENDCHAR
STARTCHAR uni310A
ENCODING 12554
SWIDTH 1000 0
DWIDTH 13 0
BBX 10 10 1 -1
BITMAP
0400
0400
FFC0
0800
0800
1000
1100
2080
FFC0
8040
ENDCHAR
STARTCHAR uni310B
ENCODING 12555
SWIDTH 1000 0
DWIDTH 13 0
BBX 8 10 2 -1
BITMAP
FC
04
04
08
0F
01
01
01
1E
04
ENDCHAR
STARTCHAR uni310C
ENCODING 12556
SWIDTH 1000 0
DWIDTH 13 0
BBX 10 10 1 -1
BITMAP
2400
2400
7FC0
0480
0480
0880
1080
2080
4780
8100
ENDCHAR
STARTCHAR uni310D
ENCODING 12557
SWIDTH 1000 0
DWIDTH 13 0
BBX 7 10 2 -1
BITMAP
22
22
44
44
88
44
24
22
12
12
ENDCHAR
STARTCHAR uni310E
ENCODING 12558
SWIDTH 1000 0
DWIDTH 13 0
BBX 10 10 1 -1
BITMAP
0080
FFC0
1000
1000
3F80
0100
0100
0100
1E00
0400
ENDCHAR
STARTCHAR uni310F
ENCODING 12559
SWIDTH 1000 0
DWIDTH 13 0
BBX 10 10 1 -1
BITMAP
7FC0
4000
4000
4000
4000
4000
4000
4000
8000
8000
ENDCHAR
STARTCHAR uni3110
ENCODING 12560
SWIDTH 1000 0
DWIDTH 13 0
BBX 6 10 3 -1
BITMAP
44
44
44
44
44
5C
E4
04
04
04
ENDCHAR
STARTCHAR uni3111
ENCODING 12561
SWIDTH 1000 0
DWIDTH 13 0
BBX 4 10 4 -1
BITMAP
10
20
20
40
80
40
20
20
10
10
ENDCHAR
STARTCHAR uni3112
ENCODING 12562
SWIDTH 1000 0
DWIDTH 13 0
BBX 10 9 1 -1
BITMAP
FFC0
0400
0400
0400
0400
0400
0400
0400
0400
ENDCHAR
STARTCHAR uni3113
ENCODING 12563
SWIDTH 1000 0
DWIDTH 13 0
BBX 10 10 1 -1
BITMAP
0400
4480
4480
4480
4480
7F80
4480
0400
0400
FFC0
ENDCHAR
STARTCHAR uni3114
ENCODING 12564
SWIDTH 1000 0
DWIDTH 13 0
BBX 4 10 4 -1
BITMAP
10
20
D0
20
60
A0
20
20
20
20
ENDCHAR
STARTCHAR uni3115
ENCODING 12565
SWIDTH 1000 0
DWIDTH 13 0
BBX 9 10 1 -1
BITMAP
7F80
0080
4080
7F80
4000
4000
4000
4000
4000
8000
ENDCHAR
STARTCHAR uni3116
ENCODING 12566
SWIDTH 1000 0
DWIDTH 13 0
BBX 9 10 2 -1
BITMAP
FF80
8080
8080
9080
8880
8880
8080
8080
FF80
8080
ENDCHAR
STARTCHAR uni3117
ENCODING 12567
SWIDTH 1000 0
DWIDTH 13 0
BBX 7 10 2 -1
BITMAP
FE
22
22
22
22
22
2E
24
20
20
ENDCHAR
STARTCHAR uni3118
ENCODING 12568
SWIDTH 1000 0
DWIDTH 13 0
BBX 10 10 1 -1
BITMAP
0400
0480
FFC0
0800
1100
1F80
0100
0100
0200
0200
ENDCHAR
STARTCHAR uni3119
ENCODING 12569
SWIDTH 1000 0
DWIDTH 13 0
BBX 9 8 2 0
BITMAP
0800
1000
1000
2000
2000
4200
FF00
8080
ENDCHAR
STARTCHAR uni311A
ENCODING 12570
SWIDTH 1000 0
DWIDTH 13 0
BBX 7 10 3 -1
BITMAP
86
48
30
10
10
10
10
10
10
10
ENDCHAR
STARTCHAR uni311B
ENCODING 12571
SWIDTH 1000 0
DWIDTH 13 0
BBX 10 10 1 -1
BITMAP
0080
FFC0
0400
0400
1C00
2000
4000
4100
2200
1C00
ENDCHAR
STARTCHAR uni311C
ENCODING 12572
SWIDTH 1000 0
DWIDTH 13 0
BBX 10 10 1 -1
BITMAP
0400
0480
FFC0
0400
1C00
2000
2000
2080
2100
1E00
ENDCHAR
STARTCHAR uni311D
ENCODING 12573
SWIDTH 1000 0
DWIDTH 13 0
BBX 10 10 1 -1
BITMAP
2100
2100
2100
FFC0
2100
2100
2100
2100
2000
1FC0
ENDCHAR
STARTCHAR uni311E
ENCODING 12574
SWIDTH 1000 0
DWIDTH 13 0
BBX 10 10 1 -1
BITMAP
FFC0
2400
2400
4400
7FC0
0480
0880
1080
2080
C080
ENDCHAR
STARTCHAR uni311F
ENCODING 12575
SWIDTH 1000 0
DWIDTH 13 0
BBX 10 7 1 1
BITMAP
3000
D000
1000
0800
0400
0300
00C0
ENDCHAR
STARTCHAR uni3120
ENCODING 12576
SWIDTH 1000 0
DWIDTH 13 0
BBX 8 10 2 -1
BITMAP
0C
08
53
22
14
08
10
22
FF
41
ENDCHAR
STARTCHAR uni3121
ENCODING 12577
SWIDTH 1000 0
DWIDTH 13 0
BBX 10 9 1 -1
BITMAP
7F80
0100
1100
0A00
0400
0A00
1100
20C0
C000
ENDCHAR
STARTCHAR uni3122
ENCODING 12578
SWIDTH 1000 0
DWIDTH 13 0
BBX 10 10 1 -1
BITMAP
FF80
0100
2100
2100
4100
7FC0
0080
0080
0100
0100
ENDCHAR
STARTCHAR uni3123
ENCODING 12579
SWIDTH 1000 0
DWIDTH 13 0
BBX 8 10 2 -1
BITMAP
40
40
80
FF
01
01
02
02
04
08
ENDCHAR
STARTCHAR uni3124
ENCODING 12580
SWIDTH 1000 0
DWIDTH 13 0
BBX 11 10 0 -1
BITMAP
0400
0440
7FE0
0400
0600
0600
0A00
1200
2200
C3E0
ENDCHAR
STARTCHAR uni3125
ENCODING 12581
SWIDTH 1000 0
DWIDTH 13 0
BBX 10 9 1 0
BITMAP
0400
0400
0800
0800
1000
2000
4000
8080
FFC0
ENDCHAR
STARTCHAR uni3126
ENCODING 12582
SWIDTH 1000 0
DWIDTH 13 0
BBX 10 10 1 -1
BITMAP
2200
2200
2200
2200
2200
2200
2200
2200
41C0
8000
ENDCHAR
STARTCHAR uni3127
ENCODING 12583
SWIDTH 1000 0
DWIDTH 13 0
BBX 10 1 1 4
BITMAP
FFC0
ENDCHAR
STARTCHAR uni3128
ENCODING 12584
SWIDTH 1000 0
DWIDTH 13 0
BBX 9 9 1 0
BITMAP
0080
6080
1100
0A00
0400
0A00
1100
2080
C000
ENDCHAR
STARTCHAR uni3129
ENCODING 12585
SWIDTH 1000 0
DWIDTH 13 0
BBX 9 10 2 -1
BITMAP
8080
8080
8080
8080
8080
8080
8080
8080
FF80
8080
ENDCHAR
STARTCHAR uni3192
ENCODING 12690
SWIDTH 1000 0
DWIDTH 13 0
BBX 7 1 0 6
BITMAP
FE
ENDCHAR
STARTCHAR uni3193
ENCODING 12691
SWIDTH 1000 0
DWIDTH 13 0
BBX 7 4 0 4
BITMAP
7C
00
00
FE
ENDCHAR
STARTCHAR uni3194
ENCODING 12692
SWIDTH 1000 0
DWIDTH 13 0
BBX 7 5 0 4
BITMAP
7C
00
38
00
FE
ENDCHAR
STARTCHAR uni3195
ENCODING 12693
SWIDTH 1000 0
DWIDTH 13 0
BBX 7 5 0 4
BITMAP
FE
AA
CE
82
FE
ENDCHAR
STARTCHAR uni3196
ENCODING 12694
SWIDTH 1000 0
DWIDTH 13 0
BBX 6 5 1 4
BITMAP
20
38
20
20
FC
ENDCHAR
STARTCHAR uni3197
ENCODING 12695
SWIDTH 1000 0
DWIDTH 13 0
BBX 5 6 1 3
BITMAP
20
F8
A8
F8
20
20
ENDCHAR
STARTCHAR uni3198
ENCODING 12696
SWIDTH 1000 0
DWIDTH 13 0
BBX 6 6 1 3
BITMAP
FC
20
30
28
20
20
ENDCHAR
STARTCHAR uni3199
ENCODING 12697
SWIDTH 1000 0
DWIDTH 13 0
BBX 5 6 1 3
BITMAP
F8
A8
F8
A8
F8
20
ENDCHAR
STARTCHAR uni319A
ENCODING 12698
SWIDTH 1000 0
DWIDTH 13 0
BBX 5 5 1 4
BITMAP
F0
20
48
88
F8
ENDCHAR
STARTCHAR uni319B
ENCODING 12699
SWIDTH 1000 0
DWIDTH 13 0
BBX 6 6 1 3
BITMAP
FC
20
FC
B4
CC
84
ENDCHAR
STARTCHAR uni319C
ENCODING 12700
SWIDTH 1000 0
DWIDTH 13 0
BBX 6 6 1 3
BITMAP
FC
10
10
10
10
30
ENDCHAR
STARTCHAR uni319D
ENCODING 12701
SWIDTH 1000 0
DWIDTH 13 0
BBX 6 6 1 3
BITMAP
78
20
FC
30
48
84
ENDCHAR
STARTCHAR uni319E
ENCODING 12702
SWIDTH 1000 0
DWIDTH 13 0
BBX 7 6 0 3
BITMAP
48
EE
5A
74
D2
0E
ENDCHAR
STARTCHAR uni319F
ENCODING 12703
SWIDTH 1000 0
DWIDTH 13 0
BBX 7 6 0 3
BITMAP
10
10
10
28
44
82
ENDCHAR
STARTCHAR uni32A3
ENCODING 12963
SWIDTH 1000 0
DWIDTH 13 0
BBX 12 12 0 -2
BITMAP
1F80
2040
5FE0
8210
8210
9390
9210
9210
BFD0
4020
2040
1F80
ENDCHAR
STARTCHAR uni338E
ENCODING 13198
SWIDTH 1000 0
DWIDTH 13 0
BBX 10 8 1 -2
BITMAP
FBC0
AA80
AB80
AA00
AB80
0440
0440
0380
ENDCHAR
STARTCHAR uni338F
ENCODING 13199
SWIDTH 1000 0
DWIDTH 13 0
BBX 10 11 1 -2
BITMAP
4000
C000
4000
4BC0
5280
6380
5200
4B80
0440
0440
0380
ENDCHAR
STARTCHAR uni339C
ENCODING 13212
SWIDTH 1000 0
DWIDTH 13 0
BBX 12 5 0 1
BITMAP
FDF0
5550
5550
5550
5550
ENDCHAR
STARTCHAR uni339D
ENCODING 13213
SWIDTH 1000 0
DWIDTH 13 0
BBX 10 5 1 1
BITMAP
77C0
9540
8540
8540
7540
ENDCHAR
STARTCHAR uni339E
ENCODING 13214
SWIDTH 1000 0
DWIDTH 13 0
BBX 10 8 1 1
BITMAP
8000
8000
8000
97C0
A540
C540
A540
9540
ENDCHAR
STARTCHAR uni33A1
ENCODING 13217
SWIDTH 1000 0
DWIDTH 13 0
BBX 9 9 2 1
BITMAP
0380
0280
0100
0380
FC00
5400
5400
5400
5400
ENDCHAR
STARTCHAR uni33C4
ENCODING 13252
SWIDTH 1000 0
DWIDTH 13 0
BBX 10 6 1 1
BITMAP
6180
9240
8200
8200
9240
6180
ENDCHAR
STARTCHAR uni33CE
ENCODING 13262
SWIDTH 1000 0
DWIDTH 13 0
BBX 10 8 1 1
BITMAP
9440
9440
A6C0
C6C0
A6C0
A540
9540
9540
ENDCHAR
STARTCHAR uni33D1
ENCODING 13265
SWIDTH 1000 0
DWIDTH 13 0
BBX 8 7 2 1
BITMAP
C0
40
5E
49
49
49
49
ENDCHAR
STARTCHAR uni33D2
ENCODING 13266
SWIDTH 1000 0
DWIDTH 13 0
BBX 12 10 0 -2
BITMAP
C000
4070
4CA0
52A0
5240
5280
ECE0
0110
0110
00E0
ENDCHAR
STARTCHAR uni33D5
ENCODING 13269
SWIDTH 1000 0
DWIDTH 13 0
BBX 11 8 0 1
BITMAP
0020
0160
0020
FD20
5520
5520
5520
5520
ENDCHAR
STARTCHAR uni4E00
ENCODING 19968
SWIDTH 1000 0
DWIDTH 13 0
BBX 12 2 0 4
BITMAP
0020
FFF0
ENDCHAR
STARTCHAR uni4E01
ENCODING 19969
SWIDTH 1000 0
DWIDTH 13 0
BBX 12 12 0 -2
BITMAP
0020
FFF0
0200
0200
0200
0200
0200
0200
0200
0200
1E00
0400
ENDCHAR
STARTCHAR uni4E02
ENCODING 19970
SWIDTH 1000 0
DWIDTH 13 0
BBX 12 12 0 -2
BITMAP
0020
FFF0
1000
1000
1000
3FC0
2040
0040
0040
0040
0480
0300
ENDCHAR
STARTCHAR uni4E03
ENCODING 19971
SWIDTH 1000 0
DWIDTH 13 0
BBX 12 11 0 -1
BITMAP
0800
0800
0800
0870
0F80
F800
0800
0820
0820
0830
0FE0
ENDCHAR
STARTCHAR uni4E04
ENCODING 19972
SWIDTH 1000 0
DWIDTH 13 0
BBX 12 12 0 -2
BITMAP
0400
0400
0400
0400
0400
0400
0400
0400
0400
0400
0400
FFF0
ENDCHAR
STARTCHAR uni4E05
ENCODING 19973
SWIDTH 1000 0
DWIDTH 13 0
BBX 12 12 0 -2
BITMAP
0020
FFF0
0400
0400
0400
0400
0400
0400
0400
0400
0400
0400
ENDCHAR
STARTCHAR uni4E06
ENCODING 19974
SWIDTH 1000 0
DWIDTH 13 0
BBX 12 12 0 -2
BITMAP
0020
FFF0
0800
0800
0800
0800
0800
1000
1000
2000
4000
8000
ENDCHAR
STARTCHAR uni4E07
ENCODING 19975
SWIDTH 1000 0
DWIDTH 13 0
BBX 12 12 0 -2
BITMAP
0020
FFF0
0800
0800
0800
0FC0
0840
0840
1040
2040
43C0
8080
ENDCHAR
STARTCHAR uni4E08
ENCODING 19976
SWIDTH 1000 0
DWIDTH 13 0
BBX 12 12 0 -2
BITMAP
0200
0200
0220
FFF0
0200
2200
1200
0A00
0400
0A00
1180
E070
ENDCHAR
STARTCHAR uni4E09
ENCODING 19977
SWIDTH 1000 0
DWIDTH 13 0
BBX 12 11 0 -1
BITMAP
0040
7FE0
0000
0000
0000
3FC0
0000
0000
0000
0020
FFF0
ENDCHAR
STARTCHAR uni4E0A
ENCODING 19978
SWIDTH 1000 0
DWIDTH 13 0
BBX 12 12 0 -2
BITMAP
0400
0400
0400
0400
07E0
0400
0400
0400
0400
0400
0420
FFF0
ENDCHAR
STARTCHAR uni4E0B
ENCODING 19979
SWIDTH 1000 0
DWIDTH 13 0
BBX 12 12 0 -2
BITMAP
0020
FFF0
0400
0400
0700
0480
0440
0400
0400
0400
0400
0400
ENDCHAR
STARTCHAR uni4E0C
ENCODING 19980
SWIDTH 1000 0
DWIDTH 13 0
BBX 12 12 0 -2
BITMAP
0020
FFF0
0880
0880
0880
0880
0880
1080
1080
2080
4080
8080
ENDCHAR
STARTCHAR uni4E0D
ENCODING 19981
SWIDTH 1000 0
DWIDTH 13 0
BBX 12 12 0 -2
BITMAP
0020
FFF0
0200
0600
0B80
1240
2220
C210
0200
0200
0200
0200
ENDCHAR
STARTCHAR uni4E0E
ENCODING 19982
SWIDTH 1000 0
DWIDTH 13 0
BBX 12 12 0 -2
BITMAP
2000
2020
3FF0
2000
3FE0
2020
0020
0120
FFA0
0020
0040
03C0
ENDCHAR
STARTCHAR uni4E0F
ENCODING 19983
SWIDTH 1000 0
DWIDTH 13 0
BBX 12 12 0 -2
BITMAP
0020
FFF0
0400
47E0
4420
4420
7FE0
4020
0020
0040
0240
0180
ENDCHAR
STARTCHAR uni4E10
ENCODING 19984
SWIDTH 1000 0
DWIDTH 13 0
BBX 12 12 0 -2
BITMAP
0020
FFF0
0400
27C0
2400
2400
7FE0
4020
0020
0020
0040
03C0
ENDCHAR
STARTCHAR uni4E11
ENCODING 19985
SWIDTH 1000 0
DWIDTH 13 0
BBX 12 12 0 -2
BITMAP
0080
3FC0
0880
0880
0880
FFF0
0880
0880
1080
1080
10A0
FFF0
ENDCHAR
STARTCHAR uni4E12
ENCODING 19986
SWIDTH 1000 0
DWIDTH 13 0
BBX 12 12 0 -2
BITMAP
0020
7FF0
0020
2220
1420
0820
1420
2220
C040
0180
0000
FFF0
ENDCHAR
STARTCHAR uni4E13
ENCODING 19987
SWIDTH 1000 0
DWIDTH 13 0
BBX 12 12 0 -2
BITMAP
0400
0440
7FE0
0800
FFF0
1000
3FC0
0040
0080
1900
0600
0100
ENDCHAR
STARTCHAR uni4E14
ENCODING 19988
SWIDTH 1000 0
DWIDTH 13 0
BBX 12 12 0 -2
BITMAP
2080
3FC0
2080
2080
3F80
2080
2080
3F80
2080
2080
20A0
FFF0
ENDCHAR
STARTCHAR uni4E15
ENCODING 19989
SWIDTH 1000 0
DWIDTH 13 0
BBX 12 12 0 -2
BITMAP
0020
FFF0
0200
0400
0D80
1440
2420
C410
0400
0400
0020
FFF0
ENDCHAR
STARTCHAR uni4E16
ENCODING 19990
SWIDTH 1000 0
DWIDTH 13 0
BBX 12 12 0 -2
BITMAP
0440
2440
2440
2440
FFF0
2440
2440
2440
27C0
2000
2020
3FF0
ENDCHAR
STARTCHAR uni4E17
ENCODING 19991
SWIDTH 1000 0
DWIDTH 13 0
BBX 12 12 0 -2
BITMAP
2440
2440
2440
2440
FFF0
2440
2440
2440
2440
2440
3FC0
2040
ENDCHAR
STARTCHAR uni4E18
ENCODING 19992
SWIDTH 1000 0
DWIDTH 13 0
BBX 12 12 0 -2
BITMAP
00C0
2300
3C00
2000
2000
3FE0
2100
2100
2100
2100
2120
FFF0
ENDCHAR
STARTCHAR uni4E19
ENCODING 19993
SWIDTH 1000 0
DWIDTH 13 0
BBX 12 12 0 -2
BITMAP
0020
FFF0
0200
4220
7FF0
4220
4520
48A0
7020
4020
4020
40E0
ENDCHAR
STARTCHAR uni4E1A
ENCODING 19994
SWIDTH 1000 0
DWIDTH 13 0
BBX 12 11 0 -1
BITMAP
0900
0900
0900
8920
4920
4920
2940
2940
2980
0900
FFF0
ENDCHAR
STARTCHAR uni4E1B
ENCODING 19995
SWIDTH 1000 0
DWIDTH 13 0
BBX 12 12 0 -2
BITMAP
2100
2100
2100
2100
2100
3180
2940
4A40
4420
8810
0000
FFF0
ENDCHAR
STARTCHAR uni4E1C
ENCODING 19996
SWIDTH 1000 0
DWIDTH 13 0
BBX 12 12 0 -2
BITMAP
0800
FFF0
1000
1200
2200
7FE0
0200
1280
1240
2220
4210
8600
ENDCHAR
STARTCHAR uni4E1D
ENCODING 19997
SWIDTH 1000 0
DWIDTH 13 0
BBX 12 12 0 -2
BITMAP
2080
2080
2120
4920
4A40
F3C0
1080
2100
7BE0
4200
0000
FFF0
ENDCHAR
STARTCHAR uni4E1E
ENCODING 19998
SWIDTH 1000 0
DWIDTH 13 0
BBX 12 12 0 -2
BITMAP
0080
3FC0
0100
0220
FA40
0B80
1280
2240
C230
0E00
0020
FFF0
ENDCHAR
STARTCHAR uni4E1F
ENCODING 19999
SWIDTH 1000 0
DWIDTH 13 0
BBX 12 12 0 -2
BITMAP
01E0
7E00
0200
7FE0
0200
0220
FFF0
0400
0880
1040
7FE0
4020
ENDCHAR
STARTCHAR uni4E20
ENCODING 20000
SWIDTH 1000 0
DWIDTH 13 0
BBX 12 12 0 -2
BITMAP
0900
0900
0900
F9F0
0900
0900
3900
C910
09F0
0800
0000
FFF0
ENDCHAR
STARTCHAR uni4E21
ENCODING 20001
SWIDTH 1000 0
DWIDTH 13 0
BBX 12 12 0 -2
BITMAP
FFF0
0200
0200
7FE0
4220
52A0
52A0
52A0
5FA0
50A0
4020
4060
ENDCHAR
STARTCHAR uni4E22
ENCODING 20002
SWIDTH 1000 0
DWIDTH 13 0
BBX 12 12 0 -2
BITMAP
03E0
7C00
0400
7FE0
0400
0410
FFF0
0400
0880
0840
13E0
7C20
ENDCHAR
STARTCHAR uni4E23
ENCODING 20003
SWIDTH 1000 0
DWIDTH 13 0
BBX 12 12 0 -2
BITMAP
0020
FFF0
0900
0900
79E0
4920
4920
79E0
0900
1100
2100
C100
ENDCHAR
STARTCHAR uni4E24
ENCODING 20004
SWIDTH 1000 0
DWIDTH 13 0
BBX 12 12 0 -2
BITMAP
FFF0
0900
0900
7FF0
4910
4910
5590
6250
4410
4010
4010
4030
ENDCHAR
STARTCHAR uni4E25
ENCODING 20005
SWIDTH 1000 0
DWIDTH 13 0
BBX 12 12 0 -2
BITMAP
FFF0
0900
4920
2940
7FF0
4000
4000
4000
4000
4000
8000
8000
ENDCHAR
STARTCHAR uni4E26
ENCODING 20006
SWIDTH 1000 0
DWIDTH 13 0
BBX 12 12 0 -2
BITMAP
1080
0880
0100
FFF0
0900
4920
2920
2940
2940
0900
0920
FFF0
ENDCHAR
STARTCHAR uni4E27
ENCODING 20007
SWIDTH 1000 0
DWIDTH 13 0
BBX 12 12 0 -2
BITMAP
0400
FFF0
0400
2440
1480
0400
FFF0
2220
2140
2080
2E40
7030
ENDCHAR
STARTCHAR uni4E28
ENCODING 20008
SWIDTH 1000 0
DWIDTH 13 0
BBX 1 12 6 -2
BITMAP
80
80
80
80
80
80
80
80
80
80
80
80
ENDCHAR
STARTCHAR uni4E29
ENCODING 20009
SWIDTH 1000 0
DWIDTH 13 0
BBX 7 12 2 -2
BITMAP
02
42
42
42
42
42
42
42
5E
E2
02
02
ENDCHAR
STARTCHAR uni4E2A
ENCODING 20010
SWIDTH 1000 0
DWIDTH 13 0
BBX 12 12 0 -2
BITMAP
0400
0600
0900
1080
2440
C430
0400
0400
0400
0400
0400
0400
ENDCHAR
STARTCHAR uni4E2B
ENCODING 20011
SWIDTH 1000 0
DWIDTH 13 0
BBX 9 12 2 -2
BITMAP
8080
4100
2200
1400
0800
0800
0800
0800
0800
0800
0800
0800
ENDCHAR
STARTCHAR uni4E2C
ENCODING 20012
SWIDTH 1000 0
DWIDTH 13 0
BBX 7 12 2 -2
BITMAP
02
42
22
22
12
12
02
0E
F2
42
02
02
ENDCHAR
STARTCHAR uni4E2D
ENCODING 20013
SWIDTH 1000 0
DWIDTH 13 0
BBX 10 12 1 -2
BITMAP
0400
0400
FFC0
8440
8440
8440
8440
FFC0
0400
0400
0400
0400
ENDCHAR
STARTCHAR uni4E2E
ENCODING 20014
SWIDTH 1000 0
DWIDTH 13 0
BBX 12 12 0 -2
BITMAP
0040
FFE0
0840
0840
7F40
0840
0840
FFC0
0850
0850
0830
0810
ENDCHAR
STARTCHAR uni4E2F
ENCODING 20015
SWIDTH 1000 0
DWIDTH 13 0
BBX 10 12 1 -2
BITMAP
0800
08C0
0F00
F800
09C0
FE00
0800
09C0
FE00
0800
0800
0800
ENDCHAR
STARTCHAR uni4E30
ENCODING 20016
SWIDTH 1000 0
DWIDTH 13 0
BBX 12 12 0 -2
BITMAP
0200
03E0
7E00
0200
0200
7FE0
0200
0200
FFF0
0200
0200
0200
ENDCHAR
STARTCHAR uni4E31
ENCODING 20017
SWIDTH 1000 0
DWIDTH 13 0
BBX 11 12 0 -2
BITMAP
0900
0900
4920
4920
4920
4920
79E0
4920
0900
1100
2100
C100
ENDCHAR
STARTCHAR uni4E32
ENCODING 20018
SWIDTH 1000 0
DWIDTH 13 0
BBX 11 12 1 -2
BITMAP
0400
4480
7FC0
4480
7F80
8440
FFE0
8440
FFC0
8440
0400
0400
ENDCHAR
STARTCHAR uni4E33
ENCODING 20019
SWIDTH 1000 0
DWIDTH 13 0
BBX 10 12 1 -2
BITMAP
1200
1200
7FC0
5240
7FC0
1200
FFC0
9240
FFC0
9240
2200
C200
ENDCHAR
STARTCHAR uni4E34
ENCODING 20020
SWIDTH 1000 0
DWIDTH 13 0
BBX 11 12 1 -2
BITMAP
2400
2400
A7E0
AA00
B100
A000
AFE0
A920
A920
A920
2FE0
2820
ENDCHAR
STARTCHAR uni4E35
ENCODING 20021
SWIDTH 1000 0
DWIDTH 13 0
BBX 12 12 0 -2
BITMAP
0900
4920
2940
FFF0
1080
7FE0
0200
0200
FFF0
0200
0200
0200
ENDCHAR
STARTCHAR uni4E36
ENCODING 20022
SWIDTH 1000 0
DWIDTH 13 0
BBX 4 4 4 2
BITMAP
80
40
30
10
ENDCHAR
STARTCHAR uni4E37
ENCODING 20023
SWIDTH 1000 0
DWIDTH 13 0
BBX 9 5 1 2
BITMAP
8080
4080
4100
2100
2200
ENDCHAR
STARTCHAR uni4E38
ENCODING 20024
SWIDTH 1000 0
DWIDTH 13 0
BBX 12 12 0 -2
BITMAP
0800
0800
FF80
0880
0880
2880
1880
0880
1490
2090
4090
80F0
ENDCHAR
STARTCHAR uni4E39
ENCODING 20025
SWIDTH 1000 0
DWIDTH 13 0
BBX 12 12 0 -2
BITMAP
2040
3FE0
2440
2240
2240
2040
FFF0
2040
2040
2040
4040
81C0
ENDCHAR
STARTCHAR uni4E3A
ENCODING 20026
SWIDTH 1000 0
DWIDTH 13 0
BBX 11 12 0 -2
BITMAP
4400
2400
0400
FFE0
0420
0820
0A20
1120
1020
2020
4240
8180
ENDCHAR
STARTCHAR uni4E3B
ENCODING 20027
SWIDTH 1000 0
DWIDTH 13 0
BBX 12 12 0 -2
BITMAP
0400
0200
FFE0
0200
0200
0200
3FC0
0200
0200
0200
0220
FFF0
ENDCHAR
STARTCHAR uni4E3C
ENCODING 20028
SWIDTH 1000 0
DWIDTH 13 0
BBX 12 12 0 -2
BITMAP
1080
10A0
FFF0
1080
1480
1280
1080
FFF0
1080
2080
4080
8080
ENDCHAR
STARTCHAR uni4E3D
ENCODING 20029
SWIDTH 1000 0
DWIDTH 13 0
BBX 12 12 0 -2
BITMAP
FBF0
0000
0000
F9F0
8910
8910
A990
9950
8910
8910
8910
9930
ENDCHAR
STARTCHAR uni4E3E
ENCODING 20030
SWIDTH 1000 0
DWIDTH 13 0
BBX 12 12 0 -2
BITMAP
4840
2440
1080
FFF0
1080
2440
5FA0
8410
7FE0
0400
0400
0400
ENDCHAR
STARTCHAR uni4E3F
ENCODING 20031
SWIDTH 1000 0
DWIDTH 13 0
BBX 5 12 2 -2
BITMAP
08
08
08
08
08
08
08
08
10
10
20
C0
ENDCHAR
STARTCHAR uni4E40
ENCODING 20032
SWIDTH 1000 0
DWIDTH 13 0
BBX 11 11 1 -2
BITMAP
4000
A000
A000
1000
1000
0800
0800
0400
0200
0180
0060
ENDCHAR
STARTCHAR uni4E41
ENCODING 20033
SWIDTH 1000 0
DWIDTH 13 0
BBX 9 11 3 -2
BITMAP
F800
0800
0800
0800
0800
0800
0400
0400
0200
0100
0080
ENDCHAR
STARTCHAR uni4E42
ENCODING 20034
SWIDTH 1000 0
DWIDTH 13 0
BBX 12 11 0 -2
BITMAP
2040
1080
1080
0900
0500
0200
0600
0900
1080
2040
C030
ENDCHAR
STARTCHAR uni4E43
ENCODING 20035
SWIDTH 1000 0
DWIDTH 13 0
BBX 12 11 0 -2
BITMAP
FF80
0880
0880
0920
09F0
0820
1020
1020
2020
43C0
8080
ENDCHAR
STARTCHAR uni4E44
ENCODING 20036
SWIDTH 1000 0
DWIDTH 13 0
BBX 8 10 1 -1
BITMAP
01
01
01
12
0A
04
0A
91
A0
C0
ENDCHAR
STARTCHAR uni4E45
ENCODING 20037
SWIDTH 1000 0
DWIDTH 13 0
BBX 12 12 0 -2
BITMAP
0800
0900
0F80
1100
2100
4100
0200
0500
0880
1040
2020
C010
ENDCHAR
STARTCHAR uni4E46
ENCODING 20038
SWIDTH 1000 0
DWIDTH 13 0
BBX 11 12 1 -2
BITMAP
1100
1100
1100
2100
2200
4200
FC00
0400
0A00
1100
2080
C060
ENDCHAR
STARTCHAR uni4E47
ENCODING 20039
SWIDTH 1000 0
DWIDTH 13 0
BBX 12 12 0 -2
BITMAP
0180
0600
7C00
0400
0430
07C0
FC00
0400
0410
0410
0410
03F0
ENDCHAR
STARTCHAR uni4E48
ENCODING 20040
SWIDTH 1000 0
DWIDTH 13 0
BBX 12 12 0 -2
BITMAP
0400
0400
0800
1080
2080
4100
8200
0480
0840
1020
7FF0
4010
ENDCHAR
STARTCHAR uni4E49
ENCODING 20041
SWIDTH 1000 0
DWIDTH 13 0
BBX 12 12 0 -2
BITMAP
4040
4040
2440
2280
1280
1100
0A00
0400
0A00
1100
20C0
C030
ENDCHAR
STARTCHAR uni4E4A
ENCODING 20042
SWIDTH 1000 0
DWIDTH 13 0
BBX 10 7 1 3
BITMAP
00C0
0F00
F000
8080
4080
2100
2200
ENDCHAR
STARTCHAR uni4E4B
ENCODING 20043
SWIDTH 1000 0
DWIDTH 13 0
BBX 12 11 0 -1
BITMAP
0400
0200
7FE0
0040
0080
0100
0200
2400
3800
5000
8FF0
ENDCHAR
STARTCHAR uni4E4C
ENCODING 20044
SWIDTH 1000 0
DWIDTH 13 0
BBX 12 12 0 -2
BITMAP
0400
3FC0
2040
2040
2180
2000
3FF0
0010
0010
FF90
0020
00C0
ENDCHAR
STARTCHAR uni4E4D
ENCODING 20045
SWIDTH 1000 0
DWIDTH 13 0
BBX 12 12 0 -2
BITMAP
1000
1020
1FF0
2400
4400
87E0
0400
0400
07E0
0400
0400
0400
ENDCHAR
STARTCHAR uni4E4E
ENCODING 20046
SWIDTH 1000 0
DWIDTH 13 0
BBX 12 12 0 -2
BITMAP
00E0
7F00
0220
2240
1280
0200
FFF0
0200
0200
0200
0200
1E00
ENDCHAR
STARTCHAR uni4E4F
ENCODING 20047
SWIDTH 1000 0
DWIDTH 13 0
BBX 12 12 0 -2
BITMAP
01E0
7E00
0400
0200
7FE0
0040
0180
0200
4C00
7000
DC00
83F0
ENDCHAR
STARTCHAR uni4E50
ENCODING 20048
SWIDTH 1000 0
DWIDTH 13 0
BBX 12 12 0 -2
BITMAP
01E0
7E00
4200
4200
4200
7FF0
0200
1240
2220
4210
8210
0E00
ENDCHAR
STARTCHAR uni4E51
ENCODING 20049
SWIDTH 1000 0
DWIDTH 13 0
BBX 12 12 0 -2
BITMAP
00E0
7F00
0400
0440
1480
2700
C500
1480
2440
4430
8400
0400
ENDCHAR
STARTCHAR uni4E52
ENCODING 20050
SWIDTH 1000 0
DWIDTH 13 0
BBX 12 12 0 -2
BITMAP
01C0
1E00
1000
1FE0
1080
1080
1080
10A0
FFF0
0800
3000
C000
ENDCHAR
STARTCHAR uni4E53
ENCODING 20051
SWIDTH 1000 0
DWIDTH 13 0
BBX 12 12 0 -2
BITMAP
01C0
1E00
1000
1FE0
1080
1080
1080
10A0
FFF0
0100
00C0
0020
ENDCHAR
STARTCHAR uni4E54
ENCODING 20052
SWIDTH 1000 0
DWIDTH 13 0
BBX 12 12 0 -2
BITMAP
03C0
7C00
0400
FFF0
1080
2040
50B0
9080
1080
1080
2080
4080
ENDCHAR
STARTCHAR uni4E55
ENCODING 20053
SWIDTH 1000 0
DWIDTH 13 0
BBX 12 12 0 -2
BITMAP
01E0
7E00
4200
7FF0
4200
7FF0
4200
5FE0
5220
5220
9260
8200
ENDCHAR
STARTCHAR uni4E56
ENCODING 20054
SWIDTH 1000 0
DWIDTH 13 0
BBX 12 12 0 -2
BITMAP
01C0
7E00
0220
FFF0
1280
12B0
F2C0
1280
1A90
E2F0
0200
0200
ENDCHAR
STARTCHAR uni4E57
ENCODING 20055
SWIDTH 1000 0
DWIDTH 13 0
BBX 12 12 0 -2
BITMAP
7FC0
0400
7FE0
2480
FFF0
2480
2480
FFF0
0D00
1480
2440
C430
ENDCHAR
STARTCHAR uni4E58
ENCODING 20056
SWIDTH 1000 0
DWIDTH 13 0
BBX 12 12 0 -2
BITMAP
01E0
7E00
0200
FFF0
1280
F2F0
1A80
E770
0A80
1240
E230
0200
ENDCHAR
STARTCHAR uni4E59
ENCODING 20057
SWIDTH 1000 0
DWIDTH 13 0
BBX 10 11 1 -1
BITMAP
0100
FF80
0200
0400
0800
1000
2000
4040
8040
8040
FFC0
ENDCHAR
STARTCHAR uni4E5A
ENCODING 20058
SWIDTH 1000 0
DWIDTH 13 0
BBX 8 12 2 -2
BITMAP
80
80
80
80
80
80
80
80
81
81
81
7F
ENDCHAR
STARTCHAR uni4E5B
ENCODING 20059
SWIDTH 1000 0
DWIDTH 13 0
BBX 12 3 0 3
BITMAP
FFF0
0020
0040
ENDCHAR
STARTCHAR uni4E5C
ENCODING 20060
SWIDTH 1000 0
DWIDTH 13 0
BBX 12 12 0 -2
BITMAP
2000
2060
23A0
3C20
E020
2020
2040
21C0
2090
2010
2010
1FF0
ENDCHAR
STARTCHAR uni4E5D
ENCODING 20061
SWIDTH 1000 0
DWIDTH 13 0
BBX 12 12 0 -2
BITMAP
0800
0800
0800
7F80
0880
0880
0880
1080
1090
2090
40F0
8000
ENDCHAR
STARTCHAR uni4E5E
ENCODING 20062
SWIDTH 1000 0
DWIDTH 13 0
BBX 12 12 0 -2
BITMAP
1000
1020
3FF0
2000
5F80
8100
0200
0400
0820
1020
2020
3FF0
ENDCHAR
STARTCHAR uni4E5F
ENCODING 20063
SWIDTH 1000 0
DWIDTH 13 0
BBX 12 12 0 -2
BITMAP
0200
2200
2260
27A0
3A20
E220
2220
2240
22C0
2010
2010
1FF0
ENDCHAR
STARTCHAR uni4E60
ENCODING 20064
SWIDTH 1000 0
DWIDTH 13 0
BBX 10 12 1 -2
BITMAP
0080
7FC0
0080
6080
1080
0880
0280
0C80
3080
C080
0080
0180
ENDCHAR
STARTCHAR uni4E61
ENCODING 20065
SWIDTH 1000 0
DWIDTH 13 0
BBX 9 12 1 -2
BITMAP
1000
1100
2100
4200
FC00
0880
1080
FF00
4200
0400
1800
E000
ENDCHAR
STARTCHAR uni4E62
ENCODING 20066
SWIDTH 1000 0
DWIDTH 13 0
BBX 12 12 0 -2
BITMAP
2200
2200
2200
AA00
AA00
AA00
AA00
AA00
AA10
FA10
8A10
01F0
ENDCHAR
STARTCHAR uni4E63
ENCODING 20067
SWIDTH 1000 0
DWIDTH 13 0
BBX 12 12 0 -2
BITMAP
1100
1100
2100
4500
8500
4900
2900
1100
2500
5D10
E510
00F0
ENDCHAR
STARTCHAR uni4E64
ENCODING 20068
SWIDTH 1000 0
DWIDTH 13 0
BBX 12 12 0 -2
BITMAP
0020
FFF0
0400
0700
04C0
7F00
0200
0C00
1000
2020
4020
3FE0
ENDCHAR
STARTCHAR uni4E65
ENCODING 20069
SWIDTH 1000 0
DWIDTH 13 0
BBX 10 12 1 -2
BITMAP
03C0
FC00
4080
2100
2200
FF00
0200
0C00
3040
4040
8040
FFC0
ENDCHAR
STARTCHAR uni4E66
ENCODING 20070
SWIDTH 1000 0
DWIDTH 13 0
BBX 12 12 0 -2
BITMAP
0880
0840
7FA0
0880
0880
FFF0
0810
0810
0810
0920
08C0
0800
ENDCHAR
STARTCHAR uni4E67
ENCODING 20071
SWIDTH 1000 0
DWIDTH 13 0
BBX 12 12 0 -2
BITMAP
0900
2500
1100
01F0
FF00
0100
7F80
0600
1800
2020
4020
3FE0
ENDCHAR
STARTCHAR uni4E68
ENCODING 20072
SWIDTH 1000 0
DWIDTH 13 0
BBX 12 12 0 -2
BITMAP
2100
2100
4900
4500
FD00
0500
0100
FD00
8500
8510
8510
FCF0
ENDCHAR
STARTCHAR uni4E69
ENCODING 20073
SWIDTH 1000 0
DWIDTH 13 0
BBX 11 12 1 -2
BITMAP
2200
2200
2200
3A00
2200
2200
FA00
8A00
8A00
8A20
FA20
8BE0
ENDCHAR
STARTCHAR uni4E6A
ENCODING 20074
SWIDTH 1000 0
DWIDTH 13 0
BBX 12 12 0 -2
BITMAP
0020
F7F0
1520
2520
2520
47E0
4520
4520
87E0
8420
8010
7FF0
ENDCHAR
STARTCHAR uni4E6B
ENCODING 20075
SWIDTH 1000 0
DWIDTH 13 0
BBX 11 12 0 -2
BITMAP
2000
FDE0
2520
2520
5DE0
8000
7F80
0600
1800
2020
4020
3FE0
ENDCHAR
STARTCHAR uni4E6C
ENCODING 20076
SWIDTH 1000 0
DWIDTH 13 0
BBX 11 12 1 -2
BITMAP
FFC0
8000
FF80
8080
FFC0
8000
7F00
0C00
3000
4020
8020
7FE0
ENDCHAR
STARTCHAR uni4E6D
ENCODING 20077
SWIDTH 1000 0
DWIDTH 13 0
BBX 12 12 0 -2
BITMAP
FFF0
1000
3FC0
D040
1FC0
0000
7F80
0600
1800
2010
4010
3FF0
ENDCHAR
STARTCHAR uni4E6E
ENCODING 20078
SWIDTH 1000 0
DWIDTH 13 0
BBX 11 12 0 -2
BITMAP
1BE0
6220
4A20
7A20
CA60
1200
7F80
0200
0C00
3020
4020
3FE0
ENDCHAR
STARTCHAR uni4E6F
ENCODING 20079
SWIDTH 1000 0
DWIDTH 13 0
BBX 12 12 0 -2
BITMAP
01E0
7E40
1280
FFF0
0200
0600
7F80
0200
0C00
3020
4020
3FE0
ENDCHAR
STARTCHAR uni4E70
ENCODING 20080
SWIDTH 1000 0
DWIDTH 13 0
BBX 12 12 0 -2
BITMAP
0020
FFF0
0020
1240
0A00
2200
1200
FFF0
0500
0880
3060
C020
ENDCHAR
STARTCHAR uni4E71
ENCODING 20081
SWIDTH 1000 0
DWIDTH 13 0
BBX 12 12 0 -2
BITMAP
1D00
F100
1100
FF00
1100
1100
7D00
4500
4500
4510
7D10
44F0
ENDCHAR
STARTCHAR uni4E72
ENCODING 20082
SWIDTH 1000 0
DWIDTH 13 0
BBX 12 12 0 -2
BITMAP
4200
27F0
0920
3280
C440
0830
7F80
0200
0C00
3020
4020
7FE0
ENDCHAR
STARTCHAR uni4E73
ENCODING 20083
SWIDTH 1000 0
DWIDTH 13 0
BBX 12 12 0 -2
BITMAP
0E80
F080
9280
5480
FC80
0480
1880
1680
F890
1090
1090
70F0
ENDCHAR
STARTCHAR uni4E74
ENCODING 20084
SWIDTH 1000 0
DWIDTH 13 0
BBX 12 12 0 -2
BITMAP
21E0
FA00
23F0
FA40
2240
6440
3F80
0600
1800
2020
4020
7FE0
ENDCHAR
STARTCHAR uni4E75
ENCODING 20085
SWIDTH 1000 0
DWIDTH 13 0
BBX 12 12 0 -2
BITMAP
1080
FE80
4480
2480
2880
FE80
1080
1080
FE90
1090
1090
1070
ENDCHAR
STARTCHAR uni4E76
ENCODING 20086
SWIDTH 1000 0
DWIDTH 13 0
BBX 12 12 0 -2
BITMAP
0440
FFF0
0400
7FC0
4440
7FC0
4440
3F80
0C00
3010
4010
7FF0
ENDCHAR
STARTCHAR uni4E77
ENCODING 20087
SWIDTH 1000 0
DWIDTH 13 0
BBX 12 12 0 -2
BITMAP
4100
A540
5520
2B50
C180
4600
3F80
0200
0C00
3010
4010
7FF0
ENDCHAR
STARTCHAR uni4E78
ENCODING 20088
SWIDTH 1000 0
DWIDTH 13 0
BBX 12 12 0 -2
BITMAP
11E0
5120
55A0
5D20
77F0
D520
5520
5FF0
5220
50D0
4010
3FF0
ENDCHAR
STARTCHAR uni4E79
ENCODING 20089
SWIDTH 1000 0
DWIDTH 13 0
BBX 12 12 0 -2
BITMAP
1100
FF00
1100
7D00
4500
7D00
4500
7D00
1100
FF10
1110
10F0
ENDCHAR
STARTCHAR uni4E7A
ENCODING 20090
SWIDTH 1000 0
DWIDTH 13 0
BBX 12 12 0 -2
BITMAP
7BE0
4200
7BF0
4A40
7A40
8440
7F80
0300
0C00
3020
4020
7FE0
ENDCHAR
STARTCHAR uni4E7B
ENCODING 20091
SWIDTH 1000 0
DWIDTH 13 0
BBX 12 12 0 -2
BITMAP
2080
FD40
42A0
7C50
4980
5040
BF80
0300
0C00
3010
4010
7FF0
ENDCHAR
STARTCHAR uni4E7C
ENCODING 20092
SWIDTH 1000 0
DWIDTH 13 0
BBX 12 12 0 -2
BITMAP
4100
AFF0
5100
27E0
E100
2FF0
0000
7F80
0C00
3010
4010
7FF0
ENDCHAR
STARTCHAR uni4E7D
ENCODING 20093
SWIDTH 1000 0
DWIDTH 13 0
BBX 12 12 0 -2
BITMAP
0440
3F80
0500
FFF0
3040
DFC0
0000
7F80
0C00
3010
4010
3FF0
ENDCHAR
STARTCHAR uni4E7E
ENCODING 20094
SWIDTH 1000 0
DWIDTH 13 0
BBX 12 12 0 -2
BITMAP
1100
FD20
11F0
7A00
4C00
79E0
4840
7880
1110
FE10
1210
11F0
ENDCHAR
STARTCHAR uni4E7F
ENCODING 20095
SWIDTH 1000 0
DWIDTH 13 0
BBX 12 12 0 -2
BITMAP
0E80
F280
5480
1080
2480
7880
1480
FE80
1090
5490
9290
10F0
ENDCHAR
STARTCHAR uni4E80
ENCODING 20096
SWIDTH 1000 0
DWIDTH 13 0
BBX 12 12 0 -2
BITMAP
1000
3F00
6200
BFC0
2440
3FC0
2440
7FE0
4420
7FE0
4410
03F0
ENDCHAR
STARTCHAR uni4E81
ENCODING 20097
SWIDTH 1000 0
DWIDTH 13 0
BBX 12 12 0 -2
BITMAP
2100
FD00
21F0
FA00
89E0
F820
8840
F880
2080
FD10
2110
20F0
ENDCHAR
STARTCHAR uni4E82
ENCODING 20098
SWIDTH 1000 0
DWIDTH 13 0
BBX 12 12 0 -2
BITMAP
0E80
F480
2880
7E80
1480
7E80
5280
7E80
6A90
5A90
6690
42F0
ENDCHAR
STARTCHAR uni4E83
ENCODING 20099
SWIDTH 1000 0
DWIDTH 13 0
BBX 12 12 0 -2
BITMAP
4A40
2C40
FF40
2C40
CB40
2A40
7F40
5240
DA50
2F50
4250
8270
ENDCHAR
STARTCHAR uni4E84
ENCODING 20100
SWIDTH 1000 0
DWIDTH 13 0
BBX 12 12 0 -2
BITMAP
1080
FE80
1080
FE80
8280
7C80
0080
7C80
4480
7C90
2E90
F070
ENDCHAR
STARTCHAR uni4E85
ENCODING 20101
SWIDTH 1000 0
DWIDTH 13 0
BBX 3 12 4 -2
BITMAP
20
20
20
20
20
20
20
20
20
20
A0
40
ENDCHAR
STARTCHAR uni4E86
ENCODING 20102
SWIDTH 1000 0
DWIDTH 13 0
BBX 10 12 1 -2
BITMAP
0080
FFC0
0100
0200
0400
0400
0400
0400
0400
0400
0400
3C00
ENDCHAR
STARTCHAR uni4E87
ENCODING 20103
SWIDTH 1000 0
DWIDTH 13 0
BBX 12 12 0 -2
BITMAP
2000
2000
3FF0
4200
4200
8200
0200
0200
0200
0200
0200
0600
ENDCHAR
STARTCHAR uni4E88
ENCODING 20104
SWIDTH 1000 0
DWIDTH 13 0
BBX 12 12 0 -2
BITMAP
0040
3FE0
0880
0500
0220
FFF0
0240
0280
0200
0200
0200
1E00
ENDCHAR
STARTCHAR uni4E89
ENCODING 20105
SWIDTH 1000 0
DWIDTH 13 0
BBX 12 12 0 -2
BITMAP
1000
1F00
2200
FFE0
0420
FFF0
0420
7FE0
0420
0400
0400
0C00
ENDCHAR
STARTCHAR uni4E8A
ENCODING 20106
SWIDTH 1000 0
DWIDTH 13 0
BBX 12 12 0 -2
BITMAP
0400
FFF0
2440
1480
7FC0
0440
FFF0
0440
7FC0
0440
0400
0C00
ENDCHAR
STARTCHAR uni4E8B
ENCODING 20107
SWIDTH 1000 0
DWIDTH 13 0
BBX 12 12 0 -2
BITMAP
0420
FFF0
0400
3FC0
2440
7FE0
0420
FFF0
0420
7FE0
0400
1C00
ENDCHAR
STARTCHAR uni4E8C
ENCODING 20108
SWIDTH 1000 0
DWIDTH 13 0
BBX 12 10 0 -1
BITMAP
0040
7FE0
0000
0000
0000
0000
0000
0000
0020
FFF0
ENDCHAR
STARTCHAR uni4E8D
ENCODING 20109
SWIDTH 1000 0
DWIDTH 13 0
BBX 12 12 0 -2
BITMAP
0040
7FE0
0000
0000
FFF0
0200
0200
0200
0200
0200
0200
0E00
ENDCHAR
STARTCHAR uni4E8E
ENCODING 20110
SWIDTH 1000 0
DWIDTH 13 0
BBX 12 12 0 -2
BITMAP
0040
7FE0
0200
0200
0220
FFF0
0200
0200
0200
0200
0200
1E00
ENDCHAR
STARTCHAR uni4E8F
ENCODING 20111
SWIDTH 1000 0
DWIDTH 13 0
BBX 12 12 0 -2
BITMAP
3FE0
0000
0000
FFF0
1000
1000
3FC0
4040
0040
0040
1880
0700
ENDCHAR
STARTCHAR uni4E90
ENCODING 20112
SWIDTH 1000 0
DWIDTH 13 0
BBX 12 12 0 -2
BITMAP
0040
7FE0
0800
FFF0
1000
1000
3FC0
2040
0040
0040
0480
0300
ENDCHAR
STARTCHAR uni4E91
ENCODING 20113
SWIDTH 1000 0
DWIDTH 13 0
BBX 12 12 0 -2
BITMAP
0040
7FE0
0000
0000
FFF0
0400
0400
0880
0840
1040
7FE0
4020
ENDCHAR
STARTCHAR uni4E92
ENCODING 20114
SWIDTH 1000 0
DWIDTH 13 0
BBX 12 12 0 -2
BITMAP
0020
7FF0
0800
0800
1FC0
1080
1080
3F80
2080
0100
0120
FFF0
ENDCHAR
STARTCHAR uni4E93
ENCODING 20115
SWIDTH 1000 0
DWIDTH 13 0
BBX 12 12 0 -2
BITMAP
0040
7FE0
0000
0020
FFF0
1080
1080
1080
1080
1080
2080
C080
ENDCHAR
STARTCHAR uni4E94
ENCODING 20116
SWIDTH 1000 0
DWIDTH 13 0
BBX 12 12 0 -2
BITMAP
0040
7FE0
0400
0400
0400
7F80
0880
0880
1080
1080
10A0
FFF0
ENDCHAR
STARTCHAR uni4E95
ENCODING 20117
SWIDTH 1000 0
DWIDTH 13 0
BBX 12 12 0 -2
BITMAP
0880
0880
08A0
FFF0
0880
0880
0880
FFF0
1080
1080
2080
C080
ENDCHAR
STARTCHAR uni4E96
ENCODING 20118
SWIDTH 1000 0
DWIDTH 13 0
BBX 12 12 0 -2
BITMAP
0040
7FE0
0000
0000
FFF0
0000
0000
7FE0
0000
0000
0020
FFF0
ENDCHAR
STARTCHAR uni4E97
ENCODING 20119
SWIDTH 1000 0
DWIDTH 13 0
BBX 12 12 0 -2
BITMAP
4420
4420
4420
4420
7FE0
0000
0000
7FE0
0000
0000
0000
FFF0
ENDCHAR
STARTCHAR uni4E98
ENCODING 20120
SWIDTH 1000 0
DWIDTH 13 0
BBX 12 12 0 -2
BITMAP
FFF0
0000
0000
3FC0
2040
3FC0
2040
2040
3FC0
0000
0000
FFF0
ENDCHAR
STARTCHAR uni4E99
ENCODING 20121
SWIDTH 1000 0
DWIDTH 13 0
BBX 12 12 0 -2
BITMAP
0020
FFF0
0800
0FC0
1040
1F40
1040
2080
3F80
0080
00A0
FFF0
ENDCHAR
STARTCHAR uni4E9A
ENCODING 20122
SWIDTH 1000 0
DWIDTH 13 0
BBX 12 12 0 -2
BITMAP
0020
FFF0
0900
0920
4920
4920
2940
2940
2980
0900
0920
FFF0
ENDCHAR
STARTCHAR uni4E9B
ENCODING 20123
SWIDTH 1000 0
DWIDTH 13 0
BBX 12 12 0 -2
BITMAP
1100
1100
5160
5D80
5100
5D10
71F0
C000
1F80
0000
0020
FFF0
ENDCHAR
STARTCHAR uni4E9C
ENCODING 20124
SWIDTH 1000 0
DWIDTH 13 0
BBX 12 12 0 -2
BITMAP
FFF0
0900
0900
7FE0
4920
4920
4920
7FE0
0900
0900
0900
FFF0
ENDCHAR
STARTCHAR uni4E9D
ENCODING 20125
SWIDTH 1000 0
DWIDTH 13 0
BBX 12 12 0 -2
BITMAP
0C00
1040
7FE0
0000
2080
4910
FDF0
0000
3FE0
0000
0000
FFF0
ENDCHAR
STARTCHAR uni4E9E
ENCODING 20126
SWIDTH 1000 0
DWIDTH 13 0
BBX 12 12 0 -2
BITMAP
0020
FFF0
0900
0900
79E0
4020
4020
79E0
0900
0900
0920
FFF0
ENDCHAR
STARTCHAR uni4E9F
ENCODING 20127
SWIDTH 1000 0
DWIDTH 13 0
BBX 12 12 0 -2
BITMAP
0020
FFF0
1000
1E20
03F0
7AA0
4AA0
4A40
7AA0
0B10
0400
FFF0
ENDCHAR
STARTCHAR uni4EA0
ENCODING 20128
SWIDTH 1000 0
DWIDTH 13 0
BBX 12 4 0 5
BITMAP
0800
0400
0000
FFF0
ENDCHAR
STARTCHAR uni4EA1
ENCODING 20129
SWIDTH 1000 0
DWIDTH 13 0
BBX 12 11 0 -1
BITMAP
0800
0400
0220
FFF0
2000
2000
2000
2000
2000
2000
3FE0
ENDCHAR
STARTCHAR uni4EA2
ENCODING 20130
SWIDTH 1000 0
DWIDTH 13 0
BBX 12 12 0 -2
BITMAP
0400
0220
FFF0
0000
1080
1F80
1080
1080
1090
1090
2090
C0F0
ENDCHAR
STARTCHAR uni4EA3
ENCODING 20131
SWIDTH 1000 0
DWIDTH 13 0
BBX 12 12 0 -2
BITMAP
0200
0200
FFF0
1080
1080
1080
1080
1080
1080
2080
4080
8080
ENDCHAR
STARTCHAR uni4EA4
ENCODING 20132
SWIDTH 1000 0
DWIDTH 13 0
BBX 12 12 0 -2
BITMAP
0400
0220
FFF0
0880
1040
21A0
C900
0900
0600
0600
1980
E070
ENDCHAR
STARTCHAR uni4EA5
ENCODING 20133
SWIDTH 1000 0
DWIDTH 13 0
BBX 12 12 0 -2
BITMAP
0400
0220
FFF0
0800
1080
3F00
0240
0C80
1100
6680
1840
E020
ENDCHAR
STARTCHAR uni4EA6
ENCODING 20134
SWIDTH 1000 0
DWIDTH 13 0
BBX 12 12 0 -2
BITMAP
0400
0220
FFF0
0900
0900
2940
2920
4910
9110
1100
2100
C700
ENDCHAR
STARTCHAR uni4EA7
ENCODING 20135
SWIDTH 1000 0
DWIDTH 13 0
BBX 12 12 0 -2
BITMAP
0200
FFF0
1080
0900
7FF0
4000
4000
4000
4000
4000
8000
8000
ENDCHAR
STARTCHAR uni4EA8
ENCODING 20136
SWIDTH 1000 0
DWIDTH 13 0
BBX 12 12 0 -2
BITMAP
0200
FFF0
0000
1FC0
1040
1FC0
0000
7FE0
0100
0200
0200
1E00
ENDCHAR
STARTCHAR uni4EA9
ENCODING 20137
SWIDTH 1000 0
DWIDTH 13 0
BBX 12 12 0 -2
BITMAP
0400
0420
FFF0
0000
7FE0
4420
4420
7FE0
4420
4420
7FE0
4020
ENDCHAR
STARTCHAR uni4EAA
ENCODING 20138
SWIDTH 1000 0
DWIDTH 13 0
BBX 12 12 0 -2
BITMAP
0200
FFF0
0900
2940
4920
8910
0000
3F80
0080
0080
0040
0030
ENDCHAR
STARTCHAR uni4EAB
ENCODING 20139
SWIDTH 1000 0
DWIDTH 13 0
BBX 12 12 0 -2
BITMAP
0420
FFF0
0000
3FC0
2040
2040
7FC0
0100
FFF0
0200
0200
0E00
ENDCHAR
STARTCHAR uni4EAC
ENCODING 20140
SWIDTH 1000 0
DWIDTH 13 0
BBX 12 12 0 -2
BITMAP
0400
0220
FFF0
0000
3FC0
2040
3FC0
0200
1280
2240
C220
0E00
ENDCHAR
STARTCHAR uni4EAD
ENCODING 20141
SWIDTH 1000 0
DWIDTH 13 0
BBX 12 12 0 -2
BITMAP
0400
FFF0
0000
1FC0
1040
1FC0
7FF0
C020
3FC0
0200
0200
0E00
ENDCHAR
STARTCHAR uni4EAE
ENCODING 20142
SWIDTH 1000 0
DWIDTH 13 0
BBX 12 12 0 -2
BITMAP
0420
FFF0
0000
1F80
1080
5FA0
7FF0
C020
0900
0910
1110
61F0
ENDCHAR
STARTCHAR uni4EAF
ENCODING 20143
SWIDTH 1000 0
DWIDTH 13 0
BBX 12 12 0 -2
BITMAP
0200
FFF0
0000
3FC0
2040
3FC0
0000
7FE0
4020
7FE0
4020
7FE0
ENDCHAR
STARTCHAR uni4EB0
ENCODING 20144
SWIDTH 1000 0
DWIDTH 13 0
BBX 12 12 0 -2
BITMAP
0200
FFF0
0000
3FC0
2040
3FC0
2040
3FC0
1240
2220
C210
0600
ENDCHAR
STARTCHAR uni4EB1
ENCODING 20145
SWIDTH 1000 0
DWIDTH 13 0
BBX 12 12 0 -2
BITMAP
0200
FFF0
0000
2FE0
2820
4820
CFE0
4820
4FE0
4820
4000
5FF0
ENDCHAR
STARTCHAR uni4EB2
ENCODING 20146
SWIDTH 1000 0
DWIDTH 13 0
BBX 12 12 0 -2
BITMAP
0400
7FE0
1080
0900
FFF0
0000
0400
7FE0
0D00
34C0
C430
0400
ENDCHAR
STARTCHAR uni4EB3
ENCODING 20147
SWIDTH 1000 0
DWIDTH 13 0
BBX 12 12 0 -2
BITMAP
0400
FFF0
0000
1FC0
1040
7FF0
41A0
BE00
04C0
7F10
0410
07F0
ENDCHAR
STARTCHAR uni4EB4
ENCODING 20148
SWIDTH 1000 0
DWIDTH 13 0
BBX 12 12 0 -2
BITMAP
0200
FFF0
1080
7FE0
4220
5FA0
4260
3FC0
0400
3F80
0890
F0F0
ENDCHAR
STARTCHAR uni4EB5
ENCODING 20149
SWIDTH 1000 0
DWIDTH 13 0
BBX 12 12 0 -2
BITMAP
0200
FFF0
2100
FBE0
2120
FB20
22B0
6410
1A60
F180
1E40
7030
ENDCHAR
STARTCHAR uni4EB6
ENCODING 20150
SWIDTH 1000 0
DWIDTH 13 0
BBX 12 12 0 -2
BITMAP
0200
FFF0
0000
3FE0
2F20
2920
3FE0
1FC0
1040
1FC0
1040
FFF0
ENDCHAR
STARTCHAR uni4EB7
ENCODING 20151
SWIDTH 1000 0
DWIDTH 13 0
BBX 12 12 0 -2
BITMAP
0400
FFF0
1080
FFE0
8940
BFF0
8940
BFC0
8900
99C0
E930
8900
ENDCHAR
STARTCHAR uni4EB8
ENCODING 20152
SWIDTH 1000 0
DWIDTH 13 0
BBX 12 12 0 -2
BITMAP
1220
FD20
0140
7BF0
4A90
7BF0
0290
7BF0
1080
FBF0
1080
3080
ENDCHAR
STARTCHAR uni4EB9
ENCODING 20153
SWIDTH 1000 0
DWIDTH 13 0
BBX 12 12 0 -2
BITMAP
0200
FFF0
2F60
4920
6F60
4D20
FFF0
9FA0
1080
1F80
1080
FFF0
ENDCHAR
STARTCHAR uni4EBA
ENCODING 20154
SWIDTH 1000 0
DWIDTH 13 0
BBX 12 12 0 -2
BITMAP
0400
0400
0400
0400
0400
0400
0A00
0900
1100
1080
2040
C030
ENDCHAR
STARTCHAR uni4EBB
ENCODING 20155
SWIDTH 1000 0
DWIDTH 13 0
BBX 6 12 2 -2
BITMAP
04
04
08
10
30
50
90
10
10
10
10
10
ENDCHAR
STARTCHAR uni4EBC
ENCODING 20156
SWIDTH 1000 0
DWIDTH 13 0
BBX 12 6 0 2
BITMAP
0400
0A00
1100
20C0
C030
3FC0
ENDCHAR
STARTCHAR uni4EBD
ENCODING 20157
SWIDTH 1000 0
DWIDTH 13 0
BBX 12 11 0 -1
BITMAP
0400
0400
0A00
1100
2080
4040
8830
0400
0200
0100
0100
ENDCHAR
STARTCHAR uni4EBE
ENCODING 20158
SWIDTH 1000 0
DWIDTH 13 0
BBX 12 12 0 -2
BITMAP
8200
8200
8200
8200
8200
8500
8480
8840
9020
A010
8000
7FF0
ENDCHAR
STARTCHAR uni4EBF
ENCODING 20159
SWIDTH 1000 0
DWIDTH 13 0
BBX 12 12 0 -2
BITMAP
1000
1FE0
2040
2080
6100
A200
2400
2400
2810
2810
2810
27F0
ENDCHAR
STARTCHAR uni4EC0
ENCODING 20160
SWIDTH 1000 0
DWIDTH 13 0
BBX 12 12 0 -2
BITMAP
1100
1100
2100
2100
6120
BFF0
2100
2100
2100
2100
2100
2100
ENDCHAR
STARTCHAR uni4EC1
ENCODING 20161
SWIDTH 1000 0
DWIDTH 13 0
BBX 12 12 0 -2
BITMAP
1000
2000
2FE0
6000
6000
A000
2000
2000
2000
2020
3FF0
2000
ENDCHAR
STARTCHAR uni4EC2
ENCODING 20162
SWIDTH 1000 0
DWIDTH 13 0
BBX 12 12 0 -2
BITMAP
1100
1100
2120
2FF0
6120
A120
2120
2120
2220
2220
25E0
2840
ENDCHAR
STARTCHAR uni4EC3
ENCODING 20163
SWIDTH 1000 0
DWIDTH 13 0
BBX 12 12 0 -2
BITMAP
2020
2FF0
2080
6080
6080
A080
2080
2080
2080
2080
2080
2380
ENDCHAR
STARTCHAR uni4EC4
ENCODING 20164
SWIDTH 1000 0
DWIDTH 13 0
BBX 12 12 0 -2
BITMAP
4020
7FF0
4200
4200
4200
4200
4200
4500
4480
4840
9020
6010
ENDCHAR
STARTCHAR uni4EC5
ENCODING 20165
SWIDTH 1000 0
DWIDTH 13 0
BBX 12 12 0 -2
BITMAP
1000
1FE0
2820
6820
A440
2440
2440
2280
2100
2280
2440
3830
ENDCHAR
STARTCHAR uni4EC6
ENCODING 20166
SWIDTH 1000 0
DWIDTH 13 0
BBX 12 12 0 -2
BITMAP
0900
0900
1100
1100
3180
5140
9120
1110
1100
1100
1100
1100
ENDCHAR
STARTCHAR uni4EC7
ENCODING 20167
SWIDTH 1000 0
DWIDTH 13 0
BBX 12 12 0 -2
BITMAP
1200
1200
2200
2FC0
6240
A240
2240
2240
2450
2450
2850
3070
ENDCHAR
STARTCHAR uni4EC8
ENCODING 20168
SWIDTH 1000 0
DWIDTH 13 0
BBX 12 12 0 -2
BITMAP
1080
23C0
2080
6480
A480
A480
2440
2440
2840
2820
2820
3010
ENDCHAR
STARTCHAR uni4EC9
ENCODING 20169
SWIDTH 1000 0
DWIDTH 13 0
BBX 12 12 0 -2
BITMAP
1440
17E0
2440
2440
6440
A440
2440
2440
2450
2450
2850
3070
ENDCHAR
STARTCHAR uni4ECA
ENCODING 20170
SWIDTH 1000 0
DWIDTH 13 0
BBX 12 12 0 -2
BITMAP
0200
0600
0900
1080
2440
C230
0000
7FC0
0080
0080
0100
0100
ENDCHAR
STARTCHAR uni4ECB
ENCODING 20171
SWIDTH 1000 0
DWIDTH 13 0
BBX 12 12 0 -2
BITMAP
0400
0600
0900
1080
2040
D0B0
1080
1080
1080
2080
2080
4080
ENDCHAR
STARTCHAR uni4ECC
ENCODING 20172
SWIDTH 1000 0
DWIDTH 13 0
BBX 12 12 0 -2
BITMAP
0400
0400
0A00
1100
20C0
C430
0400
0400
0A00
1100
20C0
C030
ENDCHAR
STARTCHAR uni4ECD
ENCODING 20173
SWIDTH 1000 0
DWIDTH 13 0
BBX 12 12 0 -2
BITMAP
1040
1FE0
2240
2240
62F0
A290
2210
2410
2410
2420
29E0
3040
ENDCHAR
STARTCHAR uni4ECE
ENCODING 20174
SWIDTH 1000 0
DWIDTH 13 0
BBX 12 12 0 -2
BITMAP
2100
2100
2100
2100
2100
2100
3180
2940
4A40
4420
8820
1010
ENDCHAR
STARTCHAR uni4ECF
ENCODING 20175
SWIDTH 1000 0
DWIDTH 13 0
BBX 12 12 0 -2
BITMAP
1100
1100
2100
2100
6200
A200
2200
2220
2420
2410
2FF0
2000
ENDCHAR
STARTCHAR uni4ED0
ENCODING 20176
SWIDTH 1000 0
DWIDTH 13 0
BBX 12 12 0 -2
BITMAP
0400
0A00
1100
2480
4440
8430
7FE0
0400
0400
0400
0400
0400
ENDCHAR
STARTCHAR uni4ED1
ENCODING 20177
SWIDTH 1000 0
DWIDTH 13 0
BBX 12 12 0 -2
BITMAP
0400
0600
0900
1080
2040
D030
11C0
1E00
1000
1020
1020
0FE0
ENDCHAR
STARTCHAR uni4ED2
ENCODING 20178
SWIDTH 1000 0
DWIDTH 13 0
BBX 12 12 0 -2
BITMAP
0400
0400
0A00
1100
2080
4440
8330
0100
0800
0400
0300
0100
ENDCHAR
STARTCHAR uni4ED3
ENCODING 20179
SWIDTH 1000 0
DWIDTH 13 0
BBX 12 12 0 -2
BITMAP
0400
0600
0900
1080
2040
DFB0
1080
1080
1380
1020
1020
0FE0
ENDCHAR
STARTCHAR uni4ED4
ENCODING 20180
SWIDTH 1000 0
DWIDTH 13 0
BBX 12 12 0 -2
BITMAP
2000
2FE0
2040
4180
4100
DFF0
4100
4100
4100
4100
4100
4700
ENDCHAR
STARTCHAR uni4ED5
ENCODING 20181
SWIDTH 1000 0
DWIDTH 13 0
BBX 12 12 0 -2
BITMAP
1100
2100
2100
6100
6FF0
A100
2100
2100
2100
2100
2100
2FF0
ENDCHAR
STARTCHAR uni4ED6
ENCODING 20182
SWIDTH 1000 0
DWIDTH 13 0
BBX 12 12 0 -2
BITMAP
2100
2100
2920
49E0
5F20
C920
4920
4920
4960
4910
4810
47F0
ENDCHAR
STARTCHAR uni4ED7
ENCODING 20183
SWIDTH 1000 0
DWIDTH 13 0
BBX 12 12 0 -2
BITMAP
1080
1080
2080
2FF0
6080
A080
2900
2500
2200
2300
24C0
3830
ENDCHAR
STARTCHAR uni4ED8
ENCODING 20184
SWIDTH 1000 0
DWIDTH 13 0
BBX 12 12 0 -2
BITMAP
1040
1040
2040
2FF0
6040
A440
2240
2240
2040
2040
2040
23C0
ENDCHAR
STARTCHAR uni4ED9
ENCODING 20185
SWIDTH 1000 0
DWIDTH 13 0
BBX 11 12 0 -2
BITMAP
2100
2100
2100
4920
4920
C920
4920
4920
4920
4920
4FE0
4820
ENDCHAR
STARTCHAR uni4EDA
ENCODING 20186
SWIDTH 1000 0
DWIDTH 13 0
BBX 12 12 0 -2
BITMAP
0400
0600
0900
10C0
2430
C400
0420
4420
4420
4420
7FE0
4020
ENDCHAR
STARTCHAR uni4EDB
ENCODING 20187
SWIDTH 1000 0
DWIDTH 13 0
BBX 12 12 0 -2
BITMAP
1060
1180
2E00
2200
6200
A3F0
3E00
2200
2200
2210
2210
21F0
ENDCHAR
STARTCHAR uni4EDC
ENCODING 20188
SWIDTH 1000 0
DWIDTH 13 0
BBX 12 12 0 -2
BITMAP
1000
1020
2FF0
6100
6100
A100
2100
2100
2100
2100
3FF0
2000
ENDCHAR
STARTCHAR uni4EDD
ENCODING 20189
SWIDTH 1000 0
DWIDTH 13 0
BBX 12 11 0 -1
BITMAP
0400
0A00
1100
2080
4040
BFB0
0400
0400
0400
0420
FFF0
ENDCHAR
STARTCHAR uni4EDE
ENCODING 20190
SWIDTH 1000 0
DWIDTH 13 0
BBX 12 12 0 -2
BITMAP
1000
2FF0
2120
2120
6520
A520
2920
2120
2220
2220
25E0
2840
ENDCHAR
STARTCHAR uni4EDF
ENCODING 20191
SWIDTH 1000 0
DWIDTH 13 0
BBX 12 12 0 -2
BITMAP
1060
1780
2100
2100
6120
BFF0
2100
2100
2100
2100
2100
2100
ENDCHAR
STARTCHAR uni4EE0
ENCODING 20192
SWIDTH 1000 0
DWIDTH 13 0
BBX 12 12 0 -2
BITMAP
1000
17F0
2080
6080
A080
2FF0
2080
2080
2080
2080
2080
2080
ENDCHAR
STARTCHAR uni4EE1
ENCODING 20193
SWIDTH 1000 0
DWIDTH 13 0
BBX 12 12 0 -2
BITMAP
1200
1220
27F0
6800
6000
A7C0
2080
2100
2210
2410
2410
27F0
ENDCHAR
STARTCHAR uni4EE2
ENCODING 20194
SWIDTH 1000 0
DWIDTH 13 0
BBX 12 12 0 -2
BITMAP
1200
1200
27F0
2410
6810
B210
2110
2110
2010
2010
2120
20C0
ENDCHAR
STARTCHAR uni4EE3
ENCODING 20195
SWIDTH 1000 0
DWIDTH 13 0
BBX 12 12 0 -2
BITMAP
1100
1140
2120
21F0
6F00
A100
2100
2100
2090
2090
2050
2030
ENDCHAR
STARTCHAR uni4EE4
ENCODING 20196
SWIDTH 1000 0
DWIDTH 13 0
BBX 12 12 0 -2
BITMAP
0400
0600
0900
1080
2440
C230
3FC0
0080
0100
1A00
0600
0100
ENDCHAR
STARTCHAR uni4EE5
ENCODING 20197
SWIDTH 1000 0
DWIDTH 13 0
BBX 12 11 0 -2
BITMAP
2840
2440
2240
2240
2040
2040
2240
24C0
3920
E210
4C10
ENDCHAR
STARTCHAR uni4EE6
ENCODING 20198
SWIDTH 1000 0
DWIDTH 13 0
BBX 12 12 0 -2
BITMAP
2100
2100
2100
4540
4520
C920
4910
5110
5110
4100
4100
4300
ENDCHAR
STARTCHAR uni4EE7
ENCODING 20199
SWIDTH 1000 0
DWIDTH 13 0
BBX 12 12 0 -2
BITMAP
0400
0400
07E0
0400
0400
FFF0
0000
0400
0600
0900
1080
E070
ENDCHAR
STARTCHAR uni4EE8
ENCODING 20200
SWIDTH 1000 0
DWIDTH 13 0
BBX 12 12 0 -2
BITMAP
1020
17F0
2000
6000
A000
2FE0
2000
2000
2000
2020
2FF0
2000
ENDCHAR
STARTCHAR uni4EE9
ENCODING 20201
SWIDTH 1000 0
DWIDTH 13 0
BBX 12 12 0 -2
BITMAP
1200
1200
2200
6200
63E0
A200
2200
2200
2200
2200
3FF0
2000
ENDCHAR
STARTCHAR uni4EEA
ENCODING 20202
SWIDTH 1000 0
DWIDTH 13 0
BBX 12 12 0 -2
BITMAP
1040
1240
2940
2940
6440
A440
2280
2280
2100
2280
2440
3830
ENDCHAR
STARTCHAR uni4EEB
ENCODING 20203
SWIDTH 1000 0
DWIDTH 13 0
BBX 12 12 0 -2
BITMAP
1100
1100
2200
2200
6480
A480
2900
3100
2240
2220
2FF0
2810
ENDCHAR
STARTCHAR uni4EEC
ENCODING 20204
SWIDTH 1000 0
DWIDTH 13 0
BBX 12 12 0 -2
BITMAP
1400
1AF0
2810
2810
6810
A810
2810
2810
2810
2810
2850
2820
ENDCHAR
STARTCHAR uni4EED
ENCODING 20205
SWIDTH 1000 0
DWIDTH 13 0
BBX 12 12 0 -2
BITMAP
1000
1FE0
2120
2520
6D20
A520
2220
2320
24A0
2470
2840
3180
ENDCHAR
STARTCHAR uni4EEE
ENCODING 20206
SWIDTH 1000 0
DWIDTH 13 0
BBX 12 12 0 -2
BITMAP
2020
2FF0
4800
4FE0
CA20
4A20
4A40
4940
4880
4940
5220
5410
ENDCHAR
STARTCHAR uni4EEF
ENCODING 20207
SWIDTH 1000 0
DWIDTH 13 0
BBX 12 12 0 -2
BITMAP
2080
2080
22C0
42A0
4490
C480
4890
41A0
4040
4080
4300
4C00
ENDCHAR
STARTCHAR uni4EF0
ENCODING 20208
SWIDTH 1000 0
DWIDTH 13 0
BBX 12 12 0 -2
BITMAP
2280
2CF0
2890
4890
4890
C890
4890
4A90
4CF0
5080
4080
4080
ENDCHAR
STARTCHAR uni4EF1
ENCODING 20209
SWIDTH 1000 0
DWIDTH 13 0
BBX 12 12 0 -2
BITMAP
1100
1100
2280
2440
6A20
B110
2040
2FE0
2040
2040
2080
2080
ENDCHAR
STARTCHAR uni4EF2
ENCODING 20210
SWIDTH 1000 0
DWIDTH 13 0
BBX 12 12 0 -2
BITMAP
2100
2100
2910
6FF0
6910
A910
2910
2FF0
2100
2100
2100
2100
ENDCHAR
STARTCHAR uni4EF3
ENCODING 20211
SWIDTH 1000 0
DWIDTH 13 0
BBX 12 12 0 -2
BITMAP
2880
2880
2880
6890
6EE0
A880
2880
2880
2880
2A90
2C90
30F0
ENDCHAR
STARTCHAR uni4EF4
ENCODING 20212
SWIDTH 1000 0
DWIDTH 13 0
BBX 12 12 0 -2
BITMAP
1420
17F0
2420
2420
67E0
A420
2420
27E0
2420
2420
2820
30E0
ENDCHAR
STARTCHAR uni4EF5
ENCODING 20213
SWIDTH 1000 0
DWIDTH 13 0
BBX 12 12 0 -2
BITMAP
1200
1220
27F0
2500
6900
A120
2FF0
2100
2100
2100
2100
2100
ENDCHAR
STARTCHAR uni4EF6
ENCODING 20214
SWIDTH 1000 0
DWIDTH 13 0
BBX 12 12 0 -2
BITMAP
2100
2500
2520
47F0
4900
D100
4120
5FF0
4100
4100
4100
4100
ENDCHAR
STARTCHAR uni4EF7
ENCODING 20215
SWIDTH 1000 0
DWIDTH 13 0
BBX 12 12 0 -2
BITMAP
2100
2100
2280
4440
4830
D440
4440
4440
4440
4440
4840
5040
ENDCHAR
STARTCHAR uni4EF8
ENCODING 20216
SWIDTH 1000 0
DWIDTH 13 0
BBX 12 12 0 -2
BITMAP
20E0
2F00
4100
4100
C100
4FF0
4100
4280
4280
4440
4820
5010
ENDCHAR
STARTCHAR uni4EF9
ENCODING 20217
SWIDTH 1000 0
DWIDTH 13 0
BBX 12 12 0 -2
BITMAP
2100
21E0
2F00
4100
4FE0
C100
4100
5FF0
4100
4100
4100
4100
ENDCHAR
STARTCHAR uni4EFA
ENCODING 20218
SWIDTH 1000 0
DWIDTH 13 0
BBX 12 12 0 -2
BITMAP
0600
0900
1080
2040
C030
1FC0
1000
1000
1FC0
1000
1000
1FE0
ENDCHAR
STARTCHAR uni4EFB
ENCODING 20219
SWIDTH 1000 0
DWIDTH 13 0
BBX 12 12 0 -2
BITMAP
2000
20E0
3F00
4100
4100
DFF0
4100
4100
4100
4120
5FF0
4000
ENDCHAR
STARTCHAR uni4EFC
ENCODING 20220
SWIDTH 1000 0
DWIDTH 13 0
BBX 12 12 0 -2
BITMAP
2000
2FF0
4100
4100
C100
4100
4FE0
4100
4100
4100
4100
5FF0
ENDCHAR
STARTCHAR uni4EFD
ENCODING 20221
SWIDTH 1000 0
DWIDTH 13 0
BBX 12 12 0 -2
BITMAP
1000
25C0
2440
4440
4820
D7F0
4240
4240
4240
4440
4BC0
5080
ENDCHAR
STARTCHAR uni4EFE
ENCODING 20222
SWIDTH 1000 0
DWIDTH 13 0
BBX 12 12 0 -2
BITMAP
2020
2FF0
4400
4400
C7C0
4440
4840
4840
4FC0
4080
4080
5FF0
ENDCHAR
STARTCHAR uni4EFF
ENCODING 20223
SWIDTH 1000 0
DWIDTH 13 0
BBX 12 12 0 -2
BITMAP
2100
2080
2FF0
6200
6200
A3E0
2220
2220
2420
2440
2BC0
3080
ENDCHAR
STARTCHAR uni4F00
ENCODING 20224
SWIDTH 1000 0
DWIDTH 13 0
BBX 12 12 0 -2
BITMAP
1040
11C0
2440
2440
6420
A910
3100
2200
2240
2420
2FE0
2820
ENDCHAR
STARTCHAR uni4F01
ENCODING 20225
SWIDTH 1000 0
DWIDTH 13 0
BBX 12 12 0 -2
BITMAP
0400
0600
0900
1280
2270
C200
13C0
1200
1200
1200
1220
FFF0
ENDCHAR
STARTCHAR uni4F02
ENCODING 20226
SWIDTH 1000 0
DWIDTH 13 0
BBX 12 12 0 -2
BITMAP
1100
1120
2FF0
2100
6FE0
A920
2920
2920
2920
2960
2100
2100
ENDCHAR
STARTCHAR uni4F03
ENCODING 20227
SWIDTH 1000 0
DWIDTH 13 0
BBX 12 12 0 -2
BITMAP
17E0
1040
2280
6100
AFF0
2090
20A0
2080
2080
2080
2080
2180
ENDCHAR
STARTCHAR uni4F04
ENCODING 20228
SWIDTH 1000 0
DWIDTH 13 0
BBX 12 12 0 -2
BITMAP
1020
1FF0
2120
2920
6FE0
A900
2FF0
2910
2110
2160
2100
2100
ENDCHAR
STARTCHAR uni4F05
ENCODING 20229
SWIDTH 1000 0
DWIDTH 13 0
BBX 12 12 0 -2
BITMAP
1100
1120
2FF0
2100
6920
A920
2920
2FE0
2920
2110
2110
21F0
ENDCHAR
STARTCHAR uni4F06
ENCODING 20230
SWIDTH 1000 0
DWIDTH 13 0
BBX 12 12 0 -2
BITMAP
2400
2400
27F0
4A50
5250
C290
4490
4910
5110
4210
44A0
4840
ENDCHAR
STARTCHAR uni4F07
ENCODING 20231
SWIDTH 1000 0
DWIDTH 13 0
BBX 12 12 0 -2
BITMAP
27C0
2440
4440
4450
C870
4000
4FE0
4440
4280
4100
46C0
5830
ENDCHAR
STARTCHAR uni4F08
ENCODING 20232
SWIDTH 1000 0
DWIDTH 13 0
BBX 12 12 0 -2
BITMAP
2200
2100
2080
4200
4200
CA20
4A10
4A10
5250
5240
4240
43C0
ENDCHAR
STARTCHAR uni4F09
ENCODING 20233
SWIDTH 1000 0
DWIDTH 13 0
BBX 12 12 0 -2
BITMAP
2200
2100
3FF0
4000
4780
C480
4480
4480
4490
4490
4890
50F0
ENDCHAR
STARTCHAR uni4F0A
ENCODING 20234
SWIDTH 1000 0
DWIDTH 13 0
BBX 12 12 0 -2
BITMAP
2000
2FE0
2120
4120
5FF0
C120
4120
5FE0
4200
4200
4400
5800
ENDCHAR
STARTCHAR uni4F0B
ENCODING 20235
SWIDTH 1000 0
DWIDTH 13 0
BBX 12 12 0 -2
BITMAP
2080
2FC0
2480
6480
64E0
A4A0
2620
2540
2940
2880
3340
2C30
ENDCHAR
STARTCHAR uni4F0C
ENCODING 20236
SWIDTH 1000 0
DWIDTH 13 0
BBX 12 12 0 -2
BITMAP
1020
1FF0
2800
2BE0
6A20
AA20
2A20
2AE0
2A00
2A10
3210
21F0
ENDCHAR
STARTCHAR uni4F0D
ENCODING 20237
SWIDTH 1000 0
DWIDTH 13 0
BBX 12 12 0 -2
BITMAP
2020
2FF0
2200
6200
6240
AFE0
2240
2240
2440
2440
3FF0
2000
ENDCHAR
STARTCHAR uni4F0E
ENCODING 20238
SWIDTH 1000 0
DWIDTH 13 0
BBX 12 12 0 -2
BITMAP
1100
1100
3FF0
2100
6100
AFE0
2440
2440
2280
2100
26C0
3830
ENDCHAR
STARTCHAR uni4F0F
ENCODING 20239
SWIDTH 1000 0
DWIDTH 13 0
BBX 12 12 0 -2
BITMAP
1100
1140
2120
2120
7FF0
A100
2100
2280
2280
2440
2820
3010
ENDCHAR
STARTCHAR uni4F10
ENCODING 20240
SWIDTH 1000 0
DWIDTH 13 0
BBX 12 12 0 -2
BITMAP
1100
1140
2120
21F0
6F00
A120
A140
2080
2190
2290
2C50
3030
ENDCHAR
STARTCHAR uni4F11
ENCODING 20241
SWIDTH 1000 0
DWIDTH 13 0
BBX 12 12 0 -2
BITMAP
2100
2100
2120
7FF0
6100
A300
2380
2540
2920
3110
2100
2100
ENDCHAR
STARTCHAR uni4F12
ENCODING 20242
SWIDTH 1000 0
DWIDTH 13 0
BBX 12 12 0 -2
BITMAP
1060
1780
2400
2400
67F0
A440
2440
2440
2440
2840
2840
3040
ENDCHAR
STARTCHAR uni4F13
ENCODING 20243
SWIDTH 1000 0
DWIDTH 13 0
BBX 12 12 0 -2
BITMAP
1020
2FF0
2080
6100
6100
A340
2520
2910
2100
2100
2100
2100
ENDCHAR
STARTCHAR uni4F14
ENCODING 20244
SWIDTH 1000 0
DWIDTH 13 0
BBX 12 12 0 -2
BITMAP
1420
27F0
2820
6240
63C0
A240
2240
2240
2240
2450
2850
3070
ENDCHAR
STARTCHAR uni4F15
ENCODING 20245
SWIDTH 1000 0
DWIDTH 13 0
BBX 12 12 0 -2
BITMAP
2100
2100
2140
6FE0
6100
A120
3FF0
2100
2280
2440
2820
3010
ENDCHAR
STARTCHAR uni4F16
ENCODING 20246
SWIDTH 1000 0
DWIDTH 13 0
BBX 12 12 0 -2
BITMAP
2200
2200
4FF0
4200
C3E0
4220
4520
4540
4880
5140
4220
4C10
ENDCHAR
STARTCHAR uni4F17
ENCODING 20247
SWIDTH 1000 0
DWIDTH 13 0
BBX 12 12 0 -2
BITMAP
0400
0400
0A00
1100
20C0
C030
1080
1080
1080
2940
4A20
8410
ENDCHAR
STARTCHAR uni4F18
ENCODING 20248
SWIDTH 1000 0
DWIDTH 13 0
BBX 12 12 0 -2
BITMAP
1140
1120
2100
2FF0
6100
A100
2180
2280
2290
2490
2890
30F0
ENDCHAR
STARTCHAR uni4F19
ENCODING 20249
SWIDTH 1000 0
DWIDTH 13 0
BBX 12 12 0 -2
BITMAP
1100
1100
2100
2520
6540
A580
2900
2100
2180
2240
2420
3810
ENDCHAR
STARTCHAR uni4F1A
ENCODING 20250
SWIDTH 1000 0
DWIDTH 13 0
BBX 12 12 0 -2
BITMAP
0600
0900
1080
2040
DFB0
0000
0000
FFF0
0880
1040
3FE0
2020
ENDCHAR
STARTCHAR uni4F1B
ENCODING 20251
SWIDTH 1000 0
DWIDTH 13 0
BBX 12 12 0 -2
BITMAP
1020
1FF0
2840
2A40
6940
A880
2880
2940
2A20
2C20
2FF0
2800
ENDCHAR
STARTCHAR uni4F1C
ENCODING 20252
SWIDTH 1000 0
DWIDTH 13 0
BBX 12 12 0 -2
BITMAP
2200
2200
5FC0
4440
C450
4970
5100
4100
5FF0
4100
4100
4100
ENDCHAR
STARTCHAR uni4F1D
ENCODING 20253
SWIDTH 1000 0
DWIDTH 13 0
BBX 12 12 0 -2
BITMAP
1040
17E0
2000
2000
6020
AFF0
2100
2200
2240
2420
2FF0
2810
ENDCHAR
STARTCHAR uni4F1E
ENCODING 20254
SWIDTH 1000 0
DWIDTH 13 0
BBX 12 12 0 -2
BITMAP
0400
0A00
1100
24C0
C430
2480
1500
0400
FFF0
0400
0400
0400
ENDCHAR
STARTCHAR uni4F1F
ENCODING 20255
SWIDTH 1000 0
DWIDTH 13 0
BBX 12 12 0 -2
BITMAP
1100
1100
3FF0
2100
6FE0
A100
3FF0
2110
2110
2170
2100
2100
ENDCHAR
STARTCHAR uni4F20
ENCODING 20256
SWIDTH 1000 0
DWIDTH 13 0
BBX 12 12 0 -2
BITMAP
1200
1200
2FE0
2200
6FF0
A400
27E0
2040
2040
2680
2100
2080
ENDCHAR
STARTCHAR uni4F21
ENCODING 20257
SWIDTH 1000 0
DWIDTH 13 0
BBX 12 12 0 -2
BITMAP
1200
1220
2FF0
2500
6900
AFE0
2100
2100
3FF0
2100
2100
2100
ENDCHAR
STARTCHAR uni4F22
ENCODING 20258
SWIDTH 1000 0
DWIDTH 13 0
BBX 12 12 0 -2
BITMAP
1020
1FF0
2040
2440
6440
AFF0
20C0
2140
2240
2440
3840
21C0
ENDCHAR
STARTCHAR uni4F23
ENCODING 20259
SWIDTH 1000 0
DWIDTH 13 0
BBX 12 12 0 -2
BITMAP
17E0
1420
2520
2520
6520
A520
2520
25A0
2280
2290
2490
38F0
ENDCHAR
STARTCHAR uni4F24
ENCODING 20260
SWIDTH 1000 0
DWIDTH 13 0
BBX 12 12 0 -2
BITMAP
1400
1420
27F0
2900
7100
AFE0
2220
2220
2220
2420
2920
30C0
ENDCHAR
STARTCHAR uni4F25
ENCODING 20261
SWIDTH 1000 0
DWIDTH 13 0
BBX 12 12 0 -2
BITMAP
1400
1460
2480
2500
6600
A400
3FF0
2500
2480
2440
2720
2C10
ENDCHAR
STARTCHAR uni4F26
ENCODING 20262
SWIDTH 1000 0
DWIDTH 13 0
BBX 12 12 0 -2
BITMAP
1100
1100
2280
2440
6820
B410
24C0
2700
2400
2420
2420
23E0
ENDCHAR
STARTCHAR uni4F27
ENCODING 20263
SWIDTH 1000 0
DWIDTH 13 0
BBX 12 12 0 -2
BITMAP
1100
1100
2280
2440
6820
B7D0
2440
2440
25C0
2420
2420
23E0
ENDCHAR
STARTCHAR uni4F28
ENCODING 20264
SWIDTH 1000 0
DWIDTH 13 0
BBX 12 12 0 -2
BITMAP
2200
2200
47F0
4810
D010
4FD0
4010
4010
4FD0
4010
40A0
4040
ENDCHAR
STARTCHAR uni4F29
ENCODING 20265
SWIDTH 1000 0
DWIDTH 13 0
BBX 12 12 0 -2
BITMAP
1100
1100
3FF0
2440
6440
A440
2280
2280
2100
2280
2440
3830
ENDCHAR
STARTCHAR uni4F2A
ENCODING 20266
SWIDTH 1000 0
DWIDTH 13 0
BBX 12 12 0 -2
BITMAP
1100
1500
2500
3FF0
6210
A310
2290
2290
2410
2410
2920
30C0
ENDCHAR
STARTCHAR uni4F2B
ENCODING 20267
SWIDTH 1000 0
DWIDTH 13 0
BBX 12 12 0 -2
BITMAP
1100
1100
2FF0
2810
7020
A000
2000
2000
2000
2000
3FF0
2000
ENDCHAR
STARTCHAR uni4F2C
ENCODING 20268
SWIDTH 1000 0
DWIDTH 13 0
BBX 12 12 0 -2
BITMAP
1420
17F0
2420
2420
67E0
A500
2500
2480
2480
2840
2820
3010
ENDCHAR
STARTCHAR uni4F2D
ENCODING 20269
SWIDTH 1000 0
DWIDTH 13 0
BBX 12 12 0 -2
BITMAP
1200
1120
2FF0
2100
6200
A440
2FC0
2080
2140
2220
2FF0
2810
ENDCHAR
STARTCHAR uni4F2E
ENCODING 20270
SWIDTH 1000 0
DWIDTH 13 0
BBX 12 12 0 -2
BITMAP
2800
29F0
5E90
4A90
CA90
4AA0
52A0
4A40
4440
46A0
4920
5210
ENDCHAR
STARTCHAR uni4F2F
ENCODING 20271
SWIDTH 1000 0
DWIDTH 13 0
BBX 12 12 0 -2
BITMAP
1080
1080
2520
27F0
6420
A420
27E0
2420
2420
2420
27E0
2420
ENDCHAR
STARTCHAR uni4F30
ENCODING 20272
SWIDTH 1000 0
DWIDTH 13 0
BBX 12 12 0 -2
BITMAP
1100
1100
2100
3FF0
6100
A100
27E0
2420
2420
2420
27E0
2420
ENDCHAR
STARTCHAR uni4F31
ENCODING 20273
SWIDTH 1000 0
DWIDTH 13 0
BBX 12 12 0 -2
BITMAP
2100
2280
2240
4420
4910
C100
4540
4520
4910
5110
4100
4300
ENDCHAR
STARTCHAR uni4F32
ENCODING 20274
SWIDTH 1000 0
DWIDTH 13 0
BBX 12 12 0 -2
BITMAP
2FF0
2810
4810
4FF0
C800
4A00
4A60
4B80
4A00
4A10
5210
51F0
ENDCHAR
STARTCHAR uni4F33
ENCODING 20275
SWIDTH 1000 0
DWIDTH 13 0
BBX 12 12 0 -2
BITMAP
2240
2A40
2A40
4A40
5FF0
CA40
4A40
4A40
4BC0
4800
4FF0
4800
ENDCHAR
STARTCHAR uni4F34
ENCODING 20276
SWIDTH 1000 0
DWIDTH 13 0
BBX 12 12 0 -2
BITMAP
1100
1920
2520
2540
6FE0
A100
2100
3FF0
2100
2100
2100
2100
ENDCHAR
STARTCHAR uni4F35
ENCODING 20277
SWIDTH 1000 0
DWIDTH 13 0
BBX 12 12 0 -2
BITMAP
2000
2FF0
2A90
4A90
4A90
CA90
4A90
4AB0
4C50
4810
4FF0
4810
ENDCHAR
STARTCHAR uni4F36
ENCODING 20278
SWIDTH 1000 0
DWIDTH 13 0
BBX 12 12 0 -2
BITMAP
1200
1300
2280
2440
6A30
A100
3FE0
2040
2480
2300
2100
2080
ENDCHAR
STARTCHAR uni4F37
ENCODING 20279
SWIDTH 1000 0
DWIDTH 13 0
BBX 12 12 0 -2
BITMAP
2100
2100
4100
4FF0
C910
4910
4910
4FF0
4910
4910
4FF0
4810
ENDCHAR
STARTCHAR uni4F38
ENCODING 20280
SWIDTH 1000 0
DWIDTH 13 0
BBX 11 12 0 -2
BITMAP
1100
1100
2FE0
2920
6920
AFE0
2920
2FE0
2920
2100
2100
2100
ENDCHAR
STARTCHAR uni4F39
ENCODING 20281
SWIDTH 1000 0
DWIDTH 13 0
BBX 12 12 0 -2
BITMAP
27E0
2420
2420
4420
47E0
C420
4420
47E0
4420
4420
4420
5FF0
ENDCHAR
STARTCHAR uni4F3A
ENCODING 20282
SWIDTH 1000 0
DWIDTH 13 0
BBX 12 12 0 -2
BITMAP
1020
1FF0
2020
2FA0
6020
AFA0
28A0
28A0
2FA0
28A0
2020
20E0
ENDCHAR
STARTCHAR uni4F3B
ENCODING 20283
SWIDTH 1000 0
DWIDTH 13 0
BBX 12 12 0 -2
BITMAP
2020
2FF0
2100
6920
6520
A140
3FF0
2100
2100
2100
2100
2100
ENDCHAR
STARTCHAR uni4F3C
ENCODING 20284
SWIDTH 1000 0
DWIDTH 13 0
BBX 12 12 0 -2
BITMAP
2000
2A20
2920
6920
6820
A820
2840
2B40
2C40
38A0
2110
2610
ENDCHAR
STARTCHAR uni4F3D
ENCODING 20285
SWIDTH 1000 0
DWIDTH 13 0
BBX 12 12 0 -2
BITMAP
2800
2890
4AF0
5F90
CA90
4A90
4A90
4A90
4A90
5290
6EF0
4490
ENDCHAR
STARTCHAR uni4F3E
ENCODING 20286
SWIDTH 1000 0
DWIDTH 13 0
BBX 12 12 0 -2
BITMAP
1020
1FF0
2100
2100
6340
A320
2510
2910
2100
2100
2020
2FF0
ENDCHAR
STARTCHAR uni4F3F
ENCODING 20287
SWIDTH 1000 0
DWIDTH 13 0
BBX 12 12 0 -2
BITMAP
1420
17F0
2420
2420
6420
A420
27E0
2000
2240
2420
2820
3010
ENDCHAR
STARTCHAR uni4F40
ENCODING 20288
SWIDTH 1000 0
DWIDTH 13 0
BBX 12 12 0 -2
BITMAP
17F0
1410
2410
2410
67F0
A400
2400
27F0
2410
2410
27F0
2410
ENDCHAR
STARTCHAR uni4F41
ENCODING 20289
SWIDTH 1000 0
DWIDTH 13 0
BBX 12 12 0 -2
BITMAP
1100
1100
2240
2420
6FF0
A010
2420
27E0
2420
2420
27E0
2420
ENDCHAR
STARTCHAR uni4F42
ENCODING 20290
SWIDTH 1000 0
DWIDTH 13 0
BBX 12 12 0 -2
BITMAP
2000
2FF0
4100
4100
C900
49E0
4900
4900
4900
4900
4900
5FF0
ENDCHAR
STARTCHAR uni4F43
ENCODING 20291
SWIDTH 1000 0
DWIDTH 13 0
BBX 11 12 0 -2
BITMAP
1000
2FE0
2920
6920
6920
AFE0
2920
2920
2920
2920
2FE0
2820
ENDCHAR
STARTCHAR uni4F44
ENCODING 20292
SWIDTH 1000 0
DWIDTH 13 0
BBX 12 12 0 -2
BITMAP
2420
2420
4420
5FF0
C420
4420
47E0
4420
4420
4420
47E0
4420
ENDCHAR
STARTCHAR uni4F45
ENCODING 20293
SWIDTH 1000 0
DWIDTH 13 0
BBX 12 12 0 -2
BITMAP
2100
2100
4FF0
4100
C100
5FF0
4100
4380
4540
4920
5110
4100
ENDCHAR
STARTCHAR uni4F46
ENCODING 20294
SWIDTH 1000 0
DWIDTH 13 0
BBX 12 12 0 -2
BITMAP
2000
27E0
2420
6420
67E0
A420
2420
2420
27E0
2000
2000
3FF0
ENDCHAR
STARTCHAR uni4F47
ENCODING 20295
SWIDTH 1000 0
DWIDTH 13 0
BBX 12 12 0 -2
BITMAP
1100
1080
2FF0
2820
6000
BFF0
2080
2080
2080
2080
2080
2780
ENDCHAR
STARTCHAR uni4F48
ENCODING 20296
SWIDTH 1000 0
DWIDTH 13 0
BBX 12 12 0 -2
BITMAP
2200
2220
3FF0
4500
4500
CFE0
5520
4520
4520
4520
4560
4100
ENDCHAR
STARTCHAR uni4F49
ENCODING 20297
SWIDTH 1000 0
DWIDTH 13 0
BBX 12 12 0 -2
BITMAP
1100
1100
2100
2FE0
6100
A120
3FF0
2200
2240
2420
2FF0
2010
ENDCHAR
STARTCHAR uni4F4A
ENCODING 20298
SWIDTH 1000 0
DWIDTH 13 0
BBX 12 12 0 -2
BITMAP
2080
2080
4FF0
4890
C880
4FE0
4A20
4A40
4940
4880
5140
5630
ENDCHAR
STARTCHAR uni4F4B
ENCODING 20299
SWIDTH 1000 0
DWIDTH 13 0
BBX 12 12 0 -2
BITMAP
2FF0
2210
4210
4210
C410
48E0
4000
47F0
4410
4410
47F0
4410
ENDCHAR
STARTCHAR uni4F4C
ENCODING 20300
SWIDTH 1000 0
DWIDTH 13 0
BBX 12 12 0 -2
BITMAP
3240
2240
2240
6A50
6B60
AA40
2A40
2A40
2A50
2A50
2F50
3870
ENDCHAR
STARTCHAR uni4F4D
ENCODING 20301
SWIDTH 1000 0
DWIDTH 13 0
BBX 12 12 0 -2
BITMAP
3200
2100
2120
5FF0
4000
C840
4840
4440
4480
4480
40A0
5FF0
ENDCHAR
STARTCHAR uni4F4E
ENCODING 20302
SWIDTH 1000 0
DWIDTH 13 0
BBX 12 12 0 -2
BITMAP
2060
2780
2480
6480
67F0
A480
2480
2490
2750
3C30
2050
2FE0
ENDCHAR
STARTCHAR uni4F4F
ENCODING 20303
SWIDTH 1000 0
DWIDTH 13 0
BBX 12 12 0 -2
BITMAP
1200
1100
2120
2FF0
6100
A100
2FE0
2100
2100
2120
3FF0
2000
ENDCHAR
STARTCHAR uni4F50
ENCODING 20304
SWIDTH 1000 0
DWIDTH 13 0
BBX 12 12 0 -2
BITMAP
2200
2220
3FF0
4200
4400
C440
4FE0
4900
5100
6100
4120
5FF0
ENDCHAR
STARTCHAR uni4F51
ENCODING 20305
SWIDTH 1000 0
DWIDTH 13 0
BBX 12 12 0 -2
BITMAP
2200
2200
2220
5FF0
4200
C400
47E0
4C20
5420
6420
47E0
4420
ENDCHAR
STARTCHAR uni4F52
ENCODING 20306
SWIDTH 1000 0
DWIDTH 13 0
BBX 12 12 0 -2
BITMAP
1100
1100
27E0
2520
6520
A520
3FF0
2100
2180
2240
2420
3810
ENDCHAR
STARTCHAR uni4F53
ENCODING 20307
SWIDTH 1000 0
DWIDTH 13 0
BBX 12 12 0 -2
BITMAP
2100
2100
2120
6FF0
6100
A380
2540
2920
37D0
2100
2100
2100
ENDCHAR
STARTCHAR uni4F54
ENCODING 20308
SWIDTH 1000 0
DWIDTH 13 0
BBX 12 12 0 -2
BITMAP
1100
1100
2120
21F0
6100
A100
2FE0
2820
2820
2820
2FE0
2820
ENDCHAR
STARTCHAR uni4F55
ENCODING 20309
SWIDTH 1000 0
DWIDTH 13 0
BBX 12 12 0 -2
BITMAP
2020
2FF0
2020
6020
6F20
A920
2920
2F20
2920
2020
2020
20E0
ENDCHAR
STARTCHAR uni4F56
ENCODING 20310
SWIDTH 1000 0
DWIDTH 13 0
BBX 12 12 0 -2
BITMAP
1200
1120
20A0
2240
6240
AAA0
2A90
2B10
3220
2620
3A20
23E0
ENDCHAR
STARTCHAR uni4F57
ENCODING 20311
SWIDTH 1000 0
DWIDTH 13 0
BBX 12 12 0 -2
BITMAP
2100
2100
2FF0
2810
6400
A420
24C0
2700
2410
2410
2410
23F0
ENDCHAR
STARTCHAR uni4F58
ENCODING 20312
SWIDTH 1000 0
DWIDTH 13 0
BBX 12 12 0 -2
BITMAP
0400
0600
0900
30C0
DFB0
0000
7FF0
0200
1280
2240
4220
0E00
ENDCHAR
STARTCHAR uni4F59
ENCODING 20313
SWIDTH 1000 0
DWIDTH 13 0
BBX 12 12 0 -2
BITMAP
0400
0A00
1100
20C0
5FB0
8400
0420
FFF0
1480
2440
4420
9C00
ENDCHAR
STARTCHAR uni4F5A
ENCODING 20314
SWIDTH 1000 0
DWIDTH 13 0
BBX 12 12 0 -2
BITMAP
2100
2500
2540
4FE0
5100
C120
5FF0
4100
4280
4440
4820
7010
ENDCHAR
STARTCHAR uni4F5B
ENCODING 20315
SWIDTH 1000 0
DWIDTH 13 0
BBX 12 12 0 -2
BITMAP
1280
2280
2FE0
62A0
6FE0
AA80
2A80
3FF0
2290
2490
28E0
3080
ENDCHAR
STARTCHAR uni4F5C
ENCODING 20316
SWIDTH 1000 0
DWIDTH 13 0
BBX 12 12 0 -2
BITMAP
1200
1200
23F0
2500
6900
A1F0
2100
2100
21F0
2100
2100
2100
ENDCHAR
STARTCHAR uni4F5D
ENCODING 20317
SWIDTH 1000 0
DWIDTH 13 0
BBX 12 12 0 -2
BITMAP
1400
1400
27F0
2820
7020
A7A0
24A0
24A0
27A0
2020
21E0
2040
ENDCHAR
STARTCHAR uni4F5E
ENCODING 20318
SWIDTH 1000 0
DWIDTH 13 0
BBX 12 12 0 -2
BITMAP
2040
2FE0
2000
2FF0
6200
A220
3FF0
2440
2E40
2180
2260
3C10
ENDCHAR
STARTCHAR uni4F5F
ENCODING 20319
SWIDTH 1000 0
DWIDTH 13 0
BBX 12 12 0 -2
BITMAP
1200
1240
27E0
2A40
6180
A280
2440
3B30
2080
2600
2180
2040
ENDCHAR
STARTCHAR uni4F60
ENCODING 20320
SWIDTH 1000 0
DWIDTH 13 0
BBX 12 12 0 -2
BITMAP
1400
2400
2420
2FF0
6920
B100
2540
2520
2910
2910
2100
2300
ENDCHAR
STARTCHAR uni4F61
ENCODING 20321
SWIDTH 1000 0
DWIDTH 13 0
BBX 12 12 0 -2
BITMAP
1100
1300
2280
2440
6930
B100
2920
2920
2920
2920
2FE0
2820
ENDCHAR
STARTCHAR uni4F62
ENCODING 20322
SWIDTH 1000 0
DWIDTH 13 0
BBX 12 12 0 -2
BITMAP
1020
2FF0
2400
6400
67E0
A420
2420
27E0
2400
2400
2420
2FF0
ENDCHAR
STARTCHAR uni4F63
ENCODING 20323
SWIDTH 1000 0
DWIDTH 13 0
BBX 11 12 0 -2
BITMAP
2000
2FE0
2920
4920
4FE0
C920
4920
4FE0
4920
4920
5120
6160
ENDCHAR
STARTCHAR uni4F64
ENCODING 20324
SWIDTH 1000 0
DWIDTH 13 0
BBX 12 12 0 -2
BITMAP
1020
1FF0
2400
2440
67E0
A440
2640
2540
2440
25D0
2E50
2870
ENDCHAR
STARTCHAR uni4F65
ENCODING 20325
SWIDTH 1000 0
DWIDTH 13 0
BBX 12 12 0 -2
BITMAP
0200
0500
0880
3040
CFB0
0000
4840
2440
1280
1280
0120
FFF0
ENDCHAR
STARTCHAR uni4F66
ENCODING 20326
SWIDTH 1000 0
DWIDTH 13 0
BBX 12 12 0 -2
BITMAP
2000
2FF0
2200
4200
4200
C3E0
4620
4A20
5220
4220
43E0
4220
ENDCHAR
STARTCHAR uni4F67
ENCODING 20327
SWIDTH 1000 0
DWIDTH 13 0
BBX 12 12 0 -2
BITMAP
1200
1200
23E0
2200
6200
BFF0
2300
2280
2240
2220
2200
2200
ENDCHAR
STARTCHAR uni4F68
ENCODING 20328
SWIDTH 1000 0
DWIDTH 13 0
BBX 12 12 0 -2
BITMAP
2400
2400
2FE0
5020
4FA0
C8A0
48A0
4FA0
4820
48D0
4810
47F0
ENDCHAR
STARTCHAR uni4F69
ENCODING 20329
SWIDTH 1000 0
DWIDTH 13 0
BBX 12 12 0 -2
BITMAP
2820
2FE0
2820
4FA0
4920
CFE0
4D60
4D60
55F0
5510
5110
6110
ENDCHAR
STARTCHAR uni4F6A
ENCODING 20330
SWIDTH 1000 0
DWIDTH 13 0
BBX 11 12 0 -2
BITMAP
3000
2FE0
2820
6820
6BA0
AAA0
2AA0
2BA0
2820
2820
2FE0
2820
ENDCHAR
STARTCHAR uni4F6B
ENCODING 20331
SWIDTH 1000 0
DWIDTH 13 0
BBX 12 12 0 -2
BITMAP
1200
1240
27E0
2A40
7280
A180
2640
3FF0
2420
2420
27E0
2420
ENDCHAR
STARTCHAR uni4F6C
ENCODING 20332
SWIDTH 1000 0
DWIDTH 13 0
BBX 12 12 0 -2
BITMAP
2200
2220
2FE0
6240
7FF0
A100
2200
2660
3B80
2210
2210
23F0
ENDCHAR
STARTCHAR uni4F6D
ENCODING 20333
SWIDTH 1000 0
DWIDTH 13 0
BBX 12 12 0 -2
BITMAP
2400
27E0
4A40
5180
C640
5930
4FE0
4900
4900
5FF0
4100
4100
ENDCHAR
STARTCHAR uni4F6E
ENCODING 20334
SWIDTH 1000 0
DWIDTH 13 0
BBX 12 12 0 -2
BITMAP
1100
1100
2280
2440
6830
B7C0
2000
27E0
2420
2420
27E0
2420
ENDCHAR
STARTCHAR uni4F6F
ENCODING 20335
SWIDTH 1000 0
DWIDTH 13 0
BBX 12 12 0 -2
BITMAP
2840
2480
22A0
4FF0
4100
CFE0
4100
4120
5FF0
4100
4100
4100
ENDCHAR
STARTCHAR uni4F70
ENCODING 20336
SWIDTH 1000 0
DWIDTH 13 0
BBX 12 12 0 -2
BITMAP
1020
2FF0
2100
6920
6FF0
A820
2820
2FE0
2820
2820
2FE0
2820
ENDCHAR
STARTCHAR uni4F71
ENCODING 20337
SWIDTH 1000 0
DWIDTH 13 0
BBX 12 12 0 -2
BITMAP
0400
0A00
1100
20C0
DF30
0000
7FE0
0400
27C0
2400
2400
FFF0
ENDCHAR
STARTCHAR uni4F72
ENCODING 20338
SWIDTH 1000 0
DWIDTH 13 0
BBX 12 12 0 -2
BITMAP
2200
23F0
4420
4C40
D280
4100
47F0
4C10
7410
4410
4410
47F0
ENDCHAR
STARTCHAR uni4F73
ENCODING 20339
SWIDTH 1000 0
DWIDTH 13 0
BBX 12 12 0 -2
BITMAP
2100
2100
2FE0
4100
4100
DFF0
4100
4100
4FE0
4100
4100
5FF0
ENDCHAR
STARTCHAR uni4F74
ENCODING 20340
SWIDTH 1000 0
DWIDTH 13 0
BBX 12 12 0 -2
BITMAP
1020
1FF0
2440
27C0
6440
A440
27C0
2440
2440
2FF0
2040
2040
ENDCHAR
STARTCHAR uni4F75
ENCODING 20341
SWIDTH 1000 0
DWIDTH 13 0
BBX 12 12 0 -2
BITMAP
2440
2240
2080
6FF0
6240
A240
3FF0
2240
2440
2440
2840
3040
ENDCHAR
STARTCHAR uni4F76
ENCODING 20342
SWIDTH 1000 0
DWIDTH 13 0
BBX 12 12 0 -2
BITMAP
1100
1100
2FF0
2100
6100
AFE0
2000
27E0
2420
2420
27E0
2420
ENDCHAR
STARTCHAR uni4F77
ENCODING 20343
SWIDTH 1000 0
DWIDTH 13 0
BBX 12 12 0 -2
BITMAP
1420
17F0
2420
27E0
6420
A7E0
2510
2520
24C0
2440
2720
2810
ENDCHAR
STARTCHAR uni4F78
ENCODING 20344
SWIDTH 1000 0
DWIDTH 13 0
BBX 12 12 0 -2
BITMAP
1060
1780
2100
2120
6FF0
A100
2100
27E0
2420
2420
27E0
2420
ENDCHAR
STARTCHAR uni4F79
ENCODING 20345
SWIDTH 1000 0
DWIDTH 13 0
BBX 12 12 0 -2
BITMAP
2200
23C0
2480
4FF0
5800
CBE0
4A20
4A20
4AE0
4A10
5210
63F0
ENDCHAR
STARTCHAR uni4F7A
ENCODING 20346
SWIDTH 1000 0
DWIDTH 13 0
BBX 12 12 0 -2
BITMAP
2100
2F00
2280
4440
4830
D7C0
4100
4100
4FE0
4100
4120
5FF0
ENDCHAR
STARTCHAR uni4F7B
ENCODING 20347
SWIDTH 1000 0
DWIDTH 13 0
BBX 12 12 0 -2
BITMAP
2280
2280
2290
2AA0
46C0
C280
46C0
5AB0
4480
4490
4890
50F0
ENDCHAR
STARTCHAR uni4F7C
ENCODING 20348
SWIDTH 1000 0
DWIDTH 13 0
BBX 12 12 0 -2
BITMAP
1200
1100
2FF0
2240
6420
A850
2440
2280
2100
2280
2440
3830
ENDCHAR
STARTCHAR uni4F7D
ENCODING 20349
SWIDTH 1000 0
DWIDTH 13 0
BBX 12 12 0 -2
BITMAP
2200
2200
33F0
4C20
4120
C100
4500
4900
5180
4240
4420
5810
ENDCHAR
STARTCHAR uni4F7E
ENCODING 20350
SWIDTH 1000 0
DWIDTH 13 0
BBX 12 12 0 -2
BITMAP
25C0
2440
2440
4820
57D0
E440
47C0
4440
47C0
4440
4840
48C0
ENDCHAR
STARTCHAR uni4F7F
ENCODING 20351
SWIDTH 1000 0
DWIDTH 13 0
BBX 12 12 0 -2
BITMAP
2100
3FF0
2100
6FE0
6920
A920
2FE0
2100
2500
2200
2580
3870
ENDCHAR
STARTCHAR uni4F80
ENCODING 20352
SWIDTH 1000 0
DWIDTH 13 0
BBX 12 12 0 -2
BITMAP
2010
3F50
4A50
4A50
4A50
DF50
4A50
4A50
4A50
4A10
5210
62F0
ENDCHAR
STARTCHAR uni4F81
ENCODING 20353
SWIDTH 1000 0
DWIDTH 13 0
BBX 12 12 0 -2
BITMAP
2100
2500
27E0
4900
4100
C120
5FF0
4280
4280
4490
4890
50F0
ENDCHAR
STARTCHAR uni4F82
ENCODING 20354
SWIDTH 1000 0
DWIDTH 13 0
BBX 12 12 0 -2
BITMAP
2100
2FF0
2800
4860
4B80
C880
48F0
4F80
4880
4890
5090
60F0
ENDCHAR
STARTCHAR uni4F83
ENCODING 20355
SWIDTH 1000 0
DWIDTH 13 0
BBX 12 12 0 -2
BITMAP
2820
2FF0
2820
4820
4FE0
C000
4940
4940
4940
4950
5150
6170
ENDCHAR
STARTCHAR uni4F84
ENCODING 20356
SWIDTH 1000 0
DWIDTH 13 0
BBX 12 12 0 -2
BITMAP
1020
1FF0
2200
6220
6FF0
A000
2100
2FE0
2100
2120
3FF0
2000
ENDCHAR
STARTCHAR uni4F85
ENCODING 20357
SWIDTH 1000 0
DWIDTH 13 0
BBX 12 12 0 -2
BITMAP
1200
1120
2FF0
2200
6440
AF80
2120
2240
2C80
2140
2220
2C10
ENDCHAR
STARTCHAR uni4F86
ENCODING 20358
SWIDTH 1000 0
DWIDTH 13 0
BBX 12 12 0 -2
BITMAP
0400
0420
FFF0
2480
2480
5540
8620
0D00
1480
2440
4430
8400
ENDCHAR
STARTCHAR uni4F87
ENCODING 20359
SWIDTH 1000 0
DWIDTH 13 0
BBX 12 12 0 -2
BITMAP
2100
2FF0
2100
6FE0
6120
AFE0
2900
2FF0
2110
22E0
2440
3830
ENDCHAR
STARTCHAR uni4F88
ENCODING 20360
SWIDTH 1000 0
DWIDTH 13 0
BBX 12 12 0 -2
BITMAP
1100
23E0
2440
6A80
6100
A280
2DF0
2220
2D40
2080
2300
2C00
ENDCHAR
STARTCHAR uni4F89
ENCODING 20361
SWIDTH 1000 0
DWIDTH 13 0
BBX 12 12 0 -2
BITMAP
1200
1220
2FF0
2440
4BB0
D000
4FE0
4400
4FC0
4040
4040
4380
ENDCHAR
STARTCHAR uni4F8A
ENCODING 20362
SWIDTH 1000 0
DWIDTH 13 0
BBX 12 12 0 -2
BITMAP
2100
3120
4920
4540
C100
5FF0
4480
4480
4480
4490
4890
5070
ENDCHAR
STARTCHAR uni4F8B
ENCODING 20363
SWIDTH 1000 0
DWIDTH 13 0
BBX 12 12 0 -2
BITMAP
2010
3F10
2450
4F50
C950
4950
5750
6250
4450
4810
5010
60F0
ENDCHAR
STARTCHAR uni4F8C
ENCODING 20364
SWIDTH 1000 0
DWIDTH 13 0
BBX 12 12 0 -2
BITMAP
0600
0980
3460
C210
3FC0
0080
3FC0
0000
FFF0
0880
1040
7FE0
ENDCHAR
STARTCHAR uni4F8D
ENCODING 20365
SWIDTH 1000 0
DWIDTH 13 0
BBX 12 12 0 -2
BITMAP
2100
2120
2FF0
6100
7FF0
A040
3FF0
2040
2440
2240
2040
21C0
ENDCHAR
STARTCHAR uni4F8E
ENCODING 20366
SWIDTH 1000 0
DWIDTH 13 0
BBX 12 12 0 -2
BITMAP
2100
2110
4920
4540
C100
5FF0
4100
4380
4540
4920
5110
4100
ENDCHAR
STARTCHAR uni4F8F
ENCODING 20367
SWIDTH 1000 0
DWIDTH 13 0
BBX 12 12 0 -2
BITMAP
1100
1500
27E0
2900
6100
BFF0
2100
2380
2540
2920
3110
2100
ENDCHAR
STARTCHAR uni4F90
ENCODING 20368
SWIDTH 1000 0
DWIDTH 13 0
BBX 12 12 0 -2
BITMAP
2100
2100
2200
4FE0
4AA0
CAA0
4AA0
4AA0
4AA0
4AA0
4AA0
5FF0
ENDCHAR
STARTCHAR uni4F91
ENCODING 20369
SWIDTH 1000 0
DWIDTH 13 0
BBX 12 12 0 -2
BITMAP
1200
2220
3FF0
6400
67E0
AC20
37E0
2420
27E0
2420
2420
24E0
ENDCHAR
STARTCHAR uni4F92
ENCODING 20370
SWIDTH 1000 0
DWIDTH 13 0
BBX 12 12 0 -2
BITMAP
2200
2920
2FF0
4A20
4200
DFF0
4240
4440
4E80
4180
4260
5C20
ENDCHAR
STARTCHAR uni4F93
ENCODING 20371
SWIDTH 1000 0
DWIDTH 13 0
BBX 12 12 0 -2
BITMAP
2100
2FE0
4120
5FF0
C120
4FE0
4100
4FE0
4100
5FF0
4100
4100
ENDCHAR
STARTCHAR uni4F94
ENCODING 20372
SWIDTH 1000 0
DWIDTH 13 0
BBX 12 12 0 -2
BITMAP
2200
2240
2FE0
4820
4500
C7E0
4900
4100
5FF0
4100
4100
4100
ENDCHAR
STARTCHAR uni4F95
ENCODING 20373
SWIDTH 1000 0
DWIDTH 13 0
BBX 12 12 0 -2
BITMAP
2020
3FF0
2100
4200
4FE0
CAA0
4AA0
4AA0
4AA0
4AA0
4AA0
4860
ENDCHAR
STARTCHAR uni4F96
ENCODING 20374
SWIDTH 1000 0
DWIDTH 13 0
BBX 12 12 0 -2
BITMAP
0400
0A00
1100
3FC0
C030
7FE0
4920
4920
7FE0
4920
4920
4960
ENDCHAR
STARTCHAR uni4F97
ENCODING 20375
SWIDTH 1000 0
DWIDTH 13 0
BBX 12 12 0 -2
BITMAP
2810
2FF0
2810
2FD0
6810
ABD0
2A50
2A50
2BD0
2810
2810
2870
ENDCHAR
STARTCHAR uni4F98
ENCODING 20376
SWIDTH 1000 0
DWIDTH 13 0
BBX 12 12 0 -2
BITMAP
1200
2100
2FF0
7050
6F80
A200
23F0
3E00
2200
2210
2210
23F0
ENDCHAR
STARTCHAR uni4F99
ENCODING 20377
SWIDTH 1000 0
DWIDTH 13 0
BBX 12 12 0 -2
BITMAP
20A0
2090
4080
5FF0
C080
5F80
4480
4480
4440
4750
5C30
4010
ENDCHAR
STARTCHAR uni4F9A
ENCODING 20378
SWIDTH 1000 0
DWIDTH 13 0
BBX 12 12 0 -2
BITMAP
3400
2420
2FF0
2820
7FA0
A8A0
2FA0
28A0
2FA0
2820
21E0
2040
ENDCHAR
STARTCHAR uni4F9B
ENCODING 20379
SWIDTH 1000 0
DWIDTH 13 0
BBX 12 12 0 -2
BITMAP
2480
2480
2480
5FF0
4480
C480
4480
5FF0
4000
4440
4820
5010
ENDCHAR
STARTCHAR uni4F9C
ENCODING 20380
SWIDTH 1000 0
DWIDTH 13 0
BBX 12 12 0 -2
BITMAP
3100
2940
2FE0
4A40
4940
C840
5FF0
4C40
4A40
4940
4840
51C0
ENDCHAR
STARTCHAR uni4F9D
ENCODING 20381
SWIDTH 1000 0
DWIDTH 13 0
BBX 12 12 0 -2
BITMAP
1200
2120
2FF0
6280
A290
A4A0
2CC0
3480
2440
2540
2E20
2810
ENDCHAR
STARTCHAR uni4F9E
ENCODING 20382
SWIDTH 1000 0
DWIDTH 13 0
BBX 12 12 0 -2
BITMAP
2400
2490
24F0
5F90
4A90
CA90
4A90
5A90
4490
46F0
4890
5080
ENDCHAR
STARTCHAR uni4F9F
ENCODING 20383
SWIDTH 1000 0
DWIDTH 13 0
BBX 12 12 0 -2
BITMAP
2400
3FF0
4400
4BE0
C820
5840
6880
4FF0
4880
4880
4880
4980
ENDCHAR
STARTCHAR uni4FA0
ENCODING 20384
SWIDTH 1000 0
DWIDTH 13 0
BBX 12 12 0 -2
BITMAP
2100
2100
4FE0
4100
C920
4540
5FF0
4100
4280
4440
4820
5010
ENDCHAR
STARTCHAR uni4FA1
ENCODING 20385
SWIDTH 1000 0
DWIDTH 13 0
BBX 12 12 0 -2
BITMAP
2000
3FF0
4280
4280
DFF0
5290
5290
5290
5290
5290
5FF0
5010
ENDCHAR
STARTCHAR uni4FA2
ENCODING 20386
SWIDTH 1000 0
DWIDTH 13 0
BBX 12 12 0 -2
BITMAP
2FE0
2100
4FE0
4920
C920
5FF0
4920
5FF0
4820
4820
4820
4860
ENDCHAR
STARTCHAR uni4FA3
ENCODING 20387
SWIDTH 1000 0
DWIDTH 13 0
BBX 12 12 0 -2
BITMAP
2000
27E0
2420
4420
47E0
C000
4FF0
4810
4810
4810
4FF0
4810
ENDCHAR
STARTCHAR uni4FA4
ENCODING 20388
SWIDTH 1000 0
DWIDTH 13 0
BBX 12 12 0 -2
BITMAP
2220
2220
4FC0
4280
DFF0
4200
4FE0
7400
47E0
4020
4120
40C0
ENDCHAR
STARTCHAR uni4FA5
ENCODING 20389
SWIDTH 1000 0
DWIDTH 13 0
BBX 12 12 0 -2
BITMAP
1200
12E0
3F00
2260
6190
BE70
2000
3FF0
2480
2480
2890
30F0
ENDCHAR
STARTCHAR uni4FA6
ENCODING 20390
SWIDTH 1000 0
DWIDTH 13 0
BBX 12 12 0 -2
BITMAP
1100
11F0
2100
2FE0
6820
A920
2920
2920
2920
22C0
2420
3810
ENDCHAR
STARTCHAR uni4FA7
ENCODING 20391
SWIDTH 1000 0
DWIDTH 13 0
BBX 12 12 0 -2
BITMAP
2010
3F50
5150
5550
D550
5550
5550
5550
5550
4A10
5110
6130
ENDCHAR
STARTCHAR uni4FA8
ENCODING 20392
SWIDTH 1000 0
DWIDTH 13 0
BBX 12 12 0 -2
BITMAP
20E0
2F00
4200
5FF0
C480
4840
54B0
4480
4480
4480
4880
5080
ENDCHAR
STARTCHAR uni4FA9
ENCODING 20393
SWIDTH 1000 0
DWIDTH 13 0
BBX 12 12 0 -2
BITMAP
1100
1280
2440
2820
77D0
A000
2000
3FF0
2200
2440
2FE0
2820
ENDCHAR
STARTCHAR uni4FAA
ENCODING 20394
SWIDTH 1000 0
DWIDTH 13 0
BBX 12 12 0 -2
BITMAP
2100
3FF0
4440
4280
C380
5C70
4440
4440
4440
4440
4840
5040
ENDCHAR
STARTCHAR uni4FAB
ENCODING 20395
SWIDTH 1000 0
DWIDTH 13 0
BBX 12 12 0 -2
BITMAP
2100
2120
5FF0
4800
CFE0
4000
4200
5FF0
4440
4C80
43C0
5C20
ENDCHAR
STARTCHAR uni4FAC
ENCODING 20396
SWIDTH 1000 0
DWIDTH 13 0
BBX 12 12 0 -2
BITMAP
2100
2100
3FF0
5120
4300
C520
4D40
5480
6480
4440
4720
4410
ENDCHAR
STARTCHAR uni4FAD
ENCODING 20397
SWIDTH 1000 0
DWIDTH 13 0
BBX 12 12 0 -2
BITMAP
2FE0
2820
2820
4FE0
4880
C880
4A40
51A0
5490
6200
4180
4080
ENDCHAR
STARTCHAR uni4FAE
ENCODING 20398
SWIDTH 1000 0
DWIDTH 13 0
BBX 12 12 0 -2
BITMAP
2400
27F0
2800
57E0
4520
C4A0
5FF0
4920
48A0
4FF0
4840
41C0
ENDCHAR
STARTCHAR uni4FAF
ENCODING 20399
SWIDTH 1000 0
DWIDTH 13 0
BBX 12 12 0 -2
BITMAP
2040
2FE0
2040
5FF0
4400
C7E0
4900
4120
5FF0
4280
4440
5830
ENDCHAR
STARTCHAR uni4FB0
ENCODING 20400
SWIDTH 1000 0
DWIDTH 13 0
BBX 12 12 0 -2
BITMAP
2FE0
2220
5FF0
4220
4220
CFE0
4400
4FE0
5420
4420
47E0
4420
ENDCHAR
STARTCHAR uni4FB1
ENCODING 20401
SWIDTH 1000 0
DWIDTH 13 0
BBX 12 12 0 -2
BITMAP
2FE0
2820
2820
4FE0
4000
C0E0
4F00
4100
4FE0
4100
4100
5FF0
ENDCHAR
STARTCHAR uni4FB2
ENCODING 20402
SWIDTH 1000 0
DWIDTH 13 0
BBX 12 12 0 -2
BITMAP
2820
2FF0
2800
4BE0
4800
CFF0
4A80
4AA0
4A40
4A40
53A0
6610
ENDCHAR
STARTCHAR uni4FB3
ENCODING 20403
SWIDTH 1000 0
DWIDTH 13 0
BBX 12 12 0 -2
BITMAP
2100
2540
2540
4540
4D40
CBA0
5110
4100
4FE0
4100
4100
5FF0
ENDCHAR
STARTCHAR uni4FB4
ENCODING 20404
SWIDTH 1000 0
DWIDTH 13 0
BBX 12 12 0 -2
BITMAP
0600
0900
30C0
DFB0
0000
7CA0
24A0
24A0
FEA0
24A0
2420
FEE0
ENDCHAR
STARTCHAR uni4FB5
ENCODING 20405
SWIDTH 1000 0
DWIDTH 13 0
BBX 12 12 0 -2
BITMAP
1040
27E0
2040
6FF0
A040
3FF0
3020
27C0
2280
2100
2280
2C70
ENDCHAR
STARTCHAR uni4FB6
ENCODING 20406
SWIDTH 1000 0
DWIDTH 13 0
BBX 12 12 0 -2
BITMAP
1420
17F0
2420
2420
67E0
A100
2A20
2FF0
2820
2820
2820
2FE0
ENDCHAR
STARTCHAR uni4FB7
ENCODING 20407
SWIDTH 1000 0
DWIDTH 13 0
BBX 12 12 0 -2
BITMAP
2820
2FF0
2820
4FE0
4800
CFF0
4820
4BA0
4AA0
4BA0
5020
60E0
ENDCHAR
STARTCHAR uni4FB8
ENCODING 20408
SWIDTH 1000 0
DWIDTH 13 0
BBX 12 12 0 -2
BITMAP
2020
2FF0
2000
4FE0
4820
C820
4FE0
4000
4840
4440
4480
5FF0
ENDCHAR
STARTCHAR uni4FB9
ENCODING 20409
SWIDTH 1000 0
DWIDTH 13 0
BBX 12 12 0 -2
BITMAP
2030
3DC0
2440
6440
69F0
AE40
2240
2A40
2BF0
2400
2A00
31F0
ENDCHAR
STARTCHAR uni4FBA
ENCODING 20410
SWIDTH 1000 0
DWIDTH 13 0
BBX 12 12 0 -2
BITMAP
2100
2920
2920
4FE0
4100
C280
4440
5930
4FC0
4040
4080
4080
ENDCHAR
STARTCHAR uni4FBB
ENCODING 20411
SWIDTH 1000 0
DWIDTH 13 0
BBX 12 12 0 -2
BITMAP
1440
1240
2280
2FE0
6820
A820
2FE0
2280
2280
2290
2490
38F0
ENDCHAR
STARTCHAR uni4FBC
ENCODING 20412
SWIDTH 1000 0
DWIDTH 13 0
BBX 12 12 0 -2
BITMAP
2100
2FE0
2100
5FF0
5010
CFE0
4080
4100
5FF0
4100
4100
4300
ENDCHAR
STARTCHAR uni4FBD
ENCODING 20413
SWIDTH 1000 0
DWIDTH 13 0
BBX 12 12 0 -2
BITMAP
17F0
1490
27F0
2490
67F0
A000
2100
2FF0
2110
2210
2410
28E0
ENDCHAR
STARTCHAR uni4FBE
ENCODING 20414
SWIDTH 1000 0
DWIDTH 13 0
BBX 12 12 0 -2
BITMAP
2220
2FA0
4240
5FF0
4100
CFC0
4480
4900
5FF0
4100
4100
4300
ENDCHAR
STARTCHAR uni4FBF
ENCODING 20415
SWIDTH 1000 0
DWIDTH 13 0
BBX 12 12 0 -2
BITMAP
2020
3FF0
2100
4FE0
4920
CFE0
4920
4FE0
4500
4200
4580
5870
ENDCHAR
STARTCHAR uni4FC0
ENCODING 20416
SWIDTH 1000 0
DWIDTH 13 0
BBX 12 12 0 -2
BITMAP
1070
1F80
2920
24A0
6040
A100
2FF0
2240
2740
2080
2160
3E10
ENDCHAR
STARTCHAR uni4FC1
ENCODING 20417
SWIDTH 1000 0
DWIDTH 13 0
BBX 12 12 0 -2
BITMAP
2000
27C0
5440
57C0
D000
5FE0
4120
4120
5FF0
4280
4440
5830
ENDCHAR
STARTCHAR uni4FC2
ENCODING 20418
SWIDTH 1000 0
DWIDTH 13 0
BBX 12 12 0 -2
BITMAP
10F0
1F00
2240
6440
6F80
A120
2FF0
2110
2540
2520
2910
2100
ENDCHAR
STARTCHAR uni4FC3
ENCODING 20419
SWIDTH 1000 0
DWIDTH 13 0
BBX 12 12 0 -2
BITMAP
2820
2FF0
2820
4820
4FE0
C100
4900
49F0
4900
4D00
4B00
50F0
ENDCHAR
STARTCHAR uni4FC4
ENCODING 20420
SWIDTH 1000 0
DWIDTH 13 0
BBX 12 12 0 -2
BITMAP
2280
2CA0
2490
4480
DFF0
4480
46A0
4CA0
5440
44D0
4530
5C10
ENDCHAR
STARTCHAR uni4FC5
ENCODING 20421
SWIDTH 1000 0
DWIDTH 13 0
BBX 12 12 0 -2
BITMAP
2100
2140
2120
5FF0
4100
C920
4540
4380
4D40
5130
4100
4700
ENDCHAR
STARTCHAR uni4FC6
ENCODING 20422
SWIDTH 1000 0
DWIDTH 13 0
BBX 12 12 0 -2
BITMAP
2100
2280
4440
4820
57D0
C100
5FF0
4100
4540
4920
5110
4300
ENDCHAR
STARTCHAR uni4FC7
ENCODING 20423
SWIDTH 1000 0
DWIDTH 13 0
BBX 12 12 0 -2
BITMAP
2200
2BF0
2440
4C40
5240
C3F0
4640
4A40
5240
4240
4240
4DF0
ENDCHAR
STARTCHAR uni4FC8
ENCODING 20424
SWIDTH 1000 0
DWIDTH 13 0
BBX 12 12 0 -2
BITMAP
2500
2500
2FE0
4900
5100
DFF0
4000
4FE0
4820
4820
4FE0
4820
ENDCHAR
STARTCHAR uni4FC9
ENCODING 20425
SWIDTH 1000 0
DWIDTH 13 0
BBX 12 12 0 -2
BITMAP
2000
2FE0
4200
4FC0
4240
C240
5FF0
4000
4FE0
4820
4820
4FE0
ENDCHAR
STARTCHAR uni4FCA
ENCODING 20426
SWIDTH 1000 0
DWIDTH 13 0
BBX 12 12 0 -2
BITMAP
2280
2440
5FE0
44A0
C480
4AF0
5400
47C0
5A80
4100
46C0
5830
ENDCHAR
STARTCHAR uni4FCB
ENCODING 20427
SWIDTH 1000 0
DWIDTH 13 0
BBX 12 12 0 -2
BITMAP
2000
2FC0
2840
4FC0
4000
CFE0
4920
4FE0
4800
4810
4810
4FF0
ENDCHAR
STARTCHAR uni4FCC
ENCODING 20428
SWIDTH 1000 0
DWIDTH 13 0
BBX 12 12 0 -2
BITMAP
2120
3FF0
2100
4FE0
4920
C920
4FE0
4920
4FE0
4920
4920
4960
ENDCHAR
STARTCHAR uni4FCD
ENCODING 20429
SWIDTH 1000 0
DWIDTH 13 0
BBX 12 12 0 -2
BITMAP
2100
2FE0
2820
4FE0
4820
C820
4FE0
4910
48A0
4840
4F20
5810
ENDCHAR
STARTCHAR uni4FCE
ENCODING 20430
SWIDTH 1000 0
DWIDTH 13 0
BBX 12 12 0 -2
BITMAP
2220
23F0
2220
3220
4BE0
8220
2220
23E0
3220
4A20
8220
8FF0
ENDCHAR
STARTCHAR uni4FCF
ENCODING 20431
SWIDTH 1000 0
DWIDTH 13 0
BBX 11 12 0 -2
BITMAP
2100
2920
2540
2500
6FE0
A820
2FE0
2820
2FE0
2820
2820
28E0
ENDCHAR
STARTCHAR uni4FD0
ENCODING 20432
SWIDTH 1000 0
DWIDTH 13 0
BBX 11 12 0 -2
BITMAP
2320
2C20
24A0
5FA0
44A0
C6A0
4DA0
54A0
64A0
4420
4420
44E0
ENDCHAR
STARTCHAR uni4FD1
ENCODING 20433
SWIDTH 1000 0
DWIDTH 13 0
BBX 11 12 0 -2
BITMAP
2040
2FE0
2140
4080
4FE0
C920
4FE0
4920
4FE0
4920
4920
4960
ENDCHAR
STARTCHAR uni4FD2
ENCODING 20434
SWIDTH 1000 0
DWIDTH 13 0
BBX 12 12 0 -2
BITMAP
2100
3FF0
5010
4000
C7C0
4000
5FF0
4480
4480
4490
4890
50F0
ENDCHAR
STARTCHAR uni4FD3
ENCODING 20435
SWIDTH 1000 0
DWIDTH 13 0
BBX 12 12 0 -2
BITMAP
2000
2FE0
4520
4540
4A80
C540
4520
4000
4FE0
4100
4100
5FF0
ENDCHAR
STARTCHAR uni4FD4
ENCODING 20436
SWIDTH 1000 0
DWIDTH 13 0
BBX 12 12 0 -2
BITMAP
2820
2FF0
2820
4FE0
4820
CFE0
4820
4FE0
4280
4290
4490
5870
ENDCHAR
STARTCHAR uni4FD5
ENCODING 20437
SWIDTH 1000 0
DWIDTH 13 0
BBX 12 12 0 -2
BITMAP
2100
2FF0
2810
4100
4100
CFF0
4100
4380
4540
4920
5110
4100
ENDCHAR
STARTCHAR uni4FD6
ENCODING 20438
SWIDTH 1000 0
DWIDTH 13 0
BBX 12 12 0 -2
BITMAP
1000
17F0
2080
2140
6320
A510
3900
27E0
2420
2420
27E0
2420
ENDCHAR
STARTCHAR uni4FD7
ENCODING 20439
SWIDTH 1000 0
DWIDTH 13 0
BBX 12 12 0 -2
BITMAP
1280
1440
2820
2100
6280
A440
2830
37C0
2440
2440
27C0
2440
ENDCHAR
STARTCHAR uni4FD8
ENCODING 20440
SWIDTH 1000 0
DWIDTH 13 0
BBX 12 12 0 -2
BITMAP
20E0
2F20
2920
4540
4FE0
C080
4100
5FF0
4100
4100
4100
4700
ENDCHAR
STARTCHAR uni4FD9
ENCODING 20441
SWIDTH 1000 0
DWIDTH 13 0
BBX 12 12 0 -2
BITMAP
2660
2180
2E40
4220
5FF0
C400
4900
5FE0
6520
4520
4560
4100
ENDCHAR
STARTCHAR uni4FDA
ENCODING 20442
SWIDTH 1000 0
DWIDTH 13 0
BBX 12 12 0 -2
BITMAP
2820
2FF0
4920
4FE0
4920
CFE0
4920
4100
4FE0
4100
4120
5FF0
ENDCHAR
STARTCHAR uni4FDB
ENCODING 20443
SWIDTH 1000 0
DWIDTH 13 0
BBX 12 12 0 -2
BITMAP
2200
2780
4880
5FE0
4920
C920
4FE0
4AA0
4280
4290
4490
58F0
ENDCHAR
STARTCHAR uni4FDC
ENCODING 20444
SWIDTH 1000 0
DWIDTH 13 0
BBX 12 12 0 -2
BITMAP
2100
2FE0
2920
4FE0
4920
CFE0
5FF0
4400
47E0
4420
4040
41C0
ENDCHAR
STARTCHAR uni4FDD
ENCODING 20445
SWIDTH 1000 0
DWIDTH 13 0
BBX 12 12 0 -2
BITMAP
2840
2FE0
2840
4840
4FC0
C100
5FF0
4300
4580
4940
5130
4100
ENDCHAR
STARTCHAR uni4FDE
ENCODING 20446
SWIDTH 1000 0
DWIDTH 13 0
BBX 12 12 0 -2
BITMAP
0600
0900
1080
3FC0
C030
7D20
4520
7D20
4520
7D20
4420
4CE0
ENDCHAR
STARTCHAR uni4FDF
ENCODING 20447
SWIDTH 1000 0
DWIDTH 13 0
BBX 12 12 0 -2
BITMAP
3200
2240
2420
5FF0
4410
C7E0
4900
5FF0
4100
4280
4440
5830
ENDCHAR
STARTCHAR uni4FE0
ENCODING 20448
SWIDTH 1000 0
DWIDTH 13 0
BBX 12 12 0 -2
BITMAP
3100
2120
3FF0
4100
4920
C920
5750
4100
4280
4440
4820
5010
ENDCHAR
STARTCHAR uni4FE1
ENCODING 20449
SWIDTH 1000 0
DWIDTH 13 0
BBX 12 12 0 -2
BITMAP
1200
1120
2FF0
2000
67E0
A000
27E0
2000
27E0
2420
27E0
2420
ENDCHAR
STARTCHAR uni4FE2
ENCODING 20450
SWIDTH 1000 0
DWIDTH 13 0
BBX 12 12 0 -2
BITMAP
1200
13F0
2440
2A80
6180
A670
3980
2E40
21A0
2E40
2180
2E00
ENDCHAR
STARTCHAR uni4FE3
ENCODING 20451
SWIDTH 1000 0
DWIDTH 13 0
BBX 12 12 0 -2
BITMAP
2FE0
2820
2820
4FE0
4000
CFE0
4100
5FF0
4100
4280
4440
5830
ENDCHAR
STARTCHAR uni4FE4
ENCODING 20452
SWIDTH 1000 0
DWIDTH 13 0
BBX 12 12 0 -2
BITMAP
2440
2280
5FE0
4120
4FE0
C920
4900
5FF0
4510
4910
5160
4100
ENDCHAR
STARTCHAR uni4FE5
ENCODING 20453
SWIDTH 1000 0
DWIDTH 13 0
BBX 12 12 0 -2
BITMAP
2100
2FF0
4100
4FE0
C920
4FE0
4920
4FE0
4100
5FF0
4100
4100
ENDCHAR
STARTCHAR uni4FE6
ENCODING 20454
SWIDTH 1000 0
DWIDTH 13 0
BBX 12 12 0 -2
BITMAP
2200
3FF0
2200
4FE0
4200
DFF0
4440
4FF0
4A40
5140
6040
40C0
ENDCHAR
STARTCHAR uni4FE7
ENCODING 20455
SWIDTH 1000 0
DWIDTH 13 0
BBX 12 12 0 -2
BITMAP
2100
2100
5FF0
4100
4100
CFE0
4000
4500
54A0
5410
5440
43C0
ENDCHAR
STARTCHAR uni4FE8
ENCODING 20456
SWIDTH 1000 0
DWIDTH 13 0
BBX 12 12 0 -2
BITMAP
2020
3FF0
2280
4AA0
5FF0
D000
5000
5000
5000
5000
5000
6000
ENDCHAR
STARTCHAR uni4FE9
ENCODING 20457
SWIDTH 1000 0
DWIDTH 13 0
BBX 12 12 0 -2
BITMAP
1020
1FF0
2280
2FF0
6A90
AA90
2A90
2D50
2930
2810
2810
2830
ENDCHAR
STARTCHAR uni4FEA
ENCODING 20458
SWIDTH 1000 0
DWIDTH 13 0
BBX 12 12 0 -2
BITMAP
2020
3FF0
2000
5EF0
5290
D290
5AD0
56B0
5290
5290
5290
56B0
ENDCHAR
STARTCHAR uni4FEB
ENCODING 20459
SWIDTH 1000 0
DWIDTH 13 0
BBX 12 12 0 -2
BITMAP
2100
2100
2FE0
4100
4920
C540
5FF0
4300
4580
4940
7130
4100
ENDCHAR
STARTCHAR uni4FEC
ENCODING 20460
SWIDTH 1000 0
DWIDTH 13 0
BBX 12 12 0 -2
BITMAP
2340
2C40
4440
5F40
C440
4C80
4E80
54A0
6520
4570
4790
4410
ENDCHAR
STARTCHAR uni4FED
ENCODING 20461
SWIDTH 1000 0
DWIDTH 13 0
BBX 12 12 0 -2
BITMAP
2100
2280
2440
4820
57D0
C000
4220
4920
4540
4440
4080
5FF0
ENDCHAR
STARTCHAR uni4FEE
ENCODING 20462
SWIDTH 1000 0
DWIDTH 13 0
BBX 12 12 0 -2
BITMAP
2220
23F0
5440
5A80
D180
5E70
5180
5640
51A0
5640
5180
4600
ENDCHAR
STARTCHAR uni4FEF
ENCODING 20463
SWIDTH 1000 0
DWIDTH 13 0
BBX 12 12 0 -2
BITMAP
2080
2FF0
4920
4A20
4BF0
CE20
4A20
4AA0
4AA0
5220
5220
62E0
ENDCHAR
STARTCHAR uni4FF0
ENCODING 20464
SWIDTH 1000 0
DWIDTH 13 0
BBX 12 12 0 -2
BITMAP
2300
3C00
24F0
4490
5F90
C490
4E90
4D90
5490
5490
44F0
4400
ENDCHAR
STARTCHAR uni4FF1
ENCODING 20465
SWIDTH 1000 0
DWIDTH 13 0
BBX 12 12 0 -2
BITMAP
1420
17F0
2420
27E0
6420
A420
27E0
2420
3FF0
2240
2420
3810
ENDCHAR
STARTCHAR uni4FF2
ENCODING 20466
SWIDTH 1000 0
DWIDTH 13 0
BBX 12 12 0 -2
BITMAP
2440
2440
5F40
4AF0
C950
5250
4A50
4450
4490
4A90
5110
4260
ENDCHAR
STARTCHAR uni4FF3
ENCODING 20467
SWIDTH 1000 0
DWIDTH 13 0
BBX 12 12 0 -2
BITMAP
2280
2280
2EF0
6280
6280
AEF0
2280
2680
3AF0
2480
2880
3080
ENDCHAR
STARTCHAR uni4FF4
ENCODING 20468
SWIDTH 1000 0
DWIDTH 13 0
BBX 12 12 0 -2
BITMAP
2280
2240
2FF0
4240
4190
DE70
4280
4270
5F80
4150
4290
5C70
ENDCHAR
STARTCHAR uni4FF5
ENCODING 20469
SWIDTH 1000 0
DWIDTH 13 0
BBX 12 12 0 -2
BITMAP
2100
2FE0
4100
4FE0
C100
5FF0
4300
4560
5C80
4540
4620
5810
ENDCHAR
STARTCHAR uni4FF6
ENCODING 20470
SWIDTH 1000 0
DWIDTH 13 0
BBX 12 12 0 -2
BITMAP
2800
29F0
4EA0
48A0
C8A0
7FA0
44A0
5640
5540
6540
5CA0
4310
ENDCHAR
STARTCHAR uni4FF7
ENCODING 20471
SWIDTH 1000 0
DWIDTH 13 0
BBX 12 12 0 -2
BITMAP
2510
3DF0
5550
5550
DD50
55F0
5500
5D00
5500
5510
5510
6DF0
ENDCHAR
STARTCHAR uni4FF8
ENCODING 20472
SWIDTH 1000 0
DWIDTH 13 0
BBX 12 12 0 -2
BITMAP
2100
2FE0
2200
4FE0
4200
DFF0
4920
57D0
4100
5FE0
4100
4100
ENDCHAR
STARTCHAR uni4FF9
ENCODING 20473
SWIDTH 1000 0
DWIDTH 13 0
BBX 12 12 0 -2
BITMAP
2020
2FF0
4280
4280
CEE0
4820
4820
4EE0
4AA0
4280
4280
5FF0
ENDCHAR
STARTCHAR uni4FFA
ENCODING 20474
SWIDTH 1000 0
DWIDTH 13 0
BBX 12 12 0 -2
BITMAP
2200
2220
5FF0
4440
C920
5FD0
6940
4FC0
4940
4FD0
4110
41F0
ENDCHAR
STARTCHAR uni4FFB
ENCODING 20475
SWIDTH 1000 0
DWIDTH 13 0
BBX 12 12 0 -2
BITMAP
2400
27E0
2C20
5240
4180
DE70
4000
4FE0
4920
4FE0
4920
4FE0
ENDCHAR
STARTCHAR uni4FFC
ENCODING 20476
SWIDTH 1000 0
DWIDTH 13 0
BBX 12 12 0 -2
BITMAP
2100
2FF0
4200
4420
CFF0
4010
4FE0
4820
4F20
49E0
4820
4860
ENDCHAR
STARTCHAR uni4FFD
ENCODING 20477
SWIDTH 1000 0
DWIDTH 13 0
BBX 12 12 0 -2
BITMAP
2680
3880
5080
5EF0
5510
D550
5440
5440
5440
54A0
64A0
4110
ENDCHAR
STARTCHAR uni4FFE
ENCODING 20478
SWIDTH 1000 0
DWIDTH 13 0
BBX 12 12 0 -2
BITMAP
1100
2FE0
2920
6FE0
6920
AFE0
2A20
2480
3FF0
2080
2080
2080
ENDCHAR
STARTCHAR uni4FFF
ENCODING 20479
SWIDTH 1000 0
DWIDTH 13 0
BBX 12 12 0 -2
BITMAP
21E0
2100
4FF0
4910
C9C0
4F20
49E0
4800
4A40
5250
5450
6870
ENDCHAR
STARTCHAR uni5000
ENCODING 20480
SWIDTH 1000 0
DWIDTH 13 0
BBX 12 12 0 -2
BITMAP
17E0
1400
27E0
2400
67E0
A400
3FF0
2520
24C0
2480
2F40
2830
ENDCHAR
STARTCHAR uni5001
ENCODING 20481
SWIDTH 1000 0
DWIDTH 13 0
BBX 12 12 0 -2
BITMAP
2800
2800
2EF0
5490
4490
DF90
4490
4490
4A90
4A90
51F0
6090
ENDCHAR
STARTCHAR uni5002
ENCODING 20482
SWIDTH 1000 0
DWIDTH 13 0
BBX 12 12 0 -2
BITMAP
2220
2440
5EF0
4440
C440
4440
4640
5DF0
4440
4440
4840
5040
ENDCHAR
STARTCHAR uni5003
ENCODING 20483
SWIDTH 1000 0
DWIDTH 13 0
BBX 12 12 0 -2
BITMAP
2840
2E40
4A40
5AA0
E510
4A00
51F0
4000
4FE0
4820
4820
4FE0
ENDCHAR
STARTCHAR uni5004
ENCODING 20484
SWIDTH 1000 0
DWIDTH 13 0
BBX 12 12 0 -2
BITMAP
2C60
2380
4C60
4200
DFF0
4400
4FE0
5420
47A0
44E0
4420
4460
ENDCHAR
STARTCHAR uni5005
ENCODING 20485
SWIDTH 1000 0
DWIDTH 13 0
BBX 12 12 0 -2
BITMAP
2200
2120
3FF0
4440
4440
CAA0
5110
4100
5FF0
4100
4100
4100
ENDCHAR
STARTCHAR uni5006
ENCODING 20486
SWIDTH 1000 0
DWIDTH 13 0
BBX 12 12 0 -2
BITMAP
2020
3FF0
6100
6FF0
A910
2DD0
2D50
2D50
2BB0
2910
2910
2970
ENDCHAR
STARTCHAR uni5007
ENCODING 20487
SWIDTH 1000 0
DWIDTH 13 0
BBX 12 12 0 -2
BITMAP
2200
2100
5FF0
5410
44E0
CFA0
4AA0
56A0
42E0
4490
4890
50F0
ENDCHAR
STARTCHAR uni5008
ENCODING 20488
SWIDTH 1000 0
DWIDTH 13 0
BBX 12 12 0 -2
BITMAP
2100
2100
5FF0
4940
C940
55A0
6110
4380
4540
4920
5110
4100
ENDCHAR
STARTCHAR uni5009
ENCODING 20489
SWIDTH 1000 0
DWIDTH 13 0
BBX 12 12 0 -2
BITMAP
0600
0900
1280
3FF0
D040
1FC0
1040
1FC0
3000
3FC0
5040
9FC0
ENDCHAR
STARTCHAR uni500A
ENCODING 20490
SWIDTH 1000 0
DWIDTH 13 0
BBX 12 12 0 -2
BITMAP
2380
2480
2A40
5230
4440
C9E0
5E20
4100
44A0
4C50
5450
47C0
ENDCHAR
STARTCHAR uni500B
ENCODING 20491
SWIDTH 1000 0
DWIDTH 13 0
BBX 11 12 0 -2
BITMAP
2820
2FE0
2920
6FE0
6920
A920
2BA0
2AA0
2BA0
2820
2FE0
2820
ENDCHAR
STARTCHAR uni500C
ENCODING 20492
SWIDTH 1000 0
DWIDTH 13 0
BBX 12 12 0 -2
BITMAP
1100
1080
2FF0
2820
67C0
A440
27C0
2400
27E0
2420
27E0
2420
ENDCHAR
STARTCHAR uni500D
ENCODING 20493
SWIDTH 1000 0
DWIDTH 13 0
BBX 12 12 0 -2
BITMAP
2200
2120
2FF0
6440
6280
BFF0
2000
27E0
2420
2420
27E0
2420
ENDCHAR
STARTCHAR uni500E
ENCODING 20494
SWIDTH 1000 0
DWIDTH 13 0
BBX 12 12 0 -2
BITMAP
2280
2280
2FE0
4AA0
4AA0
CFE0
4AA0
4AA0
5FF0
4440
4820
5010
ENDCHAR
STARTCHAR uni500F
ENCODING 20495
SWIDTH 1000 0
DWIDTH 13 0
BBX 12 12 0 -2
BITMAP
2200
23E0
5440
5A80
D180
5670
5140
5FF0
5100
5280
5440
4830
ENDCHAR
STARTCHAR uni5010
ENCODING 20496
SWIDTH 1000 0
DWIDTH 13 0
BBX 12 12 0 -2
BITMAP
2200
23E0
5420
5A40
D180
5E70
5100
5520
5540
5180
4240
4C30
ENDCHAR
STARTCHAR uni5011
ENCODING 20497
SWIDTH 1000 0
DWIDTH 13 0
BBX 12 12 0 -2
BITMAP
2A90
2EF0
2A90
6EF0
6A90
AEF0
2810
2810
2810
2810
2810
2870
ENDCHAR
STARTCHAR uni5012
ENCODING 20498
SWIDTH 1000 0
DWIDTH 13 0
BBX 12 12 0 -2
BITMAP
2110
3F90
4450
4950
DF50
4450
4450
5F50
4450
4710
5C10
4070
ENDCHAR
STARTCHAR uni5013
ENCODING 20499
SWIDTH 1000 0
DWIDTH 13 0
BBX 12 12 0 -2
BITMAP
2100
2520
2540
2980
6240
AD20
2120
2540
2980
2280
2440
3830
ENDCHAR
STARTCHAR uni5014
ENCODING 20500
SWIDTH 1000 0
DWIDTH 13 0
BBX 12 12 0 -2
BITMAP
2FE0
2820
2820
6FE0
6880
AAA0
2AA0
2BE0
2880
3490
2490
27F0
ENDCHAR
STARTCHAR uni5015
ENCODING 20501
SWIDTH 1000 0
DWIDTH 13 0
BBX 12 12 0 -2
BITMAP
20E0
2F00
2100
6FF0
6540
A540
3FF0
2540
2540
3FF0
2100
2FF0
ENDCHAR
STARTCHAR uni5016
ENCODING 20502
SWIDTH 1000 0
DWIDTH 13 0
BBX 12 12 0 -2
BITMAP
2100
2FE0
4100
5FF0
4840
C480
5FF0
4100
5FE0
4100
4100
4100
ENDCHAR
STARTCHAR uni5017
ENCODING 20503
SWIDTH 1000 0
DWIDTH 13 0
BBX 12 12 0 -2
BITMAP
2AA0
2EF0
4AA0
4AE0
CEA0
4AA0
4AA0
4EE0
4AA0
52A0
56E0
6320
ENDCHAR
STARTCHAR uni5018
ENCODING 20504
SWIDTH 1000 0
DWIDTH 13 0
BBX 12 12 0 -2
BITMAP
2100
2920
2520
6540
6FF0
A820
2BA0
2AA0
2AA0
2BA0
2820
2860
ENDCHAR
STARTCHAR uni5019
ENCODING 20505
SWIDTH 1000 0
DWIDTH 13 0
BBX 12 12 0 -2
BITMAP
27C0
2040
5040
5FF0
D200
57E0
5880
57F0
5080
5140
5220
4C10
ENDCHAR
STARTCHAR uni501A
ENCODING 20506
SWIDTH 1000 0
DWIDTH 13 0
BBX 12 12 0 -2
BITMAP
2100
2120
5FF0
4280
C440
5FF0
4020
4F20
4920
4F20
4020
40E0
ENDCHAR
STARTCHAR uni501B
ENCODING 20507
SWIDTH 1000 0
DWIDTH 13 0
BBX 12 12 0 -2
BITMAP
2440
2440
3FF0
4440
47C0
C440
47C0
4440
5FF0
4240
4420
5810
ENDCHAR
STARTCHAR uni501C
ENCODING 20508
SWIDTH 1000 0
DWIDTH 13 0
BBX 12 12 0 -2
BITMAP
2810
2FF0
2910
4FD0
4910
CFD0
4910
4BD0
4A50
4BD0
5010
6070
ENDCHAR
STARTCHAR uni501D
ENCODING 20509
SWIDTH 1000 0
DWIDTH 13 0
BBX 12 12 0 -2
BITMAP
1080
FE80
1080
7C80
4480
7C80
4480
7C80
1140
FD40
1220
1410
ENDCHAR
STARTCHAR uni501E
ENCODING 20510
SWIDTH 1000 0
DWIDTH 13 0
BBX 12 12 0 -2
BITMAP
2200
2120
3FF0
6000
6FE0
A820
2820
2FE0
2540
2920
3110
2700
ENDCHAR
STARTCHAR uni501F
ENCODING 20511
SWIDTH 1000 0
DWIDTH 13 0
BBX 12 12 0 -2
BITMAP
1240
1240
2FF0
2240
6FF0
A000
27E0
2420
27E0
2420
27E0
2420
ENDCHAR
STARTCHAR uni5020
ENCODING 20512
SWIDTH 1000 0
DWIDTH 13 0
BBX 12 12 0 -2
BITMAP
2500
2480
2FF0
4900
5900
CFE0
4900
4900
4FE0
4900
4FF0
4800
ENDCHAR
STARTCHAR uni5021
ENCODING 20513
SWIDTH 1000 0
DWIDTH 13 0
BBX 12 12 0 -2
BITMAP
17E0
1420
27E0
2420
67E0
A000
2FF0
2810
2FF0
2810
2FF0
2810
ENDCHAR
STARTCHAR uni5022
ENCODING 20514
SWIDTH 1000 0
DWIDTH 13 0
BBX 12 12 0 -2
BITMAP
2100
2FF0
2100
4FE0
4120
DFF0
4120
4FE0
4900
4DF0
5300
61F0
ENDCHAR
STARTCHAR uni5023
ENCODING 20515
SWIDTH 1000 0
DWIDTH 13 0
BBX 12 12 0 -2
BITMAP
2880
2480
5EF0
48A0
49A0
CEA0
4AA0
4A40
5240
5240
6CA0
4310
ENDCHAR
STARTCHAR uni5024
ENCODING 20516
SWIDTH 1000 0
DWIDTH 13 0
BBX 12 12 0 -2
BITMAP
2080
2FF0
4080
43E0
CA20
4BE0
4A20
4BE0
4A20
4BE0
4800
4FF0
ENDCHAR
STARTCHAR uni5025
ENCODING 20517
SWIDTH 1000 0
DWIDTH 13 0
BBX 12 12 0 -2
BITMAP
1100
2080
2FF0
5AA0
4280
C480
4870
4000
4FE0
4100
4100
5FF0
ENDCHAR
STARTCHAR uni5026
ENCODING 20518
SWIDTH 1000 0
DWIDTH 13 0
BBX 12 12 0 -2
BITMAP
2940
2540
4280
5FE0
4200
FFF0
4820
7790
4480
45A0
4420
47E0
ENDCHAR
STARTCHAR uni5027
ENCODING 20519
SWIDTH 1000 0
DWIDTH 13 0
BBX 12 12 0 -2
BITMAP
2200
2100
2FF0
5820
47C0
C000
4FF0
4100
4540
4920
5110
4700
ENDCHAR
STARTCHAR uni5028
ENCODING 20520
SWIDTH 1000 0
DWIDTH 13 0
BBX 12 12 0 -2
BITMAP
2820
2FF0
2820
6FE0
6880
AFF0
2880
2FE0
2C20
3420
37E0
2420
ENDCHAR
STARTCHAR uni5029
ENCODING 20521
SWIDTH 1000 0
DWIDTH 13 0
BBX 12 12 0 -2
BITMAP
2100
2FF0
2100
6FE0
6100
BFF0
2420
27E0
2420
27E0
2420
2460
ENDCHAR
STARTCHAR uni502A
ENCODING 20522
SWIDTH 1000 0
DWIDTH 13 0
BBX 12 12 0 -2
BITMAP
2220
2CF0
2820
4EE0
4820
C820
4FE0
4280
4280
4490
4890
50F0
ENDCHAR
STARTCHAR uni502B
ENCODING 20523
SWIDTH 1000 0
DWIDTH 13 0
BBX 12 12 0 -2
BITMAP
2100
2280
2440
4FA0
5010
CFE0
4AA0
4AA0
4FE0
4AA0
4AA0
4860
ENDCHAR
STARTCHAR uni502C
ENCODING 20524
SWIDTH 1000 0
DWIDTH 13 0
BBX 12 12 0 -2
BITMAP
2100
21E0
2100
4FE0
4820
CFE0
4820
4FE0
4100
5FF0
4100
4100
ENDCHAR
STARTCHAR uni502D
ENCODING 20525
SWIDTH 1000 0
DWIDTH 13 0
BBX 12 12 0 -2
BITMAP
20E0
2F00
2120
7FF0
6540
B930
2200
3FF0
2440
2F80
2160
2E20
ENDCHAR
STARTCHAR uni502E
ENCODING 20526
SWIDTH 1000 0
DWIDTH 13 0
BBX 12 12 0 -2
BITMAP
2FE0
2920
2FE0
4920
4FE0
C100
5FF0
4180
4340
4520
4910
5100
ENDCHAR
STARTCHAR uni502F
ENCODING 20527
SWIDTH 1000 0
DWIDTH 13 0
BBX 12 12 0 -2
BITMAP
2820
2960
4920
5F20
C920
4DD0
5A90
5880
6920
4910
4BF0
4A10
ENDCHAR
STARTCHAR uni5030
ENCODING 20528
SWIDTH 1000 0
DWIDTH 13 0
BBX 12 12 0 -2
BITMAP
2100
2FE0
2100
5FF0
4280
C4F0
5A00
47C0
4A80
5100
4280
5C70
ENDCHAR
STARTCHAR uni5031
ENCODING 20529
SWIDTH 1000 0
DWIDTH 13 0
BBX 12 12 0 -2
BITMAP
2820
2FF0
2820
4FE0
4820
CFE0
4880
4EB0
48C0
4890
4E90
58F0
ENDCHAR
STARTCHAR uni5032
ENCODING 20530
SWIDTH 1000 0
DWIDTH 13 0
BBX 12 12 0 -2
BITMAP
2100
3FF0
4100
4FE0
C920
4FE0
4920
4FE0
4580
4940
5130
4100
ENDCHAR
STARTCHAR uni5033
ENCODING 20531
SWIDTH 1000 0
DWIDTH 13 0
BBX 12 12 0 -2
BITMAP
2100
2FF0
2100
6FE0
6920
AFE0
2120
3FF0
2120
2FE0
2100
2700
ENDCHAR
STARTCHAR uni5034
ENCODING 20532
SWIDTH 1000 0
DWIDTH 13 0
BBX 12 12 0 -2
BITMAP
2200
3FF0
2480
4940
57B0
C100
4540
4440
5FF0
4440
4840
5040
ENDCHAR
STARTCHAR uni5035
ENCODING 20533
SWIDTH 1000 0
DWIDTH 13 0
BBX 12 12 0 -2
BITMAP
2080
2FA0
20A0
5FF0
4280
C280
4B40
4A40
4A50
4BB0
5C10
4010
ENDCHAR
STARTCHAR uni5036
ENCODING 20534
SWIDTH 1000 0
DWIDTH 13 0
BBX 12 12 0 -2
BITMAP
27E0
2420
27E0
4420
47E0
C420
47E0
4000
5FF0
4240
4420
5810
ENDCHAR
STARTCHAR uni5037
ENCODING 20535
SWIDTH 1000 0
DWIDTH 13 0
BBX 12 12 0 -2
BITMAP
2200
2200
2FF0
4440
4BA0
D010
4FE0
4100
4540
4920
5110
4700
ENDCHAR
STARTCHAR uni5038
ENCODING 20536
SWIDTH 1000 0
DWIDTH 13 0
BBX 12 12 0 -2
BITMAP
20E0
2F20
2910
4890
5000
C100
5FF0
4380
4540
4920
5110
4100
ENDCHAR
STARTCHAR uni5039
ENCODING 20537
SWIDTH 1000 0
DWIDTH 13 0
BBX 12 12 0 -2
BITMAP
2100
2280
2440
5BB0
4100
CFE0
4920
4920
4FE0
4280
4440
5830
ENDCHAR
STARTCHAR uni503A
ENCODING 20538
SWIDTH 1000 0
DWIDTH 13 0
BBX 12 12 0 -2
BITMAP
2100
2FE0
2100
5FF0
4100
DFF0
4820
4920
4920
4A20
44C0
5820
ENDCHAR
STARTCHAR uni503B
ENCODING 20539
SWIDTH 1000 0
DWIDTH 13 0
BBX 12 12 0 -2
BITMAP
1000
1FF0
2A90
2EA0
6AC0
AAA0
2E90
2A90
2B90
3EF0
2280
2280
ENDCHAR
STARTCHAR uni503C
ENCODING 20540
SWIDTH 1000 0
DWIDTH 13 0
BBX 12 12 0 -2
BITMAP
2100
3FF0
2100
4FC0
4840
CFC0
4840
4FC0
4840
4FC0
4840
7FF0
ENDCHAR
STARTCHAR uni503D
ENCODING 20541
SWIDTH 1000 0
DWIDTH 13 0
BBX 12 12 0 -2
BITMAP
2100
2280
2440
4830
57C0
C100
5FF0
4100
4FE0
4820
4FE0
4820
ENDCHAR
STARTCHAR uni503E
ENCODING 20542
SWIDTH 1000 0
DWIDTH 13 0
BBX 12 12 0 -2
BITMAP
2020
37F0
5080
53E0
DE20
52A0
52A0
56A0
5AA0
5080
4120
4610
ENDCHAR
STARTCHAR uni503F
ENCODING 20543
SWIDTH 1000 0
DWIDTH 13 0
BBX 12 12 0 -2
BITMAP
2100
2FE0
2440
4280
5FF0
C200
5FF0
4240
4440
4280
4180
4E60
ENDCHAR
STARTCHAR uni5040
ENCODING 20544
SWIDTH 1000 0
DWIDTH 13 0
BBX 12 12 0 -2
BITMAP
2240
2FF0
2240
4100
4FE0
C920
4920
5FF0
4100
4280
4440
5830
ENDCHAR
STARTCHAR uni5041
ENCODING 20545
SWIDTH 1000 0
DWIDTH 13 0
BBX 12 12 0 -2
BITMAP
20E0
2F00
2910
64A0
6100
AFE0
2920
2FE0
2920
3FF0
2820
28E0
ENDCHAR
STARTCHAR uni5042
ENCODING 20546
SWIDTH 1000 0
DWIDTH 13 0
BBX 12 12 0 -2
BITMAP
2420
2240
5FF0
4000
CF50
4950
4F50
4950
4F50
4950
4910
4B30
ENDCHAR
STARTCHAR uni5043
ENCODING 20547
SWIDTH 1000 0
DWIDTH 13 0
BBX 12 12 0 -2
BITMAP
2820
2FF0
2A20
6BE0
6A20
ABE0
2900
2FE0
2B40
29C0
2A20
2FF0
ENDCHAR
STARTCHAR uni5044
ENCODING 20548
SWIDTH 1000 0
DWIDTH 13 0
BBX 12 12 0 -2
BITMAP
2FF0
2100
4FF0
4A90
CA90
4A90
4AB0
4100
5FF0
4280
4440
5830
ENDCHAR
STARTCHAR uni5045
ENCODING 20549
SWIDTH 1000 0
DWIDTH 13 0
BBX 12 12 0 -2
BITMAP
20E0
2F00
2100
5FF0
4100
CFE0
4920
4FE0
4920
5FF0
4100
5FF0
ENDCHAR
STARTCHAR uni5046
ENCODING 20550
SWIDTH 1000 0
DWIDTH 13 0
BBX 12 12 0 -2
BITMAP
2100
2FE0
2100
4FE0
4200
DFF0
4420
4FD0
5440
47C0
4440
47C0
ENDCHAR
STARTCHAR uni5047
ENCODING 20551
SWIDTH 1000 0
DWIDTH 13 0
BBX 12 12 0 -2
BITMAP
2820
2EF0
2A20
4A20
4EE0
C800
4EE0
48A0
4EA0
4840
48A0
4B10
ENDCHAR
STARTCHAR uni5048
ENCODING 20552
SWIDTH 1000 0
DWIDTH 13 0
BBX 12 12 0 -2
BITMAP
2FE0
2820
2FE0
6820
6FE0
A400
2FF0
3920
2AA0
2C20
2FA0
20E0
ENDCHAR
STARTCHAR uni5049
ENCODING 20553
SWIDTH 1000 0
DWIDTH 13 0
BBX 12 12 0 -2
BITMAP
2200
2FC0
2240
5FF0
4000
CFC0
4840
5FF0
4900
5FF0
4100
4100
ENDCHAR
STARTCHAR uni504A
ENCODING 20554
SWIDTH 1000 0
DWIDTH 13 0
BBX 12 12 0 -2
BITMAP
2FE0
2100
2FE0
4920
4FE0
C100
5FF0
4910
4950
4FF0
4810
4870
ENDCHAR
STARTCHAR uni504B
ENCODING 20555
SWIDTH 1000 0
DWIDTH 13 0
BBX 12 12 0 -2
BITMAP
2FF0
2810
4FF0
4A20
C940
4FF0
4940
4940
4FF0
4940
5240
6C40
ENDCHAR
STARTCHAR uni504C
ENCODING 20556
SWIDTH 1000 0
DWIDTH 13 0
BBX 12 12 0 -2
BITMAP
1480
2480
3FF0
6480
6200
BFF0
2400
27E0
2C20
3420
27E0
2420
ENDCHAR
STARTCHAR uni504D
ENCODING 20557
SWIDTH 1000 0
DWIDTH 13 0
BBX 12 12 0 -2
BITMAP
27E0
2420
27E0
6420
67E0
A000
3FF0
2500
25E0
2D00
2B00
31F0
ENDCHAR
STARTCHAR uni504E
ENCODING 20558
SWIDTH 1000 0
DWIDTH 13 0
BBX 12 12 0 -2
BITMAP
2FE0
2920
2FE0
4920
4FE0
C000
5FF0
4500
44A0
4440
4720
5810
ENDCHAR
STARTCHAR uni504F
ENCODING 20559
SWIDTH 1000 0
DWIDTH 13 0
BBX 12 12 0 -2
BITMAP
2FE0
2800
2FE0
6820
6FE0
A800
2FF0
2D50
37F0
3550
2550
2430
ENDCHAR
STARTCHAR uni5050
ENCODING 20560
SWIDTH 1000 0
DWIDTH 13 0
BBX 12 12 0 -2
BITMAP
2080
2FF0
2420
4240
4FF0
C8C0
4B00
4820
48C0
4B30
50C0
5700
ENDCHAR
STARTCHAR uni5051
ENCODING 20561
SWIDTH 1000 0
DWIDTH 13 0
BBX 12 12 0 -2
BITMAP
2820
2FF0
4820
4FA0
C920
4FE0
4D60
4FE0
4920
4960
57D0
6010
ENDCHAR
STARTCHAR uni5052
ENCODING 20562
SWIDTH 1000 0
DWIDTH 13 0
BBX 12 12 0 -2
BITMAP
27E0
2420
47E0
4420
C7E0
4000
4FF0
4400
4FF0
5490
4910
5660
ENDCHAR
STARTCHAR uni5053
ENCODING 20563
SWIDTH 1000 0
DWIDTH 13 0
BBX 12 12 0 -2
BITMAP
2FE0
2820
4FE0
4800
CFF0
4940
4A20
4FF0
4880
57E0
5080
6FF0
ENDCHAR
STARTCHAR uni5054
ENCODING 20564
SWIDTH 1000 0
DWIDTH 13 0
BBX 12 12 0 -2
BITMAP
2EF0
2A90
4EF0
4000
CFE0
4000
5FF0
4400
4FE0
4020
4020
40C0
ENDCHAR
STARTCHAR uni5055
ENCODING 20565
SWIDTH 1000 0
DWIDTH 13 0
BBX 12 12 0 -2
BITMAP
2880
28B0
2EC0
2890
6EF0
B900
27E0
2420
27E0
2420
2420
27E0
ENDCHAR
STARTCHAR uni5056
ENCODING 20566
SWIDTH 1000 0
DWIDTH 13 0
BBX 12 12 0 -2
BITMAP
2200
2220
2FA0
4240
5FF0
C100
47E0
5C20
47E0
4420
47E0
4420
ENDCHAR
STARTCHAR uni5057
ENCODING 20567
SWIDTH 1000 0
DWIDTH 13 0
BBX 12 12 0 -2
BITMAP
2100
2540
2520
6B50
7080
A3E0
3C20
27E0
2420
27E0
2420
27E0
ENDCHAR
STARTCHAR uni5058
ENCODING 20568
SWIDTH 1000 0
DWIDTH 13 0
BBX 12 12 0 -2
BITMAP
27C0
2440
2440
4440
47C0
C000
5EF0
5290
5290
5290
5EF0
5290
ENDCHAR
STARTCHAR uni5059
ENCODING 20569
SWIDTH 1000 0
DWIDTH 13 0
BBX 12 12 0 -2
BITMAP
2100
3FF0
2440
4280
5FF0
D110
4FE0
4920
4920
4920
4960
4100
ENDCHAR
STARTCHAR uni505A
ENCODING 20570
SWIDTH 1000 0
DWIDTH 13 0
BBX 12 12 0 -2
BITMAP
2880
2880
48A0
5EF0
C9A0
48A0
5EA0
5240
5240
5EA0
5120
4210
ENDCHAR
STARTCHAR uni505B
ENCODING 20571
SWIDTH 1000 0
DWIDTH 13 0
BBX 12 12 0 -2
BITMAP
20E0
2F00
2100
5FF0
4100
CDE0
4920
4DE0
4920
4920
4FE0
4820
ENDCHAR
STARTCHAR uni505C
ENCODING 20572
SWIDTH 1000 0
DWIDTH 13 0
BBX 12 12 0 -2
BITMAP
2100
3FF0
2000
4FC0
4840
CFC0
5FF0
7010
4FE0
4100
4100
4700
ENDCHAR
STARTCHAR uni505D
ENCODING 20573
SWIDTH 1000 0
DWIDTH 13 0
BBX 12 12 0 -2
BITMAP
2280
2EB0
22C0
4690
5AF0
CFE0
4820
4FE0
4820
4FE0
4820
48E0
ENDCHAR
STARTCHAR uni505E
ENCODING 20574
SWIDTH 1000 0
DWIDTH 13 0
BBX 12 12 0 -2
BITMAP
2A40
2A40
5FF0
4A40
CBC0
4FF0
4100
5FF0
4380
4540
5930
4100
ENDCHAR
STARTCHAR uni505F
ENCODING 20575
SWIDTH 1000 0
DWIDTH 13 0
BBX 12 12 0 -2
BITMAP
2100
2FE0
2820
4FE0
4820
CFE0
4000
5FF0
4100
4FE0
4100
5FF0
ENDCHAR
STARTCHAR uni5060
ENCODING 20576
SWIDTH 1000 0
DWIDTH 13 0
BBX 12 12 0 -2
BITMAP
2FF0
2280
4FE0
4AA0
4AA0
CFE0
4200
5FF0
4440
4F80
4140
5E20
ENDCHAR
STARTCHAR uni5061
ENCODING 20577
SWIDTH 1000 0
DWIDTH 13 0
BBX 12 12 0 -2
BITMAP
2440
3FF0
2440
47C0
4440
C7C0
4440
5FF0
4A80
4CE0
4800
4FF0
ENDCHAR
STARTCHAR uni5062
ENCODING 20578
SWIDTH 1000 0
DWIDTH 13 0
BBX 12 12 0 -2
BITMAP
2640
3C40
4440
5E40
C4D0
4D60
4E40
5440
64A0
44A0
4510
4610
ENDCHAR
STARTCHAR uni5063
ENCODING 20579
SWIDTH 1000 0
DWIDTH 13 0
BBX 12 12 0 -2
BITMAP
1200
1120
2FF0
2440
6280
BFF0
2000
27E0
2420
27E0
2420
27E0
ENDCHAR
STARTCHAR uni5064
ENCODING 20580
SWIDTH 1000 0
DWIDTH 13 0
BBX 12 12 0 -2
BITMAP
2440
2280
3FF0
4280
4FE0
CAA0
4AA0
4CE0
4820
4FE0
4820
4FE0
ENDCHAR
STARTCHAR uni5065
ENCODING 20581
SWIDTH 1000 0
DWIDTH 13 0
BBX 12 12 0 -2
BITMAP
2080
3BE0
48A0
4FF0
D0A0
5FE0
4480
57E0
4880
4BF0
5480
63F0
ENDCHAR
STARTCHAR uni5066
ENCODING 20582
SWIDTH 1000 0
DWIDTH 13 0
BBX 12 12 0 -2
BITMAP
2FF0
2110
49E0
4F00
D0F0
4FE0
4820
4FE0
4820
4FE0
4820
4860
ENDCHAR
STARTCHAR uni5067
ENCODING 20583
SWIDTH 1000 0
DWIDTH 13 0
BBX 12 12 0 -2
BITMAP
2200
3FF0
2480
4A40
57B0
C880
5540
46F0
5B20
4D40
4180
5E00
ENDCHAR
STARTCHAR uni5068
ENCODING 20584
SWIDTH 1000 0
DWIDTH 13 0
BBX 12 12 0 -2
BITMAP
2280
2280
2BB0
4AC0
4B90
DEF0
5100
5FF0
4380
4540
4920
5110
ENDCHAR
STARTCHAR uni5069
ENCODING 20585
SWIDTH 1000 0
DWIDTH 13 0
BBX 12 12 0 -2
BITMAP
2400
27C0
2880
5FE0
4820
CFE0
4820
4FE0
4820
4FE0
4420
5810
ENDCHAR
STARTCHAR uni506A
ENCODING 20586
SWIDTH 1000 0
DWIDTH 13 0
BBX 12 12 0 -2
BITMAP
17F0
1000
27E0
2420
67E0
A000
2FF0
2910
2FF0
2910
2FF0
2810
ENDCHAR
STARTCHAR uni506B
ENCODING 20587
SWIDTH 1000 0
DWIDTH 13 0
BBX 12 12 0 -2
BITMAP
2440
2440
49F0
5440
CBF0
5820
4BF0
4820
4920
48A0
4820
48E0
ENDCHAR
STARTCHAR uni506C
ENCODING 20588
SWIDTH 1000 0
DWIDTH 13 0
BBX 12 12 0 -2
BITMAP
2400
27E0
2AA0
56A0
4520
CAA0
54C0
4100
54A0
5450
6450
43C0
ENDCHAR
STARTCHAR uni506D
ENCODING 20589
SWIDTH 1000 0
DWIDTH 13 0
BBX 12 12 0 -2
BITMAP
2020
3FF0
2200
6FE0
6AA0
ABA0
2AA0
2AA0
2BA0
2AA0
2FE0
2820
ENDCHAR
STARTCHAR uni506E
ENCODING 20590
SWIDTH 1000 0
DWIDTH 13 0
BBX 12 12 0 -2
BITMAP
17E0
2420
27E0
6000
7FF0
A420
27E0
2420
27E0
2420
3FF0
2020
ENDCHAR
STARTCHAR uni506F
ENCODING 20591
SWIDTH 1000 0
DWIDTH 13 0
BBX 12 12 0 -2
BITMAP
2100
3FF0
4000
4FC0
C840
4840
4FC0
4520
4CC0
5440
4720
4C10
ENDCHAR
STARTCHAR uni5070
ENCODING 20592
SWIDTH 1000 0
DWIDTH 13 0
BBX 12 12 0 -2
BITMAP
2410
3EF0
4450
5E50
C490
5F10
4460
4100
5FF0
4280
4440
5830
ENDCHAR
STARTCHAR uni5071
ENCODING 20593
SWIDTH 1000 0
DWIDTH 13 0
BBX 12 12 0 -2
BITMAP
2070
2F80
4880
4FF0
C880
4BF0
4A10
4BF0
4A10
4BF0
5210
53F0
ENDCHAR
STARTCHAR uni5072
ENCODING 20594
SWIDTH 1000 0
DWIDTH 13 0
BBX 12 12 0 -2
BITMAP
2820
2FF0
4920
4FE0
C920
4920
4FE0
4100
54A0
5450
5450
47C0
ENDCHAR
STARTCHAR uni5073
ENCODING 20595
SWIDTH 1000 0
DWIDTH 13 0
BBX 12 12 0 -2
BITMAP
2100
2920
2920
6FE0
6000
BFF0
2100
2FE0
2AA0
2AA0
2AA0
2860
ENDCHAR
STARTCHAR uni5074
ENCODING 20596
SWIDTH 1000 0
DWIDTH 13 0
BBX 12 12 0 -2
BITMAP
2010
3E90
5290
5E90
D290
5E90
5290
5290
5E90
4010
4A10
7170
ENDCHAR
STARTCHAR uni5075
ENCODING 20597
SWIDTH 1000 0
DWIDTH 13 0
BBX 12 12 0 -2
BITMAP
1100
11F0
2100
2FE0
6820
AFE0
2820
2FE0
2820
2FE0
2240
3C30
ENDCHAR
STARTCHAR uni5076
ENCODING 20598
SWIDTH 1000 0
DWIDTH 13 0
BBX 12 12 0 -2
BITMAP
2FE0
2920
2FE0
4920
4FE0
C100
5FF0
5110
5150
57D0
5010
5070
ENDCHAR
STARTCHAR uni5077
ENCODING 20599
SWIDTH 1000 0
DWIDTH 13 0
BBX 12 12 0 -2
BITMAP
3100
2280
2440
7FB0
6000
AEA0
2AA0
2EA0
2AA0
2EA0
2A20
2A60
ENDCHAR
STARTCHAR uni5078
ENCODING 20600
SWIDTH 1000 0
DWIDTH 13 0
BBX 12 12 0 -2
BITMAP
2100
2280
2440
5BB0
4000
DE50
5250
5EA0
52A0
5EA0
5250
5650
ENDCHAR
STARTCHAR uni5079
ENCODING 20601
SWIDTH 1000 0
DWIDTH 13 0
BBX 12 12 0 -2
BITMAP
2200
27E0
4420
4A40
C180
4E70
57E0
54A0
57E0
54A0
44A0
47E0
ENDCHAR
STARTCHAR uni507A
ENCODING 20602
SWIDTH 1000 0
DWIDTH 13 0
BBX 12 12 0 -2
BITMAP
2440
2740
2940
5AA0
4410
CB00
50F0
4FC0
4840
4FC0
4840
4FC0
ENDCHAR
STARTCHAR uni507B
ENCODING 20603
SWIDTH 1000 0
DWIDTH 13 0
BBX 12 12 0 -2
BITMAP
2920
2540
5FF0
4580
4940
D130
4200
5FF0
4440
4680
4180
5E60
ENDCHAR
STARTCHAR uni507C
ENCODING 20604
SWIDTH 1000 0
DWIDTH 13 0
BBX 12 12 0 -2
BITMAP
2100
21F0
4100
4FE0
C020
5FF0
4020
4FE0
4900
49F0
5500
63F0
ENDCHAR
STARTCHAR uni507D
ENCODING 20605
SWIDTH 1000 0
DWIDTH 13 0
BBX 12 12 0 -2
BITMAP
2900
2500
2FC0
4240
4240
CFE0
4420
4FF0
5020
6AA0
4AA0
4060
ENDCHAR
STARTCHAR uni507E
ENCODING 20606
SWIDTH 1000 0
DWIDTH 13 0
BBX 12 12 0 -2
BITMAP
2100
2FE0
2540
5FF0
4440
CFE0
4820
4920
4920
4A20
44C0
5820
ENDCHAR
STARTCHAR uni507F
ENCODING 20607
SWIDTH 1000 0
DWIDTH 13 0
BBX 12 12 0 -2
BITMAP
2920
2540
5FF0
5010
C000
4FC0
4000
5FF0
4200
4440
4FE0
4820
ENDCHAR
STARTCHAR uni5080
ENCODING 20608
SWIDTH 1000 0
DWIDTH 13 0
BBX 12 12 0 -2
BITMAP
3100
2200
2FE0
6920
6FE0
A920
2FE0
2540
2540
25F0
2910
31F0
ENDCHAR
STARTCHAR uni5081
ENCODING 20609
SWIDTH 1000 0
DWIDTH 13 0
BBX 12 12 0 -2
BITMAP
2D60
2920
4920
4D60
C920
4D60
4100
4FE0
4420
4240
4180
5E70
ENDCHAR
STARTCHAR uni5082
ENCODING 20610
SWIDTH 1000 0
DWIDTH 13 0
BBX 12 12 0 -2
BITMAP
2060
2F80
28E0
4880
4BF0
CA90
4BC0
4AF0
5540
5550
6950
4670
ENDCHAR
STARTCHAR uni5083
ENCODING 20611
SWIDTH 1000 0
DWIDTH 13 0
BBX 12 12 0 -2
BITMAP
2100
2FF0
2100
4FE0
4100
DFF0
4280
4520
5FF0
4540
4920
5110
ENDCHAR
STARTCHAR uni5084
ENCODING 20612
SWIDTH 1000 0
DWIDTH 13 0
BBX 12 12 0 -2
BITMAP
2200
3FF0
2AA0
4440
4FE0
D850
4FC0
4840
4FC0
4840
4FC0
4840
ENDCHAR
STARTCHAR uni5085
ENCODING 20613
SWIDTH 1000 0
DWIDTH 13 0
BBX 12 12 0 -2
BITMAP
2140
2FF0
2100
6FE0
6920
AFE0
2920
2040
3FF0
2440
2240
21C0
ENDCHAR
STARTCHAR uni5086
ENCODING 20614
SWIDTH 1000 0
DWIDTH 13 0
BBX 12 12 0 -2
BITMAP
2020
2FF0
4900
4BE0
CA20
4BE0
4A20
4BE0
4880
52A0
5490
6180
ENDCHAR
STARTCHAR uni5087
ENCODING 20615
SWIDTH 1000 0
DWIDTH 13 0
BBX 12 12 0 -2
BITMAP
2240
2FF0
4240
5FF0
C420
47E0
4420
47E0
4420
47F0
5C20
4020
ENDCHAR
STARTCHAR uni5088
ENCODING 20616
SWIDTH 1000 0
DWIDTH 13 0
BBX 12 12 0 -2
BITMAP
2FF0
2280
2FE0
4AA0
4AA0
CFE0
4100
5FF0
4380
4540
5930
4100
ENDCHAR
STARTCHAR uni5089
ENCODING 20617
SWIDTH 1000 0
DWIDTH 13 0
BBX 12 12 0 -2
BITMAP
2FF0
2800
2BE0
4800
4FF0
CA40
4FB0
4840
4FF0
5240
5140
60C0
ENDCHAR
STARTCHAR uni508A
ENCODING 20618
SWIDTH 1000 0
DWIDTH 13 0
BBX 12 12 0 -2
BITMAP
27E0
2420
47E0
4000
CFE0
4820
4FE0
4820
4FE0
4820
4FE0
5830
ENDCHAR
STARTCHAR uni508B
ENCODING 20619
SWIDTH 1000 0
DWIDTH 13 0
BBX 12 12 0 -2
BITMAP
2240
2FF0
2240
2FF0
6240
BFF0
2520
27E0
2520
3FF0
2420
2460
ENDCHAR
STARTCHAR uni508C
ENCODING 20620
SWIDTH 1000 0
DWIDTH 13 0
BBX 12 12 0 -2
BITMAP
2820
2FF0
2900
4FE0
4900
CFE0
4900
4FF0
4020
4AA0
5AA0
40E0
ENDCHAR
STARTCHAR uni508D
ENCODING 20621
SWIDTH 1000 0
DWIDTH 13 0
BBX 12 12 0 -2
BITMAP
2100
2FF0
2440
4280
DFF0
5120
5FF0
4200
43E0
4440
4940
50C0
ENDCHAR
STARTCHAR uni508E
ENCODING 20622
SWIDTH 1000 0
DWIDTH 13 0
BBX 12 12 0 -2
BITMAP
2100
2FF0
2100
67E0
6420
A7E0
2420
27E0
2420
3FF0
2240
2C30
ENDCHAR
STARTCHAR uni508F
ENCODING 20623
SWIDTH 1000 0
DWIDTH 13 0
BBX 12 12 0 -2
BITMAP
2100
2FF0
4900
4FE0
C920
4FF0
4920
4FE0
4900
57E0
5420
67E0
ENDCHAR
STARTCHAR uni5090
ENCODING 20624
SWIDTH 1000 0
DWIDTH 13 0
BBX 12 12 0 -2
BITMAP
1100
1FF0
2000
27C0
6440
AFF0
2810
2BD0
2A50
2BD0
2810
2830
ENDCHAR
STARTCHAR uni5091
ENCODING 20625
SWIDTH 1000 0
DWIDTH 13 0
BBX 12 12 0 -2
BITMAP
2440
2640
2BF0
5B40
45F0
CA40
5140
5FF0
4380
4540
5930
4100
ENDCHAR
STARTCHAR uni5092
ENCODING 20626
SWIDTH 1000 0
DWIDTH 13 0
BBX 12 12 0 -2
BITMAP
20E0
2F20
4940
4500
C2C0
4F80
4220
4FF0
4100
5FF0
4440
5830
ENDCHAR
STARTCHAR uni5093
ENCODING 20627
SWIDTH 1000 0
DWIDTH 13 0
BBX 12 12 0 -2
BITMAP
20E0
2F00
2800
4FE0
4820
CFE0
4800
4BF0
4D50
5330
5550
6330
ENDCHAR
STARTCHAR uni5094
ENCODING 20628
SWIDTH 1000 0
DWIDTH 13 0
BBX 12 12 0 -2
BITMAP
2240
3FF0
2280
4FE0
42A0
DFF0
42A0
4FE0
46C0
4AA0
5290
4280
ENDCHAR
STARTCHAR uni5095
ENCODING 20629
SWIDTH 1000 0
DWIDTH 13 0
BBX 12 12 0 -2
BITMAP
2100
2FF0
2A10
5280
47F0
CC80
57E0
4480
47E0
4480
47F0
4400
ENDCHAR
STARTCHAR uni5096
ENCODING 20630
SWIDTH 1000 0
DWIDTH 13 0
BBX 12 12 0 -2
BITMAP
3100
2280
2440
4FE0
5850
CFC0
4840
4FC0
4800
4FE0
5420
67E0
ENDCHAR
STARTCHAR uni5097
ENCODING 20631
SWIDTH 1000 0
DWIDTH 13 0
BBX 12 12 0 -2
BITMAP
2100
2FF0
4240
4480
C320
5FF0
4010
4FE0
4920
4FE0
4920
4FE0
ENDCHAR
STARTCHAR uni5098
ENCODING 20632
SWIDTH 1000 0
DWIDTH 13 0
BBX 12 12 0 -2
BITMAP
0600
0900
1080
2AC0
D2B0
2B40
5280
32C0
4B20
FFF0
0200
0200
ENDCHAR
STARTCHAR uni5099
ENCODING 20633
SWIDTH 1000 0
DWIDTH 13 0
BBX 12 12 0 -2
BITMAP
2480
2FE0
2480
5FF0
4400
CFE0
4D20
57E0
6520
47E0
4520
4560
ENDCHAR
STARTCHAR uni509A
ENCODING 20634
SWIDTH 1000 0
DWIDTH 13 0
BBX 12 12 0 -2
BITMAP
2880
2480
5EA0
40F0
D2A0
65A0
54A0
4840
4C40
52A0
6120
4210
ENDCHAR
STARTCHAR uni509B
ENCODING 20635
SWIDTH 1000 0
DWIDTH 13 0
BBX 12 12 0 -2
BITMAP
2200
2100
2FF0
5A50
4520
CA90
4440
4830
57E0
4420
4420
47E0
ENDCHAR
STARTCHAR uni509C
ENCODING 20636
SWIDTH 1000 0
DWIDTH 13 0
BBX 12 12 0 -2
BITMAP
3100
23E0
2540
4A80
4100
CE00
47E0
4900
5FF0
4920
4920
4FE0
ENDCHAR
STARTCHAR uni509D
ENCODING 20637
SWIDTH 1000 0
DWIDTH 13 0
BBX 12 12 0 -2
BITMAP
27E0
2420
27E0
6420
67E0
A000
3EF0
2A50
2630
2AD0
3210
2670
ENDCHAR
STARTCHAR uni509E
ENCODING 20638
SWIDTH 1000 0
DWIDTH 13 0
BBX 12 12 0 -2
BITMAP
2440
2280
2FF0
4100
4FE0
C100
5FF0
4400
47E0
4900
5100
4FF0
ENDCHAR
STARTCHAR uni509F
ENCODING 20639
SWIDTH 1000 0
DWIDTH 13 0
BBX 12 12 0 -2
BITMAP
23C0
2440
4920
5250
4FE0
C000
5EE0
52A0
4A20
4660
5BA0
4660
ENDCHAR
STARTCHAR uni50A0
ENCODING 20640
SWIDTH 1000 0
DWIDTH 13 0
BBX 12 12 0 -2
BITMAP
3E20
2020
5E20
41F0
5E20
C120
5EA0
40A0
5E20
5220
5E20
5260
ENDCHAR
STARTCHAR uni50A1
ENCODING 20641
SWIDTH 1000 0
DWIDTH 13 0
BBX 12 12 0 -2
BITMAP
2840
2840
4840
5FF0
4420
D520
54A0
54A0
54A0
46A0
5840
43F0
ENDCHAR
STARTCHAR uni50A2
ENCODING 20642
SWIDTH 1000 0
DWIDTH 13 0
BBX 12 12 0 -2
BITMAP
2200
2920
2FF0
5020
4FC0
C620
5B40
4580
5B40
4520
5910
4700
ENDCHAR
STARTCHAR uni50A3
ENCODING 20643
SWIDTH 1000 0
DWIDTH 13 0
BBX 12 12 0 -2
BITMAP
2100
2FE0
2100
4FE0
4200
DFF0
4920
5750
4180
4740
5920
4300
ENDCHAR
STARTCHAR uni50A4
ENCODING 20644
SWIDTH 1000 0
DWIDTH 13 0
BBX 12 12 0 -2
BITMAP
2440
2F50
4440
5FF0
C840
7F50
5450
5F50
4420
4760
5CB0
4510
ENDCHAR
STARTCHAR uni50A5
ENCODING 20645
SWIDTH 1000 0
DWIDTH 13 0
BBX 12 12 0 -2
BITMAP
2920
2540
5FF0
5010
CFC0
4840
4840
4FC0
4500
4510
4910
70F0
ENDCHAR
STARTCHAR uni50A6
ENCODING 20646
SWIDTH 1000 0
DWIDTH 13 0
BBX 12 12 0 -2
BITMAP
27C0
2440
45C0
4540
DFF0
5010
47C0
4440
47C0
4440
4440
44C0
ENDCHAR
STARTCHAR uni50A7
ENCODING 20647
SWIDTH 1000 0
DWIDTH 13 0
BBX 12 12 0 -2
BITMAP
2100
2FF0
2810
53C0
4400
C7E0
4480
4480
5FF0
4480
4840
5020
ENDCHAR
STARTCHAR uni50A8
ENCODING 20648
SWIDTH 1000 0
DWIDTH 13 0
BBX 12 12 0 -2
BITMAP
2080
2890
25D0
40A0
5BF0
C880
49E0
4B20
49E0
4D20
49E0
4120
ENDCHAR
STARTCHAR uni50A9
ENCODING 20649
SWIDTH 1000 0
DWIDTH 13 0
BBX 12 12 0 -2
BITMAP
2120
2140
7DF0
4540
E740
55F0
4940
49F0
5540
5540
61F0
4100
ENDCHAR
STARTCHAR uni50AA
ENCODING 20650
SWIDTH 1000 0
DWIDTH 13 0
BBX 12 12 0 -2
BITMAP
2200
2440
4FE0
4440
CA90
5FF0
4480
5B70
4CC0
4320
40C0
5F00
ENDCHAR
STARTCHAR uni50AB
ENCODING 20651
SWIDTH 1000 0
DWIDTH 13 0
BBX 12 12 0 -2
BITMAP
2FF0
2910
2FF0
4910
4FF0
CA40
4480
4320
5FF0
4540
4920
5110
ENDCHAR
STARTCHAR uni50AC
ENCODING 20652
SWIDTH 1000 0
DWIDTH 13 0
BBX 12 12 0 -2
BITMAP
2100
2920
2FE0
4500
4480
CFF0
5900
4FE0
4900
4FE0
4900
4FF0
ENDCHAR
STARTCHAR uni50AD
ENCODING 20653
SWIDTH 1000 0
DWIDTH 13 0
BBX 12 12 0 -2
BITMAP
2100
2FF0
2920
4FF0
4920
CFE0
4900
4FE0
5520
57E0
5520
6560
ENDCHAR
STARTCHAR uni50AE
ENCODING 20654
SWIDTH 1000 0
DWIDTH 13 0
BBX 12 12 0 -2
BITMAP
1240
1FF0
2240
2FF0
6A50
AFF0
2A50
2FF0
2420
27E0
2420
27E0
ENDCHAR
STARTCHAR uni50AF
ENCODING 20655
SWIDTH 1000 0
DWIDTH 13 0
BBX 12 12 0 -2
BITMAP
1100
2FE0
2920
4BE0
4EA0
C920
4FE0
4000
5520
5550
5450
47C0
ENDCHAR
STARTCHAR uni50B0
ENCODING 20656
SWIDTH 1000 0
DWIDTH 13 0
BBX 12 12 0 -2
BITMAP
2100
2910
2FF0
4000
4EF0
CA90
4EF0
4A90
4EF0
4A90
4A90
5330
ENDCHAR
STARTCHAR uni50B1
ENCODING 20657
SWIDTH 1000 0
DWIDTH 13 0
BBX 12 12 0 -2
BITMAP
2520
2520
4920
5550
4690
C840
5840
4970
4940
4940
4AC0
4C70
ENDCHAR
STARTCHAR uni50B2
ENCODING 20658
SWIDTH 1000 0
DWIDTH 13 0
BBX 12 12 0 -2
BITMAP
2440
3F40
2440
5FF0
C4A0
7FA0
48A0
4EA0
4A40
5240
6CA0
4310
ENDCHAR
STARTCHAR uni50B3
ENCODING 20659
SWIDTH 1000 0
DWIDTH 13 0
BBX 12 12 0 -2
BITMAP
2100
3FF0
2920
6FE0
A920
2FE0
2140
2FE0
2040
3FF0
2240
21C0
ENDCHAR
STARTCHAR uni50B4
ENCODING 20660
SWIDTH 1000 0
DWIDTH 13 0
BBX 12 12 0 -2
BITMAP
2820
2FF0
2BC0
2A40
6BC0
A800
2F70
2D50
2D50
2F70
2800
2FF0
ENDCHAR
STARTCHAR uni50B5
ENCODING 20661
SWIDTH 1000 0
DWIDTH 13 0
BBX 12 12 0 -2
BITMAP
2100
3FF0
2100
4FE0
4100
DFF0
4820
4FE0
4820
4FE0
4440
5830
ENDCHAR
STARTCHAR uni50B6
ENCODING 20662
SWIDTH 1000 0
DWIDTH 13 0
BBX 12 12 0 -2
BITMAP
2060
2850
4FF0
4A40
CB40
4A50
4FD0
4A50
5720
5A60
52B0
6710
ENDCHAR
STARTCHAR uni50B7
ENCODING 20663
SWIDTH 1000 0
DWIDTH 13 0
BBX 12 12 0 -2
BITMAP
2420
27F0
2C40
57C0
4440
C7C0
4400
5FF0
4AA0
52A0
4520
5AE0
ENDCHAR
STARTCHAR uni50B8
ENCODING 20664
SWIDTH 1000 0
DWIDTH 13 0
BBX 12 12 0 -2
BITMAP
2100
2100
3FF0
4B20
4540
CBA0
4520
4940
56A0
4240
4420
5810
ENDCHAR
STARTCHAR uni50B9
ENCODING 20665
SWIDTH 1000 0
DWIDTH 13 0
BBX 12 12 0 -2
BITMAP
2100
2FE0
4440
4280
5FF0
C820
4FE0
4820
4FE0
4290
4490
58F0
ENDCHAR
STARTCHAR uni50BA
ENCODING 20666
SWIDTH 1000 0
DWIDTH 13 0
BBX 12 12 0 -2
BITMAP
2520
2770
29A0
5640
6C20
CBD0
5000
4FF0
4100
4520
4910
4300
ENDCHAR
STARTCHAR uni50BB
ENCODING 20667
SWIDTH 1000 0
DWIDTH 13 0
BBX 12 12 0 -2
BITMAP
2100
2FE0
2AA0
4920
4AA0
CFE0
4480
5A70
47C0
5A80
4380
5C70
ENDCHAR
STARTCHAR uni50BC
ENCODING 20668
SWIDTH 1000 0
DWIDTH 13 0
BBX 12 12 0 -2
BITMAP
2440
2FF0
2440
4FE0
4920
CFE0
4100
4FE0
4100
5FF0
4280
5C70
ENDCHAR
STARTCHAR uni50BD
ENCODING 20669
SWIDTH 1000 0
DWIDTH 13 0
BBX 12 12 0 -2
BITMAP
1100
2FE0
2240
5FF0
4820
CFE0
4820
4FE0
4100
5FF0
4100
4100
ENDCHAR
STARTCHAR uni50BE
ENCODING 20670
SWIDTH 1000 0
DWIDTH 13 0
BBX 12 12 0 -2
BITMAP
2020
37F0
5080
53E0
DE20
53E0
5220
57E0
5A20
63E0
4120
4E10
ENDCHAR
STARTCHAR uni50BF
ENCODING 20671
SWIDTH 1000 0
DWIDTH 13 0
BBX 12 12 0 -2
BITMAP
2FF0
2100
25E0
4500
5FF0
C400
47E0
4400
4FF0
4020
4AA0
5AE0
ENDCHAR
STARTCHAR uni50C0
ENCODING 20672
SWIDTH 1000 0
DWIDTH 13 0
BBX 12 12 0 -2
BITMAP
2AA0
3FF0
4AA0
53B0
C000
5FF0
5110
4FE0
4920
4920
4960
4100
ENDCHAR
STARTCHAR uni50C1
ENCODING 20673
SWIDTH 1000 0
DWIDTH 13 0
BBX 12 12 0 -2
BITMAP
20E0
2F20
2540
4FF0
4340
C520
5810
4280
4AA0
4A10
5250
43C0
ENDCHAR
STARTCHAR uni50C2
ENCODING 20674
SWIDTH 1000 0
DWIDTH 13 0
BBX 12 12 0 -2
BITMAP
2100
2FE0
4920
5FF0
C920
4920
4FE0
4200
5FF0
4440
4380
5E60
ENDCHAR
STARTCHAR uni50C3
ENCODING 20675
SWIDTH 1000 0
DWIDTH 13 0
BBX 12 12 0 -2
BITMAP
2240
2E70
4400
4FF0
4810
DF90
4A90
4F90
4A90
4F90
4A90
4060
ENDCHAR
STARTCHAR uni50C4
ENCODING 20676
SWIDTH 1000 0
DWIDTH 13 0
BBX 12 12 0 -2
BITMAP
2FF0
2280
2FE0
4AA0
4FE0
C000
4FE0
4000
5FF0
4520
4910
4300
ENDCHAR
STARTCHAR uni50C5
ENCODING 20677
SWIDTH 1000 0
DWIDTH 13 0
BBX 12 12 0 -2
BITMAP
2480
3FF0
4480
4780
4100
CFE0
4920
5FF0
4100
4FE0
4100
5FF0
ENDCHAR
STARTCHAR uni50C6
ENCODING 20678
SWIDTH 1000 0
DWIDTH 13 0
BBX 12 12 0 -2
BITMAP
2880
2BF0
4080
5BE0
CAA0
4BE0
52A0
5BE0
4880
4BF0
5480
63F0
ENDCHAR
STARTCHAR uni50C7
ENCODING 20679
SWIDTH 1000 0
DWIDTH 13 0
BBX 12 12 0 -2
BITMAP
2220
3FE0
2AA0
4660
4AA0
C100
46C0
5930
4680
4340
4080
4F00
ENDCHAR
STARTCHAR uni50C8
ENCODING 20680
SWIDTH 1000 0
DWIDTH 13 0
BBX 12 12 0 -2
BITMAP
17C0
1440
27C0
2440
6FF0
AA90
2FF0
2000
27E0
2280
2380
3C70
ENDCHAR
STARTCHAR uni50C9
ENCODING 20681
SWIDTH 1000 0
DWIDTH 13 0
BBX 12 12 0 -2
BITMAP
0600
0900
1080
2F40
C030
3DE0
2520
3DE0
1080
1080
2940
C220
ENDCHAR
STARTCHAR uni50CA
ENCODING 20682
SWIDTH 1000 0
DWIDTH 13 0
BBX 12 12 0 -2
BITMAP
2FF0
2280
4FE0
4AA0
4FE0
C100
5FF0
4440
4FF0
5440
4490
47F0
ENDCHAR
STARTCHAR uni50CB
ENCODING 20683
SWIDTH 1000 0
DWIDTH 13 0
BBX 12 12 0 -2
BITMAP
1100
2280
2560
5BD0
4040
CFE0
4820
4FE0
4820
4FE0
4240
5C30
ENDCHAR
STARTCHAR uni50CC
ENCODING 20684
SWIDTH 1000 0
DWIDTH 13 0
BBX 12 12 0 -2
BITMAP
4840
7E40
4880
7EF0
EBA0
7EA0
6AA0
7E40
4840
7E40
48A0
4910
ENDCHAR
STARTCHAR uni50CD
ENCODING 20685
SWIDTH 1000 0
DWIDTH 13 0
BBX 12 12 0 -2
BITMAP
5F40
4440
5F40
55F0
DF50
D550
5F50
4450
5E50
4490
5E90
4160
ENDCHAR
STARTCHAR uni50CE
ENCODING 20686
SWIDTH 1000 0
DWIDTH 13 0
BBX 12 12 0 -2
BITMAP
3EE0
32A0
5EE0
5090
DEF0
4000
4480
5FF0
4480
5FF0
4440
5830
ENDCHAR
STARTCHAR uni50CF
ENCODING 20687
SWIDTH 1000 0
DWIDTH 13 0
BBX 12 12 0 -2
BITMAP
2400
2780
2900
5FE0
4920
CFE0
4640
5B80
4540
5B20
4510
5B00
ENDCHAR
STARTCHAR uni50D0
ENCODING 20688
SWIDTH 1000 0
DWIDTH 13 0
BBX 12 12 0 -2
BITMAP
2440
3FF0
2100
4FE0
4100
DFF0
4440
5FF0
4000
4FE0
4820
4FE0
ENDCHAR
STARTCHAR uni50D1
ENCODING 20689
SWIDTH 1000 0
DWIDTH 13 0
BBX 12 12 0 -2
BITMAP
2FE0
2100
5FF0
44C0
4FA0
D490
4780
5FE0
54A0
54A0
57A0
5060
ENDCHAR
STARTCHAR uni50D2
ENCODING 20690
SWIDTH 1000 0
DWIDTH 13 0
BBX 12 12 0 -2
BITMAP
2100
3FF0
5490
4870
DFC0
4240
5FF0
4440
5FE0
4C20
5420
47E0
ENDCHAR
STARTCHAR uni50D3
ENCODING 20691
SWIDTH 1000 0
DWIDTH 13 0
BBX 12 12 0 -2
BITMAP
2100
2FE0
2920
7FF0
6000
AFE0
2820
2FE0
2820
2FE0
2240
3C30
ENDCHAR
STARTCHAR uni50D4
ENCODING 20692
SWIDTH 1000 0
DWIDTH 13 0
BBX 12 12 0 -2
BITMAP
2440
2FF0
2280
4FE0
4AA0
CCE0
4820
4FE0
4040
5FF0
4440
41C0
ENDCHAR
ENDFONT
